<?xml version="1.0" standalone="no"?>
<!DOCTYPE svg PUBLIC "-//W3C//DTD SVG 1.1//EN" "http://www.w3.org/Graphics/SVG/1.1/DTD/svg11.dtd" >
<svg>
<metadata>
Created by FontForge 20090622 at Mon Feb 17 08:03:44 2020
 By deploy user
Copyright 2008 The Sunflower Project Authors
</metadata>
<defs>
<font id="Sunflower-Light" horiz-adv-x="900" >
  <font-face 
    font-family="Sunflower Light"
    font-weight="300"
    font-stretch="normal"
    units-per-em="1000"
    panose-1="0 0 0 0 0 0 0 0 0 0"
    ascent="782"
    descent="-218"
    x-height="500"
    cap-height="692"
    bbox="-49 -235 933 798"
    underline-thickness="32"
    underline-position="-262"
    unicode-range="U+000D-U+D79D"
  />
<missing-glyph horiz-adv-x="500" 
 />
    <glyph glyph-name=".notdef" horiz-adv-x="500" 
 />
    <glyph glyph-name="uni0000" horiz-adv-x="0" 
 />
    <glyph glyph-name="uni0000" horiz-adv-x="0" 
 />
    <glyph glyph-name="uni000D" unicode="&#xd;" horiz-adv-x="250" 
 />
    <glyph glyph-name="space" unicode=" " horiz-adv-x="220" 
 />
    <glyph glyph-name="uniAC00" unicode="&#xac00;" 
d="M850 493v69h-135v203h-75v-730h75v458h135zM505 700l-60 44h-315v-70h270l-252 -360l59 -40z" />
    <glyph glyph-name="uniAC01" unicode="&#xac01;" 
d="M493 691l-54 53h-319v-69h267l-246 -290l56 -44zM715 -195v352v369h135v69h-135v170h-75v-608h-343v-69h343v-283h75z" />
    <glyph glyph-name="uniAC04" unicode="&#xac04;" 
d="M850 526v69h-135v170h-75v-620h75v381h135zM493 691l-54 53h-319v-69h267l-246 -290l56 -44zM725 -195v69h-342v242h-75v-243q0 -28 20 -48t48 -20h349z" />
    <glyph glyph-name="uniAC07" unicode="&#xac07;" 
d="M493 691l-54 53h-319v-69h267l-246 -290l56 -44zM725 -195v69h-342v214h332v69v369h135v69h-135v170h-75v-608h-332v-284q0 -28 20 -48t48 -20h349z" />
    <glyph glyph-name="uniAC08" unicode="&#xac08;" 
d="M493 691l-54 53h-319v-69h267l-246 -290l56 -44zM725 -215v64h-342v98h332v221v358h135v69h-135v170h-75v-597h-332v-64h332v-97h-332v-154q0 -28 20 -48t48 -20h349z" />
    <glyph glyph-name="uniAC09" unicode="&#xac09;" 
d="M493 691l-54 53h-319v-69h267l-246 -290l56 -44zM476 -205v64h-187v93h177v147h174v-304h75v373v358h135v69h-135v170h-75v-597h-187h-239v-64h177v-92h-177v-149q0 -28 20.5 -48t48.5 -20h193z" />
    <glyph glyph-name="uniAC0A" unicode="&#xac0a;" 
d="M493 691l-54 53h-319v-69h267l-246 -290l56 -44zM715 -137v305v358h135v69h-135v170h-75v-597h-176v-305q0 -28 20 -48t48 -20h114q29 0 49 20t20 48zM640 -136h-102v235h102v-235zM403 -205v64h-166v93h156v216h-231v-64h156v-92h-156v-149q0 -28 20.5 -48t48.5 -20h172
z" />
    <glyph glyph-name="uniAC10" unicode="&#xac10;" 
d="M493 691l-54 53h-319v-69h267l-246 -290l56 -44zM715 -127v284v369h135v69h-135v170h-75v-608h-332v-284q0 -28 20 -48t48 -20h270q29 0 49 20t20 48zM640 -126h-257v214h257v-214z" />
    <glyph glyph-name="uniAC11" unicode="&#xac11;" 
d="M493 691l-54 53h-319v-69h267l-246 -290l56 -44zM715 -132v289v369h135v69h-135v170h-75v-620v-80h-257v92h-75v-289q0 -28 20 -48t48 -20h270q29 0 49 20t20 48zM640 -131h-257v127h257v-127z" />
    <glyph glyph-name="uniAC12" unicode="&#xac12;" 
d="M850 526v69h-135v170h-75v-620h75v381h135zM493 691l-54 53h-319v-69h267l-246 -290l56 -44zM761 -161l-151 243l-150 -243l60 -38l90 146l90 -146zM434 -127v295h-74v-98h-102v98h-75v-295q0 -28 20.5 -48t48.5 -20h114q29 0 48.5 20t19.5 48zM360 -126h-102v127h102
v-127z" />
    <glyph glyph-name="uniAC13" unicode="&#xac13;" 
d="M850 526v69h-135v170h-75v-620h75v381h135zM493 691l-54 53h-319v-69h267l-246 -290l56 -44zM741 -154l-250 293l-251 -293l58 -45l193 228l192 -228z" />
    <glyph glyph-name="uniAC14" unicode="&#xac14;" 
d="M850 526v69h-135v170h-75v-620h75v381h135zM493 691l-54 53h-319v-69h267l-246 -290l56 -44zM742 -173l-156 315l-127 -207l-125 207l-156 -315l65 -28l97 198l119 -180l121 180l97 -198z" />
    <glyph glyph-name="uniAC15" unicode="&#xac15;" 
d="M850 526v69h-135v170h-75v-652q-37 20 -64 28t-53 8q-39 0 -73.5 -14t-61 -39t-42 -58t-15.5 -71q0 -37 15.5 -70t41.5 -58t61 -39.5t74 -14.5q40 0 75 14.5t61 39.5t41 58t15 70v559h135zM640 -33q0 -26 -9.5 -47t-26 -36t-37.5 -23.5t-44 -8.5q-24 0 -45.5 8.5
t-37.5 23.5t-25.5 36t-9.5 47q0 25 9.5 46.5t25.5 37t37.5 24t45.5 8.5q22 0 43.5 -8.5t37.5 -23.5t26 -36.5t10 -47.5zM493 691l-54 53h-319v-69h267l-246 -290l56 -44z" />
    <glyph glyph-name="uniAC16" unicode="&#xac16;" 
d="M493 691l-54 53h-319v-69h267l-246 -290l56 -44zM756 -155l-204 243h163v69v369h135v69h-135v170h-75v-608h-332v-69h162l-203 -243l56 -44l188 226l188 -226z" />
    <glyph glyph-name="uniAC17" unicode="&#xac17;" 
d="M493 691l-54 53h-319v-69h267l-246 -290l56 -44zM756 -149l-207 217h166v69v389h135v69h-135v170h-75v-628h-91v82h-75v-82h-166v-69h166l-207 -217l54 -50l190 206l191 -206z" />
    <glyph glyph-name="uniAC19" unicode="&#xac19;" 
d="M493 691l-54 53h-319v-69h267l-246 -290l56 -44zM715 -205v64h-332v87h322v61h-322v87h332v63v369h135v69h-135v170h-75v-608h-332v-294q0 -28 20 -48t48 -20h339z" />
    <glyph glyph-name="uniAC1A" unicode="&#xac1a;" 
d="M493 691l-54 53h-319v-69h267l-246 -290l56 -44zM414 -126v214h153v-214h-153zM720 -195v69h-78v214h73v69v369h135v69h-135v170h-75v-608h-374v-69h73v-214h-78v-69h459z" />
    <glyph glyph-name="uniAC1B" unicode="&#xac1b;" 
d="M493 691l-54 53h-319v-69h267l-246 -290l56 -44zM655 -45q0 32 -12.5 61.5t-33.5 51.5h106v69v389h135v69h-135v170h-75v-628h-128v82h-74v-82h-203v-69h106q-21 -22 -33.5 -51.5t-12.5 -61.5q0 -35 14.5 -66t39 -54t57.5 -36.5t69 -13.5t69 13.5t57.5 36.5t39 54
t14.5 66zM580 -45q0 -23 -8.5 -41.5t-22.5 -32.5t-33.5 -21.5t-40.5 -7.5t-40.5 7.5t-33.5 21.5t-22.5 32.5t-8.5 41.5q0 22 8.5 41t22.5 33t33.5 21.5t40.5 7.5t40.5 -7.5t33.5 -21.5t22.5 -33t8.5 -41z" />
    <glyph glyph-name="uniAC1C" unicode="&#xac1c;" 
d="M760 35v730h-75v-192h-110v192h-73v-730h73v468h110v-468h75zM418 705l-63 39h-235v-70h199l-199 -343l63 -34z" />
    <glyph glyph-name="uniAC1D" unicode="&#xac1d;" 
d="M429 707l-52 37h-257v-68h203l-195 -297l61 -37zM760 -195v352v608h-75v-170h-110v170h-73v-496h73v257h110v-369h-345v-69h345v-283h75z" />
    <glyph glyph-name="uniAC20" unicode="&#xac20;" 
d="M760 145v620h-76v-170h-109v170h-73v-620h73v381h109v-381h76zM429 707l-52 37h-257v-68h203l-195 -297l61 -37zM770 -195v69h-344v242h-75v-243q0 -28 20.5 -48t48.5 -20h350z" />
    <glyph glyph-name="uniAC24" unicode="&#xac24;" 
d="M429 707l-52 37h-257v-68h203l-195 -297l61 -37zM770 -215v64h-344v98h334v221v597h-76v-170h-109v170h-73v-496h73v257h109v-358h-333v-64h333v-97h-333v-154q0 -28 20.5 -48t48.5 -20h350z" />
    <glyph glyph-name="uniAC2C" unicode="&#xac2c;" 
d="M429 707l-52 37h-257v-68h203l-195 -297l61 -37zM760 -127v284v608h-75v-170h-110v170h-73v-496h73v257h110v-369h-334v-284q0 -28 20.5 -48t48.5 -20h271q29 0 49 20t20 48zM685 -126h-259v214h259v-214z" />
    <glyph glyph-name="uniAC2D" unicode="&#xac2d;" 
d="M429 707l-52 37h-257v-68h203l-195 -297l61 -37zM760 -132v289v608h-75v-170h-110v170h-73v-496h73v257h110v-381v-80h-259v92h-75v-289q0 -28 20.5 -48t48.5 -20h271q29 0 49 20t20 48zM685 -131h-259v127h259v-127z" />
    <glyph glyph-name="uniAC2F" unicode="&#xac2f;" 
d="M759 145v620h-75v-170h-110v170h-73v-496h73v257h110v-381h75zM429 707l-52 37h-257v-68h203l-195 -297l61 -37zM785 -154l-251 293l-251 -293l58 -45l193 228l192 -228z" />
    <glyph glyph-name="uniAC30" unicode="&#xac30;" 
d="M759 145v620h-75v-170h-110v170h-73v-496h73v257h110v-381h75zM429 707l-52 37h-257v-68h203l-195 -297l61 -37zM786 -173l-157 315l-127 -207l-125 207l-157 -315l65 -28l98 198l120 -180l120 180l98 -198z" />
    <glyph glyph-name="uniAC31" unicode="&#xac31;" 
d="M760 -33v798h-75v-170h-110v170h-73v-496h73v257h110v-413q-37 20 -64.5 28t-53.5 8q-39 0 -74 -14.5t-61.5 -39t-42 -58t-15.5 -70.5t15.5 -70t41.5 -58t61.5 -39.5t74.5 -14.5q40 0 75 15t61 40t41.5 58t15.5 69zM685 -33q0 -26 -9.5 -47t-25.5 -36t-37.5 -23.5
t-45.5 -8.5t-45.5 8.5t-37.5 23.5t-25.5 36t-9.5 47q0 25 9.5 46.5t25.5 37t37.5 24t45.5 8.5t45.5 -8.5t37.5 -24t25.5 -37t9.5 -46.5zM429 707l-52 37h-257v-68h203l-195 -297l61 -37z" />
    <glyph glyph-name="uniAC38" unicode="&#xac38;" 
d="M850 404v70h-135v117h135v70h-135v104h-75v-730h75v369h135zM505 700l-60 44h-315v-70h270l-252 -360l59 -40z" />
    <glyph glyph-name="uniAC39" unicode="&#xac39;" 
d="M493 691l-54 53h-319v-69h267l-246 -290l56 -44zM715 -195v352v281h135v69h-135v107h135v69h-135v82h-75v-608h-343v-69h343v-283h75z" />
    <glyph glyph-name="uniAC3C" unicode="&#xac3c;" 
d="M850 438v69h-135v107h135v69h-135v82h-75v-620h75v293h135zM493 691l-54 53h-319v-69h267l-246 -290l56 -44zM725 -195v69h-342v242h-75v-243q0 -28 20 -48t48 -20h349z" />
    <glyph glyph-name="uniAC40" unicode="&#xac40;" 
d="M493 691l-54 53h-319v-69h267l-246 -290l56 -44zM725 -215v64h-342v98h332v221v271h135v69h-135v106h135v69h-135v82h-75v-597h-332v-64h332v-97h-332v-154q0 -28 20 -48t48 -20h349z" />
    <glyph glyph-name="uniAC4B" unicode="&#xac4b;" 
d="M850 439v69h-135v106h135v69h-135v82h-75v-620h75v294h135zM493 691l-54 53h-319v-69h267l-246 -290l56 -44zM741 -154l-250 293l-251 -293l58 -45l193 228l192 -228z" />
    <glyph glyph-name="uniAC4D" unicode="&#xac4d;" 
d="M850 439v69h-135v106h135v69h-135v82h-75v-652q-37 20 -64 28t-53 8q-39 0 -73.5 -14t-61 -39t-42 -58t-15.5 -71q0 -37 15.5 -70t41.5 -58t61 -39.5t74 -14.5q40 0 75 14.5t61 39.5t41 58t15 70v472h135zM640 -33q0 -26 -9.5 -47t-26 -36t-37.5 -23.5t-44 -8.5
q-24 0 -45.5 8.5t-37.5 23.5t-25.5 36t-9.5 47q0 25 9.5 46.5t25.5 37t37.5 24t45.5 8.5q22 0 43.5 -8.5t37.5 -23.5t26 -36.5t10 -47.5zM493 691l-54 53h-319v-69h267l-246 -290l56 -44z" />
    <glyph glyph-name="uniAC54" unicode="&#xac54;" 
d="M760 35v730h-75v-94h-110v94h-73v-730h73v359h110v-359h75zM685 463h-110v139h110v-139zM418 705l-63 39h-235v-70h199l-199 -343l63 -34z" />
    <glyph glyph-name="uniAC58" unicode="&#xac58;" 
d="M760 145v620h-76v-82h-109v82h-73v-620h73v283h109v-283h76zM684 497h-109v117h109v-117zM429 707l-52 37h-257v-68h203l-195 -297l61 -37zM770 -195v69h-344v242h-75v-243q0 -28 20.5 -48t48.5 -20h350z" />
    <glyph glyph-name="uniAC5C" unicode="&#xac5c;" 
d="M429 707l-52 37h-257v-68h203l-195 -297l61 -37zM770 -215v64h-344v98h334v221v597h-76v-82h-109v82h-73v-496h73v159h109v-260h-333v-64h333v-97h-333v-154q0 -28 20.5 -48t48.5 -20h350zM684 497h-109v117h109v-117z" />
    <glyph glyph-name="uniAC70" unicode="&#xac70;" 
d="M730 35v730h-76v-224h-208v-69h208v-437h76zM508 700l-61 44h-317v-70h272l-254 -360l60 -40z" />
    <glyph glyph-name="uniAC71" unicode="&#xac71;" 
d="M507 691l-56 53h-321v-69h270l-249 -290l57 -44zM730 -195v352v608h-75v-200h-210v-69h210v-339h-346v-69h346v-283h75z" />
    <glyph glyph-name="uniAC74" unicode="&#xac74;" 
d="M730 145v620h-76v-200h-209v-69h209v-351h76zM507 691l-56 53h-321v-69h270l-249 -290l57 -44zM740 -195v69h-345v242h-76v-243q0 -28 20.5 -48t48.5 -20h352z" />
    <glyph glyph-name="uniAC77" unicode="&#xac77;" 
d="M507 691l-56 53h-321v-69h270l-249 -290l57 -44zM740 -195v69h-345v214h335v69v608h-76v-200h-209v-69h209v-339h-335v-284q0 -28 20.5 -48t48.5 -20h352z" />
    <glyph glyph-name="uniAC78" unicode="&#xac78;" 
d="M507 691l-56 53h-321v-69h270l-249 -290l57 -44zM740 -215v64h-345v98h335v221v597h-76v-200h-209v-69h209v-328h-335v-64h335v-97h-335v-154q0 -28 20.5 -48t48.5 -20h352z" />
    <glyph glyph-name="uniAC7A" unicode="&#xac7a;" 
d="M507 691l-56 53h-321v-69h270l-249 -290l57 -44zM730 -137v305v597h-75v-200h-210v-69h210v-328h-178v-305q0 -28 20.5 -48t48.5 -20h115q29 0 49 20t20 48zM655 -136h-103v235h103v-235zM416 -205v64h-168v93h157v216h-232v-64h157v-92h-157v-149q0 -28 20.5 -48
t48.5 -20h174z" />
    <glyph glyph-name="uniAC80" unicode="&#xac80;" 
d="M507 691l-56 53h-321v-69h270l-249 -290l57 -44zM730 -127v284v608h-75v-200h-210v-69h210v-339h-336v-284q0 -28 21 -48t49 -20h272q29 0 49 20t20 48zM655 -126h-260v214h260v-214z" />
    <glyph glyph-name="uniAC81" unicode="&#xac81;" 
d="M507 691l-56 53h-321v-69h270l-249 -290l57 -44zM730 -132v289v608h-75v-200h-210v-69h210v-351v-80h-260v92h-76v-289q0 -28 21 -48t49 -20h272q29 0 49 20t20 48zM655 -131h-260v127h260v-127z" />
    <glyph glyph-name="uniAC83" unicode="&#xac83;" 
d="M729 145v620h-76v-200h-209v-69h209v-351h76zM507 691l-56 53h-321v-69h270l-249 -290l57 -44zM755 -154l-252 293l-252 -293l59 -45l193 228l193 -228z" />
    <glyph glyph-name="uniAC84" unicode="&#xac84;" 
d="M729 145v620h-76v-200h-209v-69h209v-351h76zM507 691l-56 53h-321v-69h270l-249 -290l57 -44zM756 -173l-157 315l-128 -207l-126 207l-157 -315l65 -28l99 198l120 -180l121 180l98 -198z" />
    <glyph glyph-name="uniAC85" unicode="&#xac85;" 
d="M507 691l-56 53h-321v-69h270l-249 -290l57 -44zM730 -33v798h-75v-200h-210v-69h210v-383q-38 20 -65.5 28t-53.5 8q-39 0 -74 -14.5t-61.5 -39t-42 -58t-15.5 -70.5t15.5 -70t41.5 -58t61.5 -39.5t74.5 -14.5t74.5 14.5t62 39.5t42 58t15.5 70zM655 -33q0 -26 -9.5 -47
t-26 -36t-38 -23.5t-45.5 -8.5t-45.5 8.5t-37.5 23.5t-25.5 36t-9.5 47q0 25 9.5 46.5t25.5 37t37.5 24t45.5 8.5t45.5 -8.5t38 -24t26 -37t9.5 -46.5z" />
    <glyph glyph-name="uniAC86" unicode="&#xac86;" 
d="M507 691l-56 53h-321v-69h270l-249 -290l57 -44zM769 -155l-204 243h163v69v608h-75v-200h-209v-69h209v-339h-334v-69h163l-204 -243l56 -44l189 226l189 -226z" />
    <glyph glyph-name="uniAC89" unicode="&#xac89;" 
d="M507 691l-56 53h-321v-69h270l-249 -290l57 -44zM730 -205v64h-335v87h325v61h-325v87h335v63v608h-75v-200h-210v-69h210v-339h-336v-294q0 -28 21 -48t49 -20h341z" />
    <glyph glyph-name="uniAC8A" unicode="&#xac8a;" 
d="M507 691l-56 53h-321v-69h270l-249 -290l57 -44zM426 -126v214h155v-214h-155zM735 -195v69h-79v214h74v69v608h-76v-200h-209v-69h209v-339h-376v-69h73v-214h-79v-69h463z" />
    <glyph glyph-name="uniAC8B" unicode="&#xac8b;" 
d="M507 691l-56 53h-321v-69h270l-249 -290l57 -44zM669 -45q0 32 -12 61.5t-34 51.5h107v69v628h-75v-200h-210v-69h210v-359h-129v82h-76v-82h-204v-69h107q-21 -22 -33.5 -51.5t-12.5 -61.5q0 -36 15 -67t39.5 -54t57.5 -36t69 -13t69 13.5t58 36.5t39.5 54t14.5 66z
M594 -45q0 -23 -8.5 -41.5t-22.5 -32.5t-33.5 -21.5t-41.5 -7.5q-21 0 -40.5 7.5t-34 21.5t-23 32.5t-8.5 41.5q0 22 8.5 41t23 33t34 21.5t40.5 7.5q22 0 41.5 -7.5t33.5 -21.5t22.5 -33t8.5 -41z" />
    <glyph glyph-name="uniAC8C" unicode="&#xac8c;" 
d="M760 35v730h-75v-730h75zM593 35v730h-73v-222h-159v-70h159v-438h73zM418 705l-63 39h-235v-70h199l-199 -343l63 -34z" />
    <glyph glyph-name="uniAC90" unicode="&#xac90;" 
d="M760 145v620h-76v-620h76zM593 145v620h-73v-200h-159v-69h159v-351h73zM429 707l-53 37h-256v-68h203l-196 -297l62 -37zM770 -195v69h-344v242h-75v-243q0 -28 20.5 -48t48.5 -20h350z" />
    <glyph glyph-name="uniAC94" unicode="&#xac94;" 
d="M593 269v496h-73v-200h-159v-69h159v-227h73zM429 707l-53 37h-256v-68h203l-196 -297l62 -37zM770 -215v64h-344v98h334v221v597h-76v-597h-333v-64h333v-97h-333v-154q0 -28 20.5 -48t48.5 -20h350z" />
    <glyph glyph-name="uniAC9C" unicode="&#xac9c;" 
d="M593 269v496h-73v-200h-159v-69h159v-227h73zM429 707l-53 37h-256v-68h203l-196 -297l62 -37zM760 -127v284v608h-75v-608h-334v-284q0 -28 20.5 -48t48.5 -20h271q29 0 49 20t20 48zM685 -126h-259v214h259v-214z" />
    <glyph glyph-name="uniAC9D" unicode="&#xac9d;" 
d="M593 269v496h-73v-200h-159v-69h159v-227h73zM429 707l-53 37h-256v-68h203l-196 -297l62 -37zM760 -132v289v608h-75v-620v-80h-259v92h-75v-289q0 -28 20.5 -48t48.5 -20h271q29 0 49 20t20 48zM685 -131h-259v127h259v-127z" />
    <glyph glyph-name="uniAC9F" unicode="&#xac9f;" 
d="M759 145v620h-75v-620h75zM592 269v496h-73v-200h-158v-69h158v-227h73zM429 707l-53 37h-256v-68h203l-196 -297l62 -37zM785 -154l-251 293l-251 -293l58 -45l193 228l192 -228z" />
    <glyph glyph-name="uniACA0" unicode="&#xaca0;" 
d="M759 145v620h-75v-620h75zM592 269v496h-73v-200h-158v-69h158v-227h73zM429 707l-53 37h-256v-68h203l-196 -297l62 -37zM786 -173l-157 315l-127 -207l-125 207l-157 -315l65 -28l98 198l120 -180l120 180l98 -198z" />
    <glyph glyph-name="uniACA1" unicode="&#xaca1;" 
d="M593 269v496h-73v-200h-159v-69h159v-227h73zM760 -33v798h-75v-652q-37 20 -64.5 28t-53.5 8q-39 0 -74 -14.5t-61.5 -39t-42 -58t-15.5 -70.5t15.5 -70t41.5 -58t61.5 -39.5t74.5 -14.5q40 0 75 15t61 40t41.5 58t15.5 69zM685 -33q0 -26 -9.5 -47t-25.5 -36
t-37.5 -23.5t-45.5 -8.5t-45.5 8.5t-37.5 23.5t-25.5 36t-9.5 47q0 25 9.5 46.5t25.5 37t37.5 24t45.5 8.5t45.5 -8.5t37.5 -24t25.5 -37t9.5 -46.5zM429 707l-53 37h-256v-68h203l-196 -297l62 -37z" />
    <glyph glyph-name="uniACA8" unicode="&#xaca8;" 
d="M730 35v730h-75v-134h-170v-70h170v-107h-170v-69h170v-350h75zM508 700l-61 44h-317v-70h272l-254 -360l60 -40z" />
    <glyph glyph-name="uniACA9" unicode="&#xaca9;" 
d="M507 691l-56 53h-321v-69h270l-249 -290l57 -44zM730 -195v352v608h-75v-132h-180v-69h180v-107h-180v-69h180v-231h-346v-69h346v-283h75z" />
    <glyph glyph-name="uniACAA" unicode="&#xacaa;" 
d="M507 691l-56 53h-321v-69h270l-249 -290l57 -44zM730 -195v352v608h-75v-132h-180v-69h180v-107h-180v-69h180v-231h-409v-69h157v-283h76v283h176v-283h75z" />
    <glyph glyph-name="uniACAC" unicode="&#xacac;" 
d="M730 145v620h-75v-132h-180v-69h180v-107h-180v-69h180v-243h75zM507 691l-56 53h-321v-69h270l-249 -290l57 -44zM740 -195v69h-345v242h-76v-243q0 -28 20.5 -48t48.5 -20h352z" />
    <glyph glyph-name="uniACAF" unicode="&#xacaf;" 
d="M507 691l-56 53h-321v-69h270l-249 -290l57 -44zM740 -195v69h-345v214h335v677h-75v-132h-180v-69h180v-107h-180v-69h180v-231h-336v-284q0 -28 20.5 -48t48.5 -20h352z" />
    <glyph glyph-name="uniACB0" unicode="&#xacb0;" 
d="M507 691l-56 53h-321v-69h270l-249 -290l57 -44zM740 -215v64h-345v98h335v818h-75v-132h-180v-69h180v-107h-180v-69h180v-220h-336v-64h335v-97h-335v-154q0 -28 20.5 -48t48.5 -20h352z" />
    <glyph glyph-name="uniACB8" unicode="&#xacb8;" 
d="M507 691l-56 53h-321v-69h270l-249 -290l57 -44zM730 -127v284v608h-75v-132h-180v-69h180v-107h-180v-69h180v-231h-336v-284q0 -28 21 -48t49 -20h272q29 0 49 20t20 48zM655 -126h-260v214h260v-214z" />
    <glyph glyph-name="uniACB9" unicode="&#xacb9;" 
d="M507 691l-56 53h-321v-69h270l-249 -290l57 -44zM730 -132v289v608h-75v-132h-180v-69h180v-107h-180v-69h180v-243v-80h-260v92h-76v-289q0 -28 21 -48t49 -20h272q29 0 49 20t20 48zM655 -131h-260v127h260v-127z" />
    <glyph glyph-name="uniACBB" unicode="&#xacbb;" 
d="M730 145v620h-75v-132h-180v-69h180v-107h-180v-69h180v-243h75zM507 691l-56 53h-321v-69h270l-249 -290l57 -44zM755 -154l-252 293l-252 -293l59 -45l193 228l193 -228z" />
    <glyph glyph-name="uniACBC" unicode="&#xacbc;" 
d="M730 145v620h-75v-132h-180v-69h180v-107h-180v-69h180v-243h75zM507 691l-56 53h-321v-69h270l-249 -290l57 -44zM756 -173l-157 315l-128 -207l-126 207l-157 -315l65 -28l99 198l120 -180l121 180l98 -198z" />
    <glyph glyph-name="uniACBD" unicode="&#xacbd;" 
d="M507 691l-56 53h-321v-69h270l-249 -290l57 -44zM730 -33q0 10 -1 15l1 783h-75v-132h-180v-69h180v-106h-180v-69h180v-278q-25 18 -55 28t-64 10q-39 0 -74 -14.5t-61.5 -39t-42 -58t-15.5 -70.5t15.5 -70t41.5 -58t61.5 -39.5t74.5 -14.5t74.5 14.5t62 39.5t42 58
t15.5 70zM655 -33q0 -26 -9.5 -47t-26 -36t-38 -23.5t-45.5 -8.5t-45.5 8.5t-37.5 23.5t-25.5 36t-9.5 47q0 25 9.5 46.5t25.5 37t37.5 24t45.5 8.5t45.5 -8.5t38 -24t26 -37t9.5 -46.5z" />
    <glyph glyph-name="uniACC1" unicode="&#xacc1;" 
d="M507 691l-56 53h-321v-69h270l-249 -290l57 -44zM730 -205v64h-335v87h325v61h-325v87h335v63v608h-75v-132h-180v-69h180v-107h-180v-69h180v-231h-336v-294q0 -28 21 -48t49 -20h341z" />
    <glyph glyph-name="uniACC4" unicode="&#xacc4;" 
d="M760 35v730h-75v-730h75zM593 35v730h-73v-134h-139v-70h139v-107h-139v-69h139v-350h73zM418 705l-63 39h-235v-70h199l-199 -343l63 -34z" />
    <glyph glyph-name="uniACC8" unicode="&#xacc8;" 
d="M760 145v620h-76v-620h76zM593 145v620h-73v-122h-129v-69h129v-107h-129v-69h129v-253h73zM429 707l-53 37h-256v-68h203l-196 -297l62 -37zM770 -195v69h-344v242h-75v-243q0 -28 20.5 -48t48.5 -20h350z" />
    <glyph glyph-name="uniACCC" unicode="&#xaccc;" 
d="M593 269v496h-73v-122h-129v-69h129v-106h-129v-69h129v-130h73zM429 707l-53 37h-256v-68h203l-196 -297l62 -37zM770 -215v64h-344v98h334v221v597h-76v-597h-333v-64h333v-97h-333v-154q0 -28 20.5 -48t48.5 -20h350z" />
    <glyph glyph-name="uniACD5" unicode="&#xacd5;" 
d="M593 269v496h-73v-122h-129v-69h129v-106h-129v-69h129v-130h73zM429 707l-53 37h-256v-68h203l-196 -297l62 -37zM760 -132v289v608h-75v-620v-80h-259v92h-75v-289q0 -28 20.5 -48t48.5 -20h271q29 0 49 20t20 48zM685 -131h-259v127h259v-127z" />
    <glyph glyph-name="uniACD7" unicode="&#xacd7;" 
d="M759 145v620h-75v-620h75zM593 269v496h-73v-122h-129v-69h129v-106h-129v-69h129v-130h73zM429 707l-53 37h-256v-68h203l-196 -297l62 -37zM785 -154l-251 293l-251 -293l58 -45l193 228l192 -228z" />
    <glyph glyph-name="uniACE0" unicode="&#xace0;" 
d="M653 407v338h-416v-70h341v-268h75zM860 140v70h-414v241h-75v-241h-331v-70h820z" />
    <glyph glyph-name="uniACE1" unicode="&#xace1;" 
d="M653 444v301h-416v-69h341v-232h75zM860 264v69h-414v175h-75v-175h-331v-69h820zM653 -195v301h-416v-69h341v-232h75z" />
    <glyph glyph-name="uniACE4" unicode="&#xace4;" 
d="M653 444v301h-416v-69h341v-232h75zM860 243v69h-414v196h-75v-196h-331v-69h820zM663 -195v69h-341v201h-75v-202q0 -28 20 -48t48 -20h348z" />
    <glyph glyph-name="uniACE7" unicode="&#xace7;" 
d="M653 444v301h-416v-69h341v-232h75zM860 264v69h-414v175h-75v-175h-331v-69h820zM663 -195v69h-341v184h331v69h-406v-254q0 -28 20 -48t48 -20h348z" />
    <glyph glyph-name="uniACE8" unicode="&#xace8;" 
d="M653 475v270h-416v-69h341v-201h75zM860 295v69h-414v154h-75v-154h-331v-69h820zM663 -215v64h-341v103h331v226h-406v-63h331v-102h-331v-160q0 -28 20 -48t48 -20h348z" />
    <glyph glyph-name="uniACEA" unicode="&#xacea;" 
d="M653 475v270h-416v-69h341v-201h75zM860 295v69h-414v154h-75v-154h-331v-69h820zM725 -147v325h-250v-325q0 -28 20 -48t48 -20h114q29 0 48.5 20t19.5 48zM651 -146h-102v255h102v-255zM415 -215v64h-166v103h155v226h-229v-63h155v-102h-155v-160q0 -28 20 -48t48 -20
h172z" />
    <glyph glyph-name="uniACEC" unicode="&#xacec;" 
d="M653 475v270h-416v-69h341v-201h75zM860 295v69h-414v154h-75v-154h-331v-69h820zM761 -171l-151 272l-150 -272l60 -38l90 164l91 -164zM436 -205v64h-166v98h155v221h-230v-63h156v-97h-156v-155q0 -28 20.5 -48t48.5 -20h172z" />
    <glyph glyph-name="uniACEF" unicode="&#xacef;" 
d="M653 475v270h-416v-69h341v-201h75zM860 295v69h-414v154h-75v-154h-331v-69h820zM744 -43q0 34 -10.5 64t-27.5 52h71v69h-140v67h-74v-67h-140v-69h72q-18 -22 -28.5 -52t-10.5 -64q0 -36 12 -67.5t31.5 -55t45.5 -36.5t55 -13q28 0 54 13.5t46 36.5t32 54.5t12 67.5z
M669 -43q0 -18 -5 -36.5t-14 -34t-21.5 -25t-28.5 -9.5t-28.5 9.5t-21.5 24.5t-14 34t-5 37t5 37t14 34t21.5 24.5t28.5 9.5t28.5 -9.5t21.5 -25t14 -34t5 -36.5zM415 -205v64h-166v103h155v227h-229v-64h155v-102h-155v-160q0 -28 20 -48t48 -20h172z" />
    <glyph glyph-name="uniACF0" unicode="&#xacf0;" 
d="M653 444v301h-416v-69h341v-232h75zM860 264v69h-414v175h-75v-175h-331v-69h820zM653 -127v254h-406v-254q0 -28 20 -48t48 -20h270q28 0 48 20t20 48zM578 -126h-256v184h256v-184z" />
    <glyph glyph-name="uniACF1" unicode="&#xacf1;" 
d="M653 444v301h-416v-69h341v-232h75zM860 264v69h-414v175h-75v-175h-331v-69h820zM653 -137v290h-75v-93h-256v93h-75v-290q0 -28 20 -48t48 -20h270q28 0 48 20t20 48zM578 -136h-256v127h256v-127z" />
    <glyph glyph-name="uniACF3" unicode="&#xacf3;" 
d="M653 444v301h-416v-69h341v-232h75zM860 264v69h-414v175h-75v-175h-331v-69h820zM699 -154l-249 293l-249 -293l57 -45l192 228l192 -228z" />
    <glyph glyph-name="uniACF5" unicode="&#xacf5;" 
d="M653 444v301h-416v-69h341v-232h75zM860 264v69h-414v175h-75v-175h-331v-69h820zM642 -42q0 35 -15 66.5t-41.5 55t-61.5 37.5t-74 14t-74 -13.5t-61 -37t-41.5 -55t-15.5 -67.5t15.5 -67.5t42 -55t61.5 -37t73 -13.5q39 0 74 14t61 37.5t41.5 55t15.5 66.5zM567 -42
q0 -24 -9.5 -43.5t-25.5 -33.5t-37 -21.5t-45 -7.5q-22 0 -43 7.5t-37.5 21.5t-26.5 33.5t-10 43.5t10 43.5t26.5 33.5t37.5 21.5t43 7.5q24 0 45 -7.5t37 -21.5t25.5 -33.5t9.5 -43.5z" />
    <glyph glyph-name="uniACF6" unicode="&#xacf6;" 
d="M653 444v301h-416v-69h341v-232h75zM860 264v69h-414v175h-75v-175h-331v-69h820zM693 -149l-205 207h165v69h-406v-69h165l-205 -207l53 -50l190 194l190 -194z" />
    <glyph glyph-name="uniACFC" unicode="&#xacfc;" 
d="M498 420v324h-354v-69h279v-255h75zM661 186v-151h75v458h134v69h-134v203h-75v-510h-344v229h-74v-229h-233v-69h651z" />
    <glyph glyph-name="uniACFD" unicode="&#xacfd;" 
d="M498 444v300h-354v-69h279v-231h75zM736 -195v301v420h134v69h-134v170h-75v-433h-344v175h-74v-175h-233v-69h651v-157h-341v-69h341v-232h75z" />
    <glyph glyph-name="uniAD00" unicode="&#xad00;" 
d="M498 444v300h-354v-69h279v-231h75zM661 243v-129h75v412h134v69h-134v170h-75v-453h-344v195h-74v-195h-233v-69h651zM746 -195v69h-341v201h-75v-202q0 -28 20.5 -48t48.5 -20h347z" />
    <glyph glyph-name="uniAD04" unicode="&#xad04;" 
d="M498 444v300h-354v-69h279v-231h75zM746 -215v64h-341v87h331v211v379h134v69h-134v170h-75v-432h-344v175h-74v-175h-233v-69h651v-117h-331v-63h331v-87h-331v-144q0 -28 20.5 -48t48.5 -20h347z" />
    <glyph glyph-name="uniAD06" unicode="&#xad06;" 
d="M498 444v300h-354v-69h279v-231h75zM736 -147v294v379h134v69h-134v170h-75v-432h-344v175h-74v-175h-233v-69h651v-117h-176v-294q0 -28 20.5 -48t48.5 -20h113q29 0 49 20t20 48zM661 -146h-101v224h101v-224zM426 -215v64h-166v87h155v211h-229v-63h155v-87h-155v-144
q0 -28 20 -48t48 -20h172z" />
    <glyph glyph-name="uniAD0C" unicode="&#xad0c;" 
d="M498 444v300h-354v-69h279v-231h75zM736 -127v253v400h134v69h-134v170h-75v-433h-344v175h-74v-175h-233v-69h651v-137h-331v-253q0 -28 20.5 -48t48.5 -20h268q29 0 49 20t20 48zM661 -126h-256v183h256v-183z" />
    <glyph glyph-name="uniAD0D" unicode="&#xad0d;" 
d="M498 444v300h-354v-69h279v-231h75zM405 -20h256v-116h-256v116zM736 -137v269v394h134v69h-134v170h-75v-432h-344v175h-74v-175h-233v-69h651v-150v-65h-256v83h-75v-269q0 -28 20.5 -48t48.5 -20h268q29 0 49 20t20 48z" />
    <glyph glyph-name="uniAD0F" unicode="&#xad0f;" 
d="M498 444v300h-354v-69h279v-231h75zM661 264v-150h75v412h134v69h-134v170h-75v-432h-344v175h-74v-175h-233v-69h651zM761 -154l-249 293l-249 -293l58 -45l191 228l192 -228z" />
    <glyph glyph-name="uniAD11" unicode="&#xad11;" 
d="M498 444v300h-354v-69h279v-231h75zM661 264v-168q-37 20 -64 27.5t-53 7.5q-39 0 -74 -14t-61 -37.5t-41 -55t-15 -66.5t15 -66.5t41.5 -55t61 -37.5t73.5 -14t74 14t61.5 38t41.5 55.5t15 66.5v567h134v69h-134v170h-75v-432h-344v175h-74v-175h-233v-69h651zM661 -42
q0 -24 -9.5 -43.5t-25.5 -33.5t-37 -21.5t-45 -7.5q-23 0 -43.5 7.5t-37 21.5t-26 33.5t-9.5 43.5t9.5 43.5t26 33.5t37 21.5t43.5 7.5q24 0 45 -7.5t37 -21.5t25.5 -33.5t9.5 -43.5z" />
    <glyph glyph-name="uniAD18" unicode="&#xad18;" 
d="M417 420v324h-303v-69h228v-255h75zM536 186h60v307h109v-458h75v730h-75v-203h-109v203h-72v-510h-258v229h-74v-229h-182v-69h514h12z" />
    <glyph glyph-name="uniAD1C" unicode="&#xad1c;" 
d="M417 444v300h-303v-69h228v-231h75zM536 243h60v283h109v-412h75v651h-75v-170h-109v170h-73v-453h-257v195h-74v-195h-182v-69h513h13zM790 -195v69h-342v201h-75v-202q0 -28 20 -48t48 -20h349z" />
    <glyph glyph-name="uniAD20" unicode="&#xad20;" 
d="M417 444v300h-303v-69h228v-231h75zM790 -215v64h-342v87h332v211v618h-75v-170h-109v170h-73v-432h-257v175h-74v-175h-182v-69h526h60v262h109v-379h-332v-63h332v-87h-332v-144q0 -28 20 -48t48 -20h349z" />
    <glyph glyph-name="uniAD29" unicode="&#xad29;" 
d="M417 444v300h-303v-69h228v-231h75zM780 -137v269v633h-75v-170h-109v170h-72v-432h-258v175h-74v-175h-182v-69h526h60v262h109v-412v-65h-257v83h-75v-269q0 -28 20.5 -48t48.5 -20h270q28 0 48 20t20 48zM705 -136h-257v116h257v-116z" />
    <glyph glyph-name="uniAD2C" unicode="&#xad2c;" 
d="M416 444v300h-302v-69h228v-231h74zM535 264h60v262h109v-412h75v651h-75v-170h-109v170h-72v-432h-257v175h-75v-175h-181v-69h513h12zM806 -183l-156 305l-126 -196l-125 196l-156 -305l65 -28l98 192l118 -174l119 174l98 -192z" />
    <glyph glyph-name="uniAD2D" unicode="&#xad2d;" 
d="M417 444v300h-303v-69h228v-231h75zM536 264h60v262h109v-430q-37 20 -64 27.5t-53 7.5q-39 0 -74 -13.5t-61 -37t-41.5 -55t-15.5 -67.5t15.5 -67.5t42 -55t61.5 -37t73 -13.5q39 0 74 14t61 37.5t41.5 55t15.5 66.5v807h-75v-170h-109v170h-72v-432h-258v175h-74v-175
h-182v-69h514h12zM705 -42q0 -24 -9.5 -43.5t-25.5 -33.5t-37 -21.5t-45 -7.5q-22 0 -43 7.5t-37.5 21.5t-26.5 33.5t-10 43.5t10 43.5t26.5 33.5t37.5 21.5t43 7.5q24 0 45 -7.5t37 -21.5t25.5 -33.5t9.5 -43.5z" />
    <glyph glyph-name="uniAD34" unicode="&#xad34;" 
d="M521 420v324h-356v-69h281v-255h75zM685 186v-151h75v730h-75v-510h-346v229h-75v-229h-234v-69h655z" />
    <glyph glyph-name="uniAD35" unicode="&#xad35;" 
d="M521 444v300h-356v-69h281v-231h75zM760 -195v301v659h-75v-433h-346v175h-75v-175h-234v-69h655v-157h-343v-69h343v-232h75z" />
    <glyph glyph-name="uniAD38" unicode="&#xad38;" 
d="M521 444v300h-356v-69h281v-231h75zM685 243v-129h75v651h-75v-453h-346v195h-75v-195h-234v-69h655zM770 -195v69h-343v201h-75v-202q0 -28 20.5 -48t48.5 -20h349z" />
    <glyph glyph-name="uniAD3C" unicode="&#xad3c;" 
d="M521 444v300h-356v-69h281v-231h75zM770 -215v64h-343v87h333v211v618h-75v-432h-346v175h-75v-175h-234v-69h655v-117h-333v-63h333v-87h-333v-144q0 -28 20.5 -48t48.5 -20h349z" />
    <glyph glyph-name="uniAD44" unicode="&#xad44;" 
d="M521 444v300h-356v-69h281v-231h75zM760 -127v253v639h-75v-433h-346v175h-75v-175h-234v-69h655v-137h-333v-253q0 -28 20.5 -48t48.5 -20h270q29 0 49 20t20 48zM685 -126h-258v183h258v-183z" />
    <glyph glyph-name="uniAD45" unicode="&#xad45;" 
d="M521 444v300h-356v-69h281v-231h75zM760 -137v269v633h-75v-432h-346v175h-75v-175h-234v-69h655v-150v-65h-258v83h-75v-269q0 -28 20.5 -48t48.5 -20h270q29 0 49 20t20 48zM685 -136h-258v116h258v-116z" />
    <glyph glyph-name="uniAD47" unicode="&#xad47;" 
d="M520 444v300h-355v-69h280v-231h75zM684 264v-150h75v651h-75v-432h-346v175h-74v-175h-234v-69h654zM785 -154l-250 293l-251 -293l58 -45l193 228l192 -228z" />
    <glyph glyph-name="uniAD49" unicode="&#xad49;" 
d="M521 444v300h-356v-69h281v-231h75zM685 264v-168q-37 20 -64 27.5t-53 7.5q-39 0 -74.5 -13.5t-61.5 -37t-41.5 -55t-15.5 -67.5t15.5 -67.5t42 -55t61.5 -37t74 -13.5t74 14t61 37.5t41.5 55t15.5 66.5v807h-75v-432h-346v175h-75v-175h-234v-69h655zM685 -42
q0 -24 -9.5 -43.5t-25.5 -33.5t-37 -21.5t-45 -7.5q-23 0 -44 7.5t-37.5 21t-26.5 33.5t-10 44t10 43.5t26.5 33.5t37.5 21.5t44 7.5q24 0 45 -7.5t37 -21.5t25.5 -33.5t9.5 -43.5z" />
    <glyph glyph-name="uniAD50" unicode="&#xad50;" 
d="M653 407v338h-416v-70h341v-268h75zM860 140v70h-300v241h-75v-241h-122v241h-75v-241h-248v-70h820z" />
    <glyph glyph-name="uniAD54" unicode="&#xad54;" 
d="M653 444v301h-416v-69h341v-232h75zM288 312h-248v-69h820v69h-300v186h-75v-186h-122v186h-75v-186zM663 -195v69h-341v201h-75v-202q0 -28 20 -48t48 -20h348z" />
    <glyph glyph-name="uniAD58" unicode="&#xad58;" 
d="M653 475v270h-416v-69h341v-201h75zM288 364h-248v-69h820v69h-300v154h-75v-154h-122v154h-75v-154zM663 -215v64h-341v103h331v226h-406v-63h331v-102h-331v-160q0 -28 20 -48t48 -20h348z" />
    <glyph glyph-name="uniAD61" unicode="&#xad61;" 
d="M653 444v301h-416v-69h341v-232h75zM288 333h-248v-69h820v69h-300v165h-75v-165h-122v165h-75v-165zM653 -137v290h-75v-93h-256v93h-75v-290q0 -28 20 -48t48 -20h270q28 0 48 20t20 48zM578 -136h-256v127h256v-127z" />
    <glyph glyph-name="uniAD63" unicode="&#xad63;" 
d="M653 444v301h-416v-69h341v-232h75zM288 333h-248v-69h820v69h-300v165h-75v-165h-122v165h-75v-165zM699 -154l-249 293l-249 -293l57 -45l192 228l192 -228z" />
    <glyph glyph-name="uniAD6C" unicode="&#xad6c;" 
d="M487 -15v296h373v69h-207v395h-416v-70h341v-325h-538v-69h373v-296h74z" />
    <glyph glyph-name="uniAD6D" unicode="&#xad6d;" 
d="M653 -195v301h-166v230h373v69h-207v340h-416v-69h341v-271h-538v-69h373v-230h-176v-69h341v-232h75z" />
    <glyph glyph-name="uniAD70" unicode="&#xad70;" 
d="M518 73v232h342v69h-207v371h-416v-69h341v-302h-538v-69h404v-232h74zM663 -195v69h-341v201h-75v-202q0 -28 20 -48t48 -20h348z" />
    <glyph glyph-name="uniAD73" unicode="&#xad73;" 
d="M663 -195v69h-341v184h331v69h-166v209h373v69h-207v340h-416v-69h341v-271h-538v-69h373v-209h-166v-254q0 -28 20 -48t48 -20h348z" />
    <glyph glyph-name="uniAD74" unicode="&#xad74;" 
d="M663 -215v64h-341v103h331v226h-166v168h373v69h-207v330h-416v-69h341v-261h-538v-69h373v-168h-166v-63h331v-102h-331v-160q0 -28 20 -48t48 -20h348z" />
    <glyph glyph-name="uniAD75" unicode="&#xad75;" 
d="M461 -215v64h-186v103h176v157h174v-324h75v393h-213v168h373v69h-207v330h-416v-69h341v-261h-538v-69h373v-168h-213v-63h176v-102h-176v-160q0 -28 20.5 -48t48.5 -20h192z" />
    <glyph glyph-name="uniAD76" unicode="&#xad76;" 
d="M725 -147v325h-238v168h373v69h-207v330h-416v-69h341v-261h-538v-69h373v-200h62v-293q0 -28 20 -48t48 -20h114q29 0 48.5 20t19.5 48zM651 -146h-102v255h102v-255zM415 -215v64h-166v103h155v226h-229v-63h155v-102h-155v-160q0 -28 20 -48t48 -20h172z" />
    <glyph glyph-name="uniAD7B" unicode="&#xad7b;" 
d="M487 146v200h373v69h-207v330h-416v-69h341v-261h-538v-69h373v-200h74zM744 -43q0 34 -10.5 64t-27.5 52h71v69h-140v67h-74v-67h-140v-69h72q-18 -22 -28.5 -52t-10.5 -64q0 -36 12 -67.5t31.5 -55t45.5 -36.5t55 -13q28 0 54 13.5t46 36.5t32 54.5t12 67.5zM669 -43
q0 -18 -5 -36.5t-14 -34t-21.5 -25t-28.5 -9.5t-28.5 9.5t-21.5 24.5t-14 34t-5 37t5 37t14 34t21.5 24.5t28.5 9.5t28.5 -9.5t21.5 -25t14 -34t5 -36.5zM415 -205v64h-166v103h155v227h-229v-64h155v-102h-155v-160q0 -28 20 -48t48 -20h172z" />
    <glyph glyph-name="uniAD7C" unicode="&#xad7c;" 
d="M653 -127v254h-166v209h373v69h-207v340h-416v-69h341v-271h-538v-69h373v-209h-166v-254q0 -28 20 -48t48 -20h270q28 0 48 20t20 48zM578 -126h-256v184h256v-184z" />
    <glyph glyph-name="uniAD7D" unicode="&#xad7d;" 
d="M487 156v180h373v69h-207v340h-416v-69h341v-271h-538v-69h373v-180h74zM653 -137v293h-75v-96h-256v93h-75v-290q0 -28 20 -48t48 -20h270q28 0 48 20t20 48zM578 -136h-256v127h256v-127z" />
    <glyph glyph-name="uniAD7F" unicode="&#xad7f;" 
d="M699 -154l-212 250v240h373v69h-207v340h-416v-69h341v-271h-538v-69h373v-240l-212 -250l57 -45l192 228l192 -228z" />
    <glyph glyph-name="uniAD81" unicode="&#xad81;" 
d="M642 -42q0 30 -12 58.5t-32.5 51t-49 38.5t-61.5 22v208h373v69h-207v340h-416v-69h341v-271h-538v-69h373v-208q-32 -6 -60.5 -21.5t-49.5 -38t-33 -51t-12 -59.5q0 -36 15.5 -67.5t42 -55t61.5 -37t73 -13.5q39 0 74 14t61 37.5t41.5 55t15.5 66.5zM567 -42
q0 -24 -9.5 -43.5t-25.5 -33.5t-37 -21.5t-45 -7.5q-22 0 -43 7.5t-37.5 21.5t-26.5 33.5t-10 43.5t10 43.5t26.5 33.5t37.5 21.5t43 7.5q24 0 45 -7.5t37 -21.5t25.5 -33.5t9.5 -43.5z" />
    <glyph glyph-name="uniAD82" unicode="&#xad82;" 
d="M487 154v182h373v69h-207v340h-416v-69h341v-271h-538v-69h373v-182h74zM693 -149l-205 207h165v69h-406v-69h165l-205 -207l53 -50l190 194l190 -194z" />
    <glyph glyph-name="uniAD88" unicode="&#xad88;" 
d="M760 35v730h-75v-527h-187v-68h187v-135h75zM354 56v286h219v69h-52v333h-356v-69h281v-264h-416v-69h250v-286h74z" />
    <glyph glyph-name="uniAD89" unicode="&#xad89;" 
d="M354 176v190h219v69h-52v309h-356v-69h281v-240h-416v-69h250v-190h74zM760 -195v290v670h-75v-491h-187v-67h187v-112h-343v-69h343v-221h75z" />
    <glyph glyph-name="uniAD8C" unicode="&#xad8c;" 
d="M760 83v682h-75v-512h-187v-67h187v-103h75zM354 155v191h219v69h-52v329h-356v-69h281v-260h-416v-69h249v-191h75zM770 -195v69h-343v201h-75v-202q0 -28 20.5 -48t48.5 -20h349z" />
    <glyph glyph-name="uniAD90" unicode="&#xad90;" 
d="M354 197v180h219v69h-52v298h-356v-69h281v-229h-416v-69h249v-180h75zM770 -215v64h-343v87h333v211v618h-75v-470h-187v-67h187v-81h-333v-63h333v-87h-333v-144q0 -28 20.5 -48t48.5 -20h349z" />
    <glyph glyph-name="uniAD9C" unicode="&#xad9c;" 
d="M759 84v681h-75v-491h-187v-67h187v-123h75zM354 176v191h218v69h-52v308h-355v-69h280v-239h-415v-69h249v-191h75zM785 -183l-154 283l-128 -182l-126 182l-154 -283l64 -28l97 182l119 -165l121 165l97 -182z" />
    <glyph glyph-name="uniAD9D" unicode="&#xad9d;" 
d="M760 -47v812h-75v-481h-187v-67h187v-128q-36 18 -61 25t-50 7q-39 0 -72.5 -13.5t-59 -36.5t-40 -53.5t-14.5 -64.5t14.5 -64.5t40 -53.5t59 -36.5t72.5 -13.5q38 0 72 13.5t59.5 37t40 54t14.5 63.5zM685 -47q0 -21 -9.5 -39.5t-25 -32t-35.5 -21.5t-41 -8t-41 7.5
t-35.5 21t-25 32t-9.5 40.5t9.5 40.5t25 32t35.5 21t41 7.5t41 -8t35.5 -21.5t25 -32t9.5 -39.5zM354 176v191h219v69h-52v308h-356v-69h281v-239h-416v-69h250v-191h74z" />
    <glyph glyph-name="uniADA4" unicode="&#xada4;" 
d="M780 35v730h-75v-730h75zM614 160v605h-73v-538h-168v-67h241zM282 56v286h166v69h-42v333h-292v-69h218v-264h-322v-69h197v-286h75z" />
    <glyph glyph-name="uniADB7" unicode="&#xadb7;" 
d="M779 83v682h-75v-682h75zM613 186v579h-72v-512h-168v-67h240zM281 176v190h166v69h-41v309h-292v-69h217v-240h-321v-69h197v-190h74zM804 -155l-249 265l-249 -265l58 -45l191 208l191 -208z" />
    <glyph glyph-name="uniADC0" unicode="&#xadc0;" 
d="M354 56v265h331v-286h75v730h-75v-374h-164v353h-356v-69h281v-284h-416v-70h250v-265h74z" />
    <glyph glyph-name="uniADC1" unicode="&#xadc1;" 
d="M760 -195v290v670h-75v-361h-164v340h-356v-69h281v-271h-416v-69h250v-159h74v159h331v-240h-343v-69h343v-221h75z" />
    <glyph glyph-name="uniADC4" unicode="&#xadc4;" 
d="M354 155v160h331v-232h75v682h-75v-381h-164v360h-356v-69h281v-291h-416v-69h249v-160h75zM770 -195v69h-343v201h-75v-202q0 -28 20.5 -48t48.5 -20h349z" />
    <glyph glyph-name="uniADC8" unicode="&#xadc8;" 
d="M770 -215v64h-343v87h333v211v618h-75v-340h-164v319h-356v-69h281v-250h-416v-69h249v-159h75v159h331v-209h-333v-63h333v-87h-333v-144q0 -28 20.5 -48t48.5 -20h349z" />
    <glyph glyph-name="uniADD0" unicode="&#xadd0;" 
d="M760 -127v243v649h-75v-350h-164v329h-356v-69h281v-260h-416v-69h250v-160h74v160h331v-230h-333v-243q0 -28 20.5 -48t48.5 -20h270q29 0 49 20t20 48zM685 -126h-258v173h258v-173z" />
    <glyph glyph-name="uniADD1" unicode="&#xadd1;" 
d="M760 -137v269v633h-75v-340h-164v319h-356v-69h281v-250h-416v-69h250v-159h74v159h331v-273v-34h-258v83h-75v-269q0 -28 20.5 -48t48.5 -20h270q29 0 49 20t20 48zM685 -136h-258v116h258v-116z" />
    <glyph glyph-name="uniADD3" unicode="&#xadd3;" 
d="M354 125v211h330v-253h75v682h-75v-360h-164v339h-355v-69h280v-270h-415v-69h249v-211h75zM784 -155l-249 280l-250 -280l58 -45l192 208l191 -208z" />
    <glyph glyph-name="uniADDC" unicode="&#xaddc;" 
d="M373 -15v296h154v-296h74v296h259v69h-207v395h-416v-70h341v-325h-538v-69h259v-296h74z" />
    <glyph glyph-name="uniADE0" unicode="&#xade0;" 
d="M415 73v232h132v-232h75v232h238v69h-207v371h-416v-69h341v-302h-538v-69h300v-232h75zM663 -195v69h-341v201h-75v-202q0 -28 20 -48t48 -20h348z" />
    <glyph glyph-name="uniADE4" unicode="&#xade4;" 
d="M384 178v168h132v-168h-132zM663 -215v64h-341v103h331v226h-62v168h269v69h-207v330h-416v-69h341v-261h-538v-69h269v-168h-62v-63h331v-102h-331v-160q0 -28 20 -48t48 -20h348z" />
    <glyph glyph-name="uniADF8" unicode="&#xadf8;" 
d="M860 140v70h-207v535h-416v-70h341v-465h-538v-70h820z" />
    <glyph glyph-name="uniADF9" unicode="&#xadf9;" 
d="M860 305v69h-207v371h-416v-69h341v-302h-538v-69h820zM653 -195v311h-416v-69h341v-242h75z" />
    <glyph glyph-name="uniADFC" unicode="&#xadfc;" 
d="M860 274v69h-207v402h-416v-69h341v-333h-538v-69h820zM663 -195v69h-341v211h-75v-212q0 -28 20 -48t48 -20h348z" />
    <glyph glyph-name="uniADFF" unicode="&#xadff;" 
d="M860 305v69h-207v371h-416v-69h341v-302h-538v-69h820zM663 -195v69h-341v194h331v69h-406v-264q0 -28 20 -48t48 -20h348z" />
    <glyph glyph-name="uniAE00" unicode="&#xae00;" 
d="M860 326v69h-207v350h-416v-69h341v-281h-538v-69h820zM663 -215v64h-341v108h331v232h-406v-64h331v-107h-331v-165q0 -28 20 -48t48 -20h348z" />
    <glyph glyph-name="uniAE01" unicode="&#xae01;" 
d="M860 326v69h-207v350h-416v-69h341v-281h-538v-69h820zM461 -215v64h-186v108h176v163h174v-335h75v404h-261h-239v-64h176v-107h-176v-165q0 -28 20.5 -48t48.5 -20h192z" />
    <glyph glyph-name="uniAE08" unicode="&#xae08;" 
d="M860 315v69h-207v361h-416v-69h341v-292h-538v-69h820zM653 -127v264h-406v-264q0 -28 20 -48t48 -20h270q28 0 48 20t20 48zM578 -126h-256v194h256v-194z" />
    <glyph glyph-name="uniAE09" unicode="&#xae09;" 
d="M860 315v69h-207v361h-416v-69h341v-292h-538v-69h820zM653 -137v290h-75v-93h-256v93h-75v-290q0 -28 20 -48t48 -20h270q28 0 48 20t20 48zM578 -136h-256v127h256v-127z" />
    <glyph glyph-name="uniAE0B" unicode="&#xae0b;" 
d="M860 295v69h-207v381h-416v-69h341v-312h-538v-69h820zM699 -154l-249 293l-249 -293l57 -45l192 228l192 -228z" />
    <glyph glyph-name="uniAE0D" unicode="&#xae0d;" 
d="M860 295v69h-207v381h-416v-69h341v-312h-538v-69h820zM642 -42q0 35 -15 66.5t-41.5 55t-61.5 37.5t-74 14t-74 -13.5t-61 -37t-41.5 -55t-15.5 -67.5t15.5 -67.5t42 -55t61.5 -37t73 -13.5q39 0 74 14t61 37.5t41.5 55t15.5 66.5zM567 -42q0 -24 -9.5 -43.5
t-25.5 -33.5t-37 -21.5t-45 -7.5q-22 0 -43 7.5t-37.5 21.5t-26.5 33.5t-10 43.5t10 43.5t26.5 33.5t37.5 21.5t43 7.5q24 0 45 -7.5t37 -21.5t25.5 -33.5t9.5 -43.5z" />
    <glyph glyph-name="uniAE14" unicode="&#xae14;" 
d="M685 196v-161h75v730h-75v-499h-164v478h-356v-69h281v-409h-416v-70h655z" />
    <glyph glyph-name="uniAE30" unicode="&#xae30;" 
d="M730 35v730h-75v-730h75zM498 700l-61 44h-317v-70h272l-254 -360l60 -40z" />
    <glyph glyph-name="uniAE31" unicode="&#xae31;" 
d="M497 691l-56 53h-321v-69h270l-249 -290l57 -44zM730 -195v352v608h-75v-608h-346v-69h346v-283h75z" />
    <glyph glyph-name="uniAE34" unicode="&#xae34;" 
d="M730 145v620h-76v-620h76zM497 691l-56 53h-321v-69h270l-249 -290l57 -44zM740 -195v69h-345v242h-76v-243q0 -28 20.5 -48t48.5 -20h352z" />
    <glyph glyph-name="uniAE37" unicode="&#xae37;" 
d="M497 691l-56 53h-321v-69h270l-249 -290l57 -44zM740 -195v69h-345v214h335v69v608h-76v-608h-335v-284q0 -28 20.5 -48t48.5 -20h352z" />
    <glyph glyph-name="uniAE38" unicode="&#xae38;" 
d="M497 691l-56 53h-321v-69h270l-249 -290l57 -44zM740 -215v64h-345v98h335v221v597h-76v-597h-335v-64h335v-97h-335v-154q0 -28 20.5 -48t48.5 -20h352z" />
    <glyph glyph-name="uniAE3A" unicode="&#xae3a;" 
d="M497 691l-56 53h-321v-69h270l-249 -290l57 -44zM730 -137v305v597h-75v-597h-178v-305q0 -28 20.5 -48t48.5 -20h115q29 0 49 20t20 48zM655 -136h-103v235h103v-235zM416 -205v64h-168v93h157v216h-232v-64h157v-92h-157v-149q0 -28 20.5 -48t48.5 -20h174z" />
    <glyph glyph-name="uniAE40" unicode="&#xae40;" 
d="M497 691l-56 53h-321v-69h270l-249 -290l57 -44zM730 -127v284v608h-75v-608h-336v-284q0 -28 21 -48t49 -20h272q29 0 49 20t20 48zM655 -126h-260v214h260v-214z" />
    <glyph glyph-name="uniAE41" unicode="&#xae41;" 
d="M497 691l-56 53h-321v-69h270l-249 -290l57 -44zM730 -132v289v608h-75v-620v-80h-260v92h-76v-289q0 -28 21 -48t49 -20h272q29 0 49 20t20 48zM655 -131h-260v127h260v-127z" />
    <glyph glyph-name="uniAE43" unicode="&#xae43;" 
d="M729 145v620h-76v-620h76zM497 691l-56 53h-321v-69h270l-249 -290l57 -44zM755 -154l-252 293l-252 -293l59 -45l193 228l193 -228z" />
    <glyph glyph-name="uniAE45" unicode="&#xae45;" 
d="M497 691l-56 53h-321v-69h270l-249 -290l57 -44zM730 -33v798h-75v-652q-38 20 -65.5 28t-53.5 8q-39 0 -74 -14.5t-61.5 -39t-42 -58t-15.5 -70.5t15.5 -70t41.5 -58t61.5 -39.5t74.5 -14.5t74.5 14.5t62 39.5t42 58t15.5 70zM655 -33q0 -26 -9.5 -47t-26 -36t-38 -23.5
t-45.5 -8.5t-45.5 8.5t-37.5 23.5t-25.5 36t-9.5 47q0 25 9.5 46.5t25.5 37t37.5 24t45.5 8.5t45.5 -8.5t38 -24t26 -37t9.5 -46.5z" />
    <glyph glyph-name="uniAE46" unicode="&#xae46;" 
d="M497 691l-56 53h-321v-69h270l-249 -290l57 -44zM769 -155l-204 243h163v69v608h-75v-608h-334v-69h163l-204 -243l56 -44l189 226l189 -226z" />
    <glyph glyph-name="uniAE4A" unicode="&#xae4a;" 
d="M497 691l-56 53h-321v-69h270l-249 -290l57 -44zM426 -126v214h155v-214h-155zM735 -195v69h-79v214h74v69v608h-76v-608h-376v-69h73v-214h-79v-69h463z" />
    <glyph glyph-name="uniAE4C" unicode="&#xae4c;" 
d="M870 493v69h-135v203h-74v-730h74v458h135zM327 675h130l-158 -341l66 -28l186 403l-57 35h-228h-166v-69h150l-150 -322l66 -29z" />
    <glyph glyph-name="uniAE4D" unicode="&#xae4d;" 
d="M326 676h127l-156 -288l64 -31l192 354l-59 33h-228h-166v-68h145l-146 -270l64 -32zM735 -195v352v369h135v69h-135v170h-74v-608h-343v-69h343v-283h74z" />
    <glyph glyph-name="uniAE4E" unicode="&#xae4e;" 
d="M326 676h127l-156 -288l64 -31l192 354l-59 33h-228h-166v-68h145l-146 -270l64 -32zM735 -195v352v369h135v69h-135v170h-74v-608h-405v-69h156v-283h74v283h175v-283h74z" />
    <glyph glyph-name="uniAE50" unicode="&#xae50;" 
d="M870 526v69h-135v170h-74v-620h74v381h135zM326 676h127l-156 -288l64 -31l192 354l-59 33h-228h-166v-68h145l-146 -270l64 -32zM746 -195v69h-343v242h-74v-243q0 -28 20 -48t48 -20h349z" />
    <glyph glyph-name="uniAE54" unicode="&#xae54;" 
d="M326 676h127l-156 -288l64 -31l192 354l-59 33h-228h-166v-68h145l-146 -270l64 -32zM746 -215v64h-343v98h332v221v358h135v69h-135v170h-74v-597h-332v-64h332v-97h-332v-154q0 -28 20 -48t48 -20h349z" />
    <glyph glyph-name="uniAE56" unicode="&#xae56;" 
d="M326 676h127l-156 -288l64 -31l192 354l-59 33h-228h-166v-68h145l-146 -270l64 -32zM735 -137v305v358h135v69h-135v170h-74v-597h-177v-305q0 -28 20.5 -48t48.5 -20h114q28 0 48 20t20 48zM661 -136h-102v235h102v-235zM424 -205v64h-166v93h156v216h-230v-64h155v-92
h-155v-149q0 -28 20 -48t48 -20h172z" />
    <glyph glyph-name="uniAE5C" unicode="&#xae5c;" 
d="M326 676h127l-156 -288l64 -31l192 354l-59 33h-228h-166v-68h145l-146 -270l64 -32zM735 -127v284v369h135v69h-135v170h-74v-608h-332v-284q0 -28 20 -48t48 -20h270q28 0 48 20t20 48zM661 -126h-258v214h258v-214z" />
    <glyph glyph-name="uniAE5D" unicode="&#xae5d;" 
d="M326 676h127l-156 -288l64 -31l192 354l-59 33h-228h-166v-68h145l-146 -270l64 -32zM735 -132v289v369h135v69h-135v170h-74v-620v-80h-258v92h-74v-289q0 -28 20 -48t48 -20h270q28 0 48 20t20 48zM661 -131h-258v127h258v-127z" />
    <glyph glyph-name="uniAE5F" unicode="&#xae5f;" 
d="M870 526v69h-135v170h-74v-620h74v381h135zM326 676h127l-156 -288l64 -31l192 354l-59 33h-228h-166v-68h145l-146 -270l64 -32zM761 -154l-250 293l-249 -293l57 -45l192 228l192 -228z" />
    <glyph glyph-name="uniAE60" unicode="&#xae60;" 
d="M870 526v69h-135v170h-74v-620h74v381h135zM326 676h127l-156 -288l64 -31l192 354l-59 33h-228h-166v-68h145l-146 -270l64 -32zM762 -173l-156 315l-126 -207l-125 207l-156 -315l65 -28l97 198l119 -180l120 180l98 -198z" />
    <glyph glyph-name="uniAE61" unicode="&#xae61;" 
d="M870 526v69h-135v170h-74v-652q-37 20 -64.5 28t-53.5 8q-39 0 -73.5 -14.5t-61 -39t-41.5 -58t-15 -70.5t15 -70t41 -58t61 -39.5t74 -14.5q40 0 75 14.5t61 39.5t41 58t15 70v559h135zM661 -33q0 -26 -9.5 -47t-25.5 -36t-37.5 -23.5t-45.5 -8.5q-23 0 -44.5 8.5
t-37.5 23.5t-25.5 36t-9.5 47t9.5 47.5t26 36.5t37.5 23.5t44 8.5q24 0 45.5 -8.5t37.5 -24t25.5 -37t9.5 -46.5zM326 676h127l-156 -288l64 -31l192 354l-59 33h-228h-166v-68h145l-146 -270l64 -32z" />
    <glyph glyph-name="uniAE65" unicode="&#xae65;" 
d="M326 676h127l-156 -288l64 -31l192 354l-59 33h-228h-166v-68h145l-146 -270l64 -32zM735 -205v64h-332v87h322v61h-322v87h332v63v369h135v69h-135v170h-74v-608h-332v-294q0 -28 20 -48t48 -20h338z" />
    <glyph glyph-name="uniAE68" unicode="&#xae68;" 
d="M770 35v730h-75v-192h-109v192h-73v-730h73v468h109v-468h75zM256 675h101l-134 -334l66 -25l160 399l-58 29h-206h-124v-69h119l-128 -318l67 -25z" />
    <glyph glyph-name="uniAE69" unicode="&#xae69;" 
d="M255 676h102l-120 -296l67 -25l145 361l-58 28h-206h-125v-68h120l-114 -280l67 -25zM770 -195v352v608h-75v-170h-109v170h-73v-496h73v257h109v-369h-344v-69h344v-283h75z" />
    <glyph glyph-name="uniAE6C" unicode="&#xae6c;" 
d="M770 145v620h-75v-170h-110v170h-73v-620h73v381h110v-381h75zM255 676h102l-120 -296l67 -25l145 361l-58 28h-206h-125v-68h120l-114 -280l67 -25zM780 -195v69h-344v242h-75v-243q0 -28 20.5 -48t48.5 -20h350z" />
    <glyph glyph-name="uniAE70" unicode="&#xae70;" 
d="M255 676h102l-120 -296l67 -25l145 361l-58 28h-206h-125v-68h120l-114 -280l67 -25zM780 -215v64h-344v98h334v221v597h-75v-170h-110v170h-73v-496h73v257h110v-358h-334v-64h334v-97h-334v-154q0 -28 20.5 -48t48.5 -20h350z" />
    <glyph glyph-name="uniAE78" unicode="&#xae78;" 
d="M255 676h102l-120 -296l67 -25l145 361l-58 28h-206h-125v-68h120l-114 -280l67 -25zM770 -127v284v608h-75v-170h-109v170h-73v-496h73v257h109v-369h-333v-284q0 -28 20 -48t48 -20h271q29 0 49 20t20 48zM695 -126h-258v214h258v-214z" />
    <glyph glyph-name="uniAE79" unicode="&#xae79;" 
d="M255 676h102l-120 -296l67 -25l145 361l-58 28h-206h-125v-68h120l-114 -280l67 -24zM770 -132v289v608h-75v-170h-109v170h-73v-496h73v257h109v-381v-80h-258v92h-75v-289q0 -28 20 -48t48 -20h271q29 0 49 20t20 48zM695 -131h-258v127h258v-127z" />
    <glyph glyph-name="uniAE7B" unicode="&#xae7b;" 
d="M769 145v620h-75v-170h-109v170h-73v-496h73v257h109v-381h75zM255 676h102l-120 -296l67 -25l145 361l-58 28h-206h-125v-68h120l-114 -280l67 -24zM795 -154l-251 293l-250 -293l58 -45l192 228l193 -228z" />
    <glyph glyph-name="uniAE7C" unicode="&#xae7c;" 
d="M769 145v620h-75v-170h-109v170h-73v-496h73v257h109v-381h75zM255 676h102l-120 -296l67 -25l145 361l-58 28h-206h-125v-68h120l-114 -280l67 -24zM796 -173l-156 315l-127 -207l-126 207l-156 -315l65 -28l98 198l119 -180l120 180l98 -198z" />
    <glyph glyph-name="uniAE7D" unicode="&#xae7d;" 
d="M770 -33v798h-75v-170h-109v170h-73v-496h73v257h109v-413q-37 20 -64.5 28t-53.5 8q-39 0 -73.5 -14t-61 -39t-42 -58t-15.5 -71q0 -37 15.5 -70t41.5 -58t61 -39.5t74 -14.5q40 0 75 15t61 40t41.5 58t15.5 69zM695 -33q0 -26 -9.5 -47t-25.5 -36t-37.5 -23.5
t-45.5 -8.5q-23 0 -44.5 8.5t-37.5 23.5t-25.5 36t-9.5 47t9.5 47.5t26 36.5t37.5 23.5t44 8.5q24 0 45.5 -8.5t37.5 -24t25.5 -37t9.5 -46.5zM255 676h102l-120 -296l67 -25l145 361l-58 28h-206h-125v-68h120l-114 -280l67 -24z" />
    <glyph glyph-name="uniAE84" unicode="&#xae84;" 
d="M870 404v70h-135v117h135v70h-135v104h-74v-730h74v369h135zM327 675h130l-158 -341l66 -28l186 403l-57 35h-228h-166v-69h150l-150 -322l66 -29z" />
    <glyph glyph-name="uniAE85" unicode="&#xae85;" 
d="M326 676h127l-156 -288l64 -31l192 354l-59 33h-228h-166v-68h145l-146 -270l64 -32zM735 -195v352v281h135v69h-135v107h135v69h-135v82h-74v-608h-343v-69h343v-283h74z" />
    <glyph glyph-name="uniAE8C" unicode="&#xae8c;" 
d="M326 676h127l-156 -288l64 -31l192 354l-59 33h-228h-166v-68h145l-146 -270l64 -32zM746 -215v64h-343v98h332v221v271h135v69h-135v106h135v69h-135v82h-74v-597h-332v-64h332v-97h-332v-154q0 -28 20 -48t48 -20h349z" />
    <glyph glyph-name="uniAEBC" unicode="&#xaebc;" 
d="M760 35v730h-75v-212h-167v-70h167v-448h75zM339 675h131l-159 -341l66 -28l187 403l-57 35h-230h-167v-69h151l-151 -322l66 -29z" />
    <glyph glyph-name="uniAEBD" unicode="&#xaebd;" 
d="M338 676h127l-157 -288l65 -31l193 354l-60 33h-229h-167v-68h146l-147 -270l64 -32zM760 -195v352v608h-75v-190h-167v-69h167v-349h-345v-69h345v-283h75z" />
    <glyph glyph-name="uniAEBE" unicode="&#xaebe;" 
d="M338 676h127l-157 -288l65 -31l193 354l-60 33h-229h-167v-68h146l-147 -270l64 -32zM760 -195v352v608h-75v-190h-167v-69h167v-349h-407v-69h156v-283h75v283h176v-283h75z" />
    <glyph glyph-name="uniAEC0" unicode="&#xaec0;" 
d="M760 145v620h-76v-190h-167v-69h167v-361h76zM338 676h127l-157 -288l65 -31l193 354l-60 33h-229h-167v-68h146l-147 -270l64 -32zM770 -195v69h-344v242h-76v-243q0 -28 20.5 -48t48.5 -20h351z" />
    <glyph glyph-name="uniAEC4" unicode="&#xaec4;" 
d="M338 676h127l-157 -288l65 -31l193 354l-60 33h-229h-167v-68h146l-147 -270l64 -32zM770 -215v64h-344v98h334v221v597h-76v-190h-167v-69h167v-338h-334v-64h334v-97h-334v-154q0 -28 20.5 -48t48.5 -20h351z" />
    <glyph glyph-name="uniAECC" unicode="&#xaecc;" 
d="M338 676h127l-157 -288l65 -31l193 354l-60 33h-229h-167v-68h146l-147 -270l64 -32zM760 -127v284v608h-75v-190h-167v-69h167v-349h-334v-284q0 -28 20.5 -48t48.5 -20h271q29 0 49 20t20 48zM685 -126h-259v214h259v-214z" />
    <glyph glyph-name="uniAECD" unicode="&#xaecd;" 
d="M338 676h127l-157 -288l65 -31l193 354l-60 33h-229h-167v-68h146l-147 -270l64 -32zM760 -132v289v608h-75v-190h-167v-69h167v-361v-80h-259v92h-75v-289q0 -28 20.5 -48t48.5 -20h271q29 0 49 20t20 48zM685 -131h-259v127h259v-127z" />
    <glyph glyph-name="uniAECF" unicode="&#xaecf;" 
d="M759 145v620h-75v-190h-167v-69h167v-361h75zM338 676h127l-157 -288l65 -31l193 354l-60 33h-229h-167v-68h146l-147 -270l64 -32zM785 -154l-251 293l-252 -293l59 -45l193 228l192 -228z" />
    <glyph glyph-name="uniAED0" unicode="&#xaed0;" 
d="M759 145v620h-75v-190h-167v-69h167v-361h75zM338 676h127l-157 -288l65 -31l193 354l-60 33h-229h-167v-68h146l-147 -270l64 -32zM786 -173l-157 315l-127 -207l-126 207l-156 -315l65 -28l98 198l119 -180l121 180l98 -198z" />
    <glyph glyph-name="uniAED1" unicode="&#xaed1;" 
d="M760 -33v798h-75v-190h-167v-69h167v-393q-37 20 -64.5 28t-53.5 8q-39 0 -74 -14t-61.5 -38.5t-42 -58t-15.5 -71.5q0 -37 15.5 -70t41.5 -58t61.5 -39.5t74.5 -14.5q40 0 75 15t61 40t41.5 58t15.5 69zM685 -33q0 -26 -9.5 -47t-25.5 -36t-37.5 -23.5t-45.5 -8.5
t-45.5 8.5t-37.5 23.5t-25.5 36t-9.5 47q0 25 9.5 46.5t25.5 37t37.5 24t45.5 8.5t45.5 -8.5t37.5 -24t25.5 -37t9.5 -46.5zM338 676h127l-157 -288l65 -31l193 354l-60 33h-229h-167v-68h146l-147 -270l64 -32z" />
    <glyph glyph-name="uniAED8" unicode="&#xaed8;" 
d="M770 35v730h-75v-730h75zM603 35v730h-73v-192h-106v-70h106v-468h73zM256 675h101l-134 -334l66 -25l160 399l-58 29h-206h-124v-69h119l-128 -318l67 -25z" />
    <glyph glyph-name="uniAED9" unicode="&#xaed9;" 
d="M603 269v496h-73v-170h-106v-69h106v-257h73zM255 676h102l-120 -296l67 -25l145 361l-58 28h-206h-125v-68h120l-114 -280l67 -25zM770 -195v352v608h-75v-608h-344v-69h344v-283h75z" />
    <glyph glyph-name="uniAEDC" unicode="&#xaedc;" 
d="M770 145v620h-75v-620h75zM603 145v620h-73v-170h-106v-69h106v-381h73zM255 676h102l-120 -296l67 -25l145 361l-58 28h-206h-125v-68h120l-114 -280l67 -25zM780 -195v69h-344v242h-75v-243q0 -28 20.5 -48t48.5 -20h350z" />
    <glyph glyph-name="uniAEE8" unicode="&#xaee8;" 
d="M603 269v496h-73v-170h-106v-69h106v-257h73zM255 676h102l-120 -296l67 -25l145 361l-58 28h-206h-125v-68h120l-114 -280l67 -25zM770 -127v284v608h-75v-608h-333v-284q0 -28 20 -48t48 -20h271q29 0 49 20t20 48zM695 -126h-258v214h258v-214z" />
    <glyph glyph-name="uniAEEB" unicode="&#xaeeb;" 
d="M769 145v620h-75v-620h75zM603 269v496h-73v-170h-106v-69h106v-257h73zM255 676h102l-120 -296l67 -25l145 361l-58 28h-206h-125v-68h120l-114 -280l67 -25zM795 -154l-251 293l-250 -293l58 -45l192 228l193 -228z" />
    <glyph glyph-name="uniAEED" unicode="&#xaeed;" 
d="M603 269v496h-73v-170h-106v-69h106v-257h73zM770 -33v798h-75v-652q-37 20 -64.5 28t-53.5 8q-39 0 -73.5 -14t-61 -39t-42 -58t-15.5 -71q0 -37 15.5 -70t41.5 -58t61 -39.5t74 -14.5q40 0 75 15t61 40t41.5 58t15.5 69zM695 -33q0 -26 -9.5 -47t-25.5 -36t-37.5 -23.5
t-45.5 -8.5q-23 0 -44.5 8.5t-37.5 23.5t-25.5 36t-9.5 47t9.5 47.5t26 36.5t37.5 23.5t44 8.5q24 0 45.5 -8.5t37.5 -24t25.5 -37t9.5 -46.5zM255 676h102l-120 -296l67 -25l145 361l-58 28h-206h-125v-68h120l-114 -280l67 -25z" />
    <glyph glyph-name="uniAEF4" unicode="&#xaef4;" 
d="M760 35v730h-75v-134h-147v-70h147v-107h-147v-69h147v-350h75zM339 675h131l-159 -341l66 -28l187 403l-57 35h-230h-167v-69h151l-151 -322l66 -29z" />
    <glyph glyph-name="uniAEF8" unicode="&#xaef8;" 
d="M760 145v620h-76v-112h-147v-69h147v-107h-147v-69h147v-263h76zM337 676h128l-157 -288l64 -31l194 354l-60 33h-229h-167v-68h146l-147 -270l64 -32zM770 -195v69h-344v242h-76v-243q0 -28 20.5 -48t48.5 -20h351z" />
    <glyph glyph-name="uniAEFC" unicode="&#xaefc;" 
d="M337 676h128l-157 -288l64 -31l194 354l-60 33h-229h-167v-68h146l-147 -270l64 -32zM770 -215v64h-344v98h334v221v597h-76v-112h-147v-69h147v-106h-147v-69h147v-241h-334v-64h334v-97h-334v-154q0 -28 20.5 -48t48.5 -20h351z" />
    <glyph glyph-name="uniAF07" unicode="&#xaf07;" 
d="M760 145v620h-76v-112h-147v-69h147v-106h-147v-69h147v-264h76zM337 676h128l-157 -288l64 -31l194 354l-60 33h-229h-167v-68h146l-147 -270l64 -32zM785 -154l-251 293l-252 -293l59 -45l193 228l192 -228z" />
    <glyph glyph-name="uniAF08" unicode="&#xaf08;" 
d="M760 145v620h-76v-112h-147v-69h147v-106h-147v-69h147v-264h76zM337 676h128l-157 -288l64 -31l194 354l-60 33h-229h-167v-68h146l-147 -270l64 -32zM786 -173l-157 315l-127 -207l-126 207l-156 -315l65 -28l98 198l119 -180l121 180l98 -198z" />
    <glyph glyph-name="uniAF0D" unicode="&#xaf0d;" 
d="M337 676h128l-157 -288l64 -31l194 354l-60 33h-229h-167v-68h146l-147 -270l64 -32zM760 -205v64h-334v87h324v61h-324v87h334v671h-76v-112h-147v-69h147v-106h-147v-69h147v-252h-333v-294q0 -28 20.5 -48t48.5 -20h340z" />
    <glyph glyph-name="uniAF10" unicode="&#xaf10;" 
d="M770 35v730h-75v-730h75zM603 35v730h-73v-134h-106v-70h106v-107h-106v-69h106v-350h73zM256 675h101l-134 -334l66 -25l160 399l-58 29h-206h-124v-69h119l-128 -318l67 -25z" />
    <glyph glyph-name="uniAF2C" unicode="&#xaf2c;" 
d="M684 407v338h-499v-70h155v-268h75v268h194v-268h75zM860 140v70h-357v241h-75v-241h-388v-70h820z" />
    <glyph glyph-name="uniAF2D" unicode="&#xaf2d;" 
d="M674 444v301h-479v-69h156v-232h74v232h174v-232h75zM860 264v69h-357v154h-75v-154h-388v-69h820zM653 -195v301h-416v-69h341v-232h75z" />
    <glyph glyph-name="uniAF30" unicode="&#xaf30;" 
d="M674 444v301h-479v-69h156v-232h74v232h174v-232h75zM860 243v69h-357v175h-75v-175h-388v-69h820zM663 -195v69h-341v201h-75v-202q0 -28 20 -48t48 -20h348z" />
    <glyph glyph-name="uniAF32" unicode="&#xaf32;" 
d="M674 444v301h-479v-69h156v-232h74v232h174v-232h75zM860 264v69h-357v154h-75v-154h-388v-69h820zM734 -56q0 45 -25 83h58v69h-140v82h-74v-82h-140v-69h58q-25 -38 -25 -83q0 -30 12 -57t31.5 -47t45.5 -32t55 -12q28 0 54.5 12t46 32t31.5 47t12 57zM659 -56
q0 -15 -5.5 -30t-14.5 -26t-21.5 -18t-27.5 -7q-14 0 -26.5 7t-22.5 18t-15.5 26t-5.5 30q0 16 5.5 31t15.5 26t22.5 18t26.5 7q29 0 49 -25t20 -57zM425 -195v69h-145v232h-74v-233q0 -28 20 -48t48 -20h151z" />
    <glyph glyph-name="uniAF34" unicode="&#xaf34;" 
d="M674 465v280h-479v-69h156v-211h74v211h174v-211h75zM860 285v69h-357v154h-75v-154h-388v-69h820zM663 -215v64h-341v98h331v221h-406v-64h331v-97h-331v-154q0 -28 20 -48t48 -20h348z" />
    <glyph glyph-name="uniAF3C" unicode="&#xaf3c;" 
d="M674 444v301h-479v-69h156v-232h74v232h174v-232h75zM860 264v69h-357v154h-75v-154h-388v-69h820zM653 -127v254h-406v-254q0 -28 20 -48t48 -20h270q28 0 48 20t20 48zM578 -126h-256v184h256v-184z" />
    <glyph glyph-name="uniAF3D" unicode="&#xaf3d;" 
d="M674 444v301h-479v-69h156v-232h74v232h174v-232h75zM860 264v69h-357v154h-75v-154h-388v-69h820zM653 -137v290h-75v-93h-256v93h-75v-290q0 -28 20 -48t48 -20h270q28 0 48 20t20 48zM578 -136h-256v127h256v-127z" />
    <glyph glyph-name="uniAF3F" unicode="&#xaf3f;" 
d="M674 444v301h-479v-69h156v-232h74v232h174v-232h75zM860 264v69h-357v154h-75v-154h-388v-69h820zM699 -154l-249 293l-249 -293l57 -45l192 228l192 -228z" />
    <glyph glyph-name="uniAF41" unicode="&#xaf41;" 
d="M674 444v301h-479v-69h156v-232h74v232h174v-232h75zM860 264v69h-357v154h-75v-154h-388v-69h820zM642 -42q0 35 -15 66.5t-41.5 55t-61.5 37.5t-74 14t-74 -13.5t-61 -37t-41.5 -55t-15.5 -67.5t15.5 -67.5t42 -55t61.5 -37t73 -13.5q39 0 74 14t61 37.5t41.5 55
t15.5 66.5zM567 -42q0 -24 -9.5 -43.5t-25.5 -33.5t-37 -21.5t-45 -7.5q-22 0 -43 7.5t-37.5 21.5t-26.5 33.5t-10 43.5t10 43.5t26.5 33.5t37.5 21.5t43 7.5q24 0 45 -7.5t37 -21.5t25.5 -33.5t9.5 -43.5z" />
    <glyph glyph-name="uniAF42" unicode="&#xaf42;" 
d="M674 444v301h-479v-69h156v-232h74v232h174v-232h75zM860 264v69h-357v154h-75v-154h-388v-69h820zM693 -149l-205 207h165v69h-406v-69h165l-205 -207l53 -50l190 194l190 -194z" />
    <glyph glyph-name="uniAF43" unicode="&#xaf43;" 
d="M674 444v301h-479v-69h156v-232h74v232h174v-232h75zM860 264v69h-357v154h-75v-154h-388v-69h820zM693 -149l-203 186h163v69h-166v62h-74v-62h-166v-69h163l-203 -186l54 -51l189 177l189 -177z" />
    <glyph glyph-name="uniAF48" unicode="&#xaf48;" 
d="M539 420v324h-405v-69h113v-255h75v255h142v-255h75zM671 186v-151h75v458h134v69h-134v203h-75v-510h-272v229h-74v-229h-305v-69h651z" />
    <glyph glyph-name="uniAF49" unicode="&#xaf49;" 
d="M539 444v300h-405v-69h113v-231h75v231h142v-231h75zM746 -195v301v420h134v69h-134v170h-75v-433h-272v175h-74v-175h-305v-69h651v-157h-341v-69h341v-232h75z" />
    <glyph glyph-name="uniAF50" unicode="&#xaf50;" 
d="M539 444v300h-405v-69h113v-231h75v231h142v-231h75zM756 -215v64h-341v87h331v211v379h134v69h-134v170h-75v-432h-272v175h-74v-175h-305v-69h651v-117h-331v-63h331v-87h-331v-144q0 -28 20.5 -48t48.5 -20h347z" />
    <glyph glyph-name="uniAF5C" unicode="&#xaf5c;" 
d="M539 444v300h-405v-69h113v-231h75v231h142v-231h75zM671 264v-150h75v412h134v69h-134v170h-75v-432h-272v175h-74v-175h-305v-69h651zM772 -183l-155 305l-126 -196l-124 196l-156 -305l65 -28l98 192l117 -174l119 174l98 -192z" />
    <glyph glyph-name="uniAF5D" unicode="&#xaf5d;" 
d="M539 444v300h-405v-69h113v-231h75v231h142v-231h75zM671 264v-168q-37 20 -64 27.5t-53 7.5q-39 0 -74 -14t-61 -37.5t-41 -55t-15 -66.5t15 -66.5t41.5 -55t61 -37.5t73.5 -14t74 14t61 37.5t41.5 55t15.5 66.5v568h134v69h-134v170h-75v-432h-272v175h-74v-175h-305
v-69h651zM671 -42q0 -24 -9.5 -43.5t-25.5 -33.5t-37 -21.5t-45 -7.5q-23 0 -43.5 7.5t-37 21.5t-26 33.5t-9.5 43.5t9.5 43.5t26 33.5t37 21.5t43.5 7.5q24 0 45 -7.5t37 -21.5t25.5 -33.5t9.5 -43.5z" />
    <glyph glyph-name="uniAF64" unicode="&#xaf64;" 
d="M438 420v324h-366v-69h94v-255h74v255h123v-255h75zM536 186h60v307h109v-458h75v730h-75v-203h-109v203h-72v-510h-206v229h-75v-229h-233v-69h514h12z" />
    <glyph glyph-name="uniAF65" unicode="&#xaf65;" 
d="M438 444v300h-366v-69h94v-231h74v231h123v-231h75zM780 -195v301v659h-75v-170h-109v170h-72v-433h-206v175h-75v-175h-233v-69h526h60v263h109v-420h-342v-69h342v-232h75z" />
    <glyph glyph-name="uniAF79" unicode="&#xaf79;" 
d="M438 444v300h-366v-69h94v-231h74v231h123v-231h75zM536 264h60v262h109v-430q-37 20 -64 27.5t-53 7.5q-39 0 -74 -13.5t-61 -37t-41.5 -55t-15.5 -67.5t15.5 -67.5t42 -55t61.5 -37t73 -13.5q39 0 74 14t61 37.5t41.5 55t15.5 66.5v807h-75v-170h-109v170h-72v-432
h-206v175h-75v-175h-233v-69h514h12zM705 -42q0 -24 -9.5 -43.5t-25.5 -33.5t-37 -21.5t-45 -7.5q-22 0 -43 7.5t-37.5 21.5t-26.5 33.5t-10 43.5t10 43.5t26.5 33.5t37.5 21.5t43 7.5q24 0 45 -7.5t37 -21.5t25.5 -33.5t9.5 -43.5z" />
    <glyph glyph-name="uniAF80" unicode="&#xaf80;" 
d="M552 420v324h-408v-69h115v-255h75v255h143v-255h75zM685 186v-151h75v730h-75v-510h-273v229h-75v-229h-307v-69h655z" />
    <glyph glyph-name="uniAF84" unicode="&#xaf84;" 
d="M552 444v300h-408v-69h115v-231h74v231h144v-231h75zM685 243v-129h75v651h-75v-453h-274v195h-74v-195h-307v-69h655zM770 -195v69h-343v201h-75v-202q0 -28 20.5 -48t48.5 -20h349z" />
    <glyph glyph-name="uniAF88" unicode="&#xaf88;" 
d="M552 444v300h-408v-69h115v-231h74v231h144v-231h75zM770 -215v64h-343v87h333v211v618h-75v-432h-274v175h-74v-175h-307v-69h655v-117h-333v-63h333v-87h-333v-144q0 -28 20.5 -48t48.5 -20h349z" />
    <glyph glyph-name="uniAF90" unicode="&#xaf90;" 
d="M552 444v300h-408v-69h115v-231h75v231h143v-231h75zM760 -127v253v639h-75v-433h-273v175h-75v-175h-307v-69h655v-137h-333v-253q0 -28 20.5 -48t48.5 -20h270q29 0 49 20t20 48zM685 -126h-258v183h258v-183z" />
    <glyph glyph-name="uniAF91" unicode="&#xaf91;" 
d="M552 444v300h-408v-69h115v-231h75v231h143v-231h75zM760 -137v269v633h-75v-432h-273v175h-75v-175h-307v-69h655v-150v-65h-258v83h-75v-269q0 -28 20.5 -48t48.5 -20h270q29 0 49 20t20 48zM685 -136h-258v116h258v-116z" />
    <glyph glyph-name="uniAF95" unicode="&#xaf95;" 
d="M552 444v300h-408v-69h115v-231h75v231h143v-231h75zM685 264v-168q-37 20 -64 27.5t-53 7.5q-39 0 -74.5 -13.5t-61.5 -37t-41.5 -55t-15.5 -67.5t15.5 -67.5t42 -55t61.5 -37t74 -13.5t74 14t61 37.5t41.5 55t15.5 66.5v807h-75v-432h-273v175h-75v-175h-307v-69h655z
M685 -42q0 -24 -9.5 -43.5t-25.5 -33.5t-37 -21.5t-45 -7.5q-23 0 -44 7.5t-37.5 21t-26.5 33.5t-10 44t10 43.5t26.5 33.5t37.5 21.5t44 7.5q24 0 45 -7.5t37 -21.5t25.5 -33.5t9.5 -43.5z" />
    <glyph glyph-name="uniAF9C" unicode="&#xaf9c;" 
d="M860 140v70h-269v241h-75v-241h-132v197h31v268h194v-268h75v338h-499v-70h155v-224h-31v-241h-269v-70h820z" />
    <glyph glyph-name="uniAFB8" unicode="&#xafb8;" 
d="M684 411v334h-499v-70h155v-264h75v264h194v-264h75zM487 -15v244h373v70h-820v-70h373v-244h74z" />
    <glyph glyph-name="uniAFB9" unicode="&#xafb9;" 
d="M674 423v322h-479v-69h156v-253h74v253h174v-253h75zM653 -195v301h-166v147h373v69h-820v-69h373v-147h-176v-69h341v-232h75z" />
    <glyph glyph-name="uniAFBC" unicode="&#xafbc;" 
d="M674 423v322h-479v-69h156v-253h74v253h174v-253h75zM518 52v191h342v69h-820v-69h404v-191h74zM663 -195v69h-341v201h-75v-202q0 -28 20 -48t48 -20h348z" />
    <glyph glyph-name="uniAFC0" unicode="&#xafc0;" 
d="M674 465v280h-479v-69h156v-211h74v211h174v-211h75zM663 -215v64h-341v98h331v221h-166v137h373v69h-820v-69h373v-137h-166v-64h331v-97h-331v-154q0 -28 20 -48t48 -20h348z" />
    <glyph glyph-name="uniAFC7" unicode="&#xafc7;" 
d="M674 465v280h-479v-69h156v-211h74v211h174v-211h75zM744 -48q0 57 -30 101h63v69h-140v67h-74v-67h-76v183h373v69h-820v-69h373v-190h10v-62h63q-30 -44 -30 -101q0 -35 12 -65.5t32 -53t46 -35.5t54 -13t54 13t46 35.5t32 53t12 65.5zM669 -48q0 -18 -5 -35.5t-14 -32
t-22 -23.5t-28 -9q-16 0 -28.5 9t-21.5 23.5t-14 32t-5 35.5t5 35.5t14 32t21.5 23.5t28.5 9q15 0 28 -9t22 -23.5t14 -32t5 -35.5zM415 -205v64h-166v98h155v221h-229v-63h155v-97h-155v-155q0 -28 20 -48t48 -20h172z" />
    <glyph glyph-name="uniAFC8" unicode="&#xafc8;" 
d="M674 444v301h-479v-69h156v-232h74v232h174v-232h75zM653 -127v254h-166v157h373v69h-820v-69h373v-157h-166v-254q0 -28 20 -48t48 -20h270q28 0 48 20t20 48zM578 -126h-256v184h256v-184z" />
    <glyph glyph-name="uniAFC9" unicode="&#xafc9;" 
d="M674 444v301h-479v-69h156v-232h74v232h174v-232h75zM487 145v139h373v69h-820v-69h373v-139h74zM653 -137v282l-75 8v-93h-256v93h-75v-290q0 -28 20 -48t48 -20h270q28 0 48 20t20 48zM578 -136h-256v127h256v-127z" />
    <glyph glyph-name="uniAFCB" unicode="&#xafcb;" 
d="M674 444v301h-479v-69h156v-232h74v232h174v-232h75zM699 -154l-212 250v188h373v69h-820v-69h373v-188l-212 -250l57 -45l192 228l192 -228z" />
    <glyph glyph-name="uniAFCD" unicode="&#xafcd;" 
d="M674 444v301h-479v-69h156v-232h74v232h174v-232h75zM642 -42q0 30 -12 58.5t-32.5 51t-49 38.5t-61.5 22v157h373v69h-820v-69h373v-157q-32 -6 -60.5 -21.5t-49.5 -38t-33 -51t-12 -59.5q0 -36 15.5 -67.5t42 -55t61.5 -37t73 -13.5q39 0 74 14t61 37.5t41.5 55
t15.5 66.5zM567 -42q0 -24 -9.5 -43.5t-25.5 -33.5t-37 -21.5t-45 -7.5q-22 0 -43 7.5t-37.5 21.5t-26.5 33.5t-10 43.5t10 43.5t26.5 33.5t37.5 21.5t43 7.5q24 0 45 -7.5t37 -21.5t25.5 -33.5t9.5 -43.5z" />
    <glyph glyph-name="uniAFCE" unicode="&#xafce;" 
d="M674 444v301h-479v-69h156v-232h74v232h174v-232h75zM487 156v128h373v69h-820v-69h373v-128h74zM693 -149l-205 207h165v69h-406v-69h165l-205 -207l53 -50l190 194l190 -194z" />
    <glyph glyph-name="uniAFD4" unicode="&#xafd4;" 
d="M760 35v730h-75v-548h-187v-68h187v-114h75zM552 441v303h-408v-69h115v-234h75v234h143v-234h75zM354 56v234h219v69h-543v-69h250v-234h74z" />
    <glyph glyph-name="uniAFDC" unicode="&#xafdc;" 
d="M552 464v280h-408v-69h115v-211h74v211h144v-211h75zM354 176v139h219v69h-543v-69h249v-139h75zM770 -215v64h-343v77h333v201v638h-75v-512h-187v-67h187v-59h-333v-64h333v-76h-333v-134q0 -28 20.5 -48t48.5 -20h349z" />
    <glyph glyph-name="uniAFE8" unicode="&#xafe8;" 
d="M759 84v681h-75v-512h-187v-67h187v-102h75zM551 464v280h-407v-69h114v-211h75v211h143v-211h75zM354 176v139h218v69h-542v-69h249v-139h75zM785 -183l-154 283l-128 -182l-126 182l-154 -283l64 -28l97 182l119 -165l121 165l97 -182z" />
    <glyph glyph-name="uniAFE9" unicode="&#xafe9;" 
d="M552 464v280h-408v-69h115v-211h75v211h143v-211h75zM760 -47v812h-75v-512h-187v-67h187v-97q-36 18 -61 25t-50 7q-39 0 -72.5 -13.5t-59 -36.5t-40 -53.5t-14.5 -64.5t14.5 -64.5t40 -53.5t59 -36.5t72.5 -13.5q38 0 72 13.5t59.5 37t40 54t14.5 63.5zM685 -47
q0 -21 -9.5 -39.5t-25 -32t-35.5 -21.5t-41 -8t-41 7.5t-35.5 21t-25 32t-9.5 40.5t9.5 40.5t25 32t35.5 21t41 7.5t41 -8t35.5 -21.5t25 -32t9.5 -39.5zM354 176v139h219v69h-543v-69h250v-139h74z" />
    <glyph glyph-name="uniAFF0" unicode="&#xaff0;" 
d="M780 35v730h-75v-730h75zM614 149v616h-73v-548h-168v-68h241zM438 441v303h-345v-69h93v-234h75v234h102v-234h75zM282 56v234h166v69h-438v-69h197v-234h75z" />
    <glyph glyph-name="uniAFF1" unicode="&#xaff1;" 
d="M614 186v579h-73v-512h-168v-67h241zM438 464v280h-345v-69h93v-211h75v211h102v-211h75zM780 -195v290v670h-75v-670h-342v-69h342v-221h75zM282 176v139h166v69h-438v-69h197v-139h75z" />
    <glyph glyph-name="uniAFF4" unicode="&#xaff4;" 
d="M780 83v682h-75v-682h75zM614 166v599h-73v-533h-168v-66h241zM437 444v300h-344v-69h93v-231h75v231h102v-231h74zM790 -195v69h-342v201h-75v-202q0 -28 20 -48t48 -20h349zM282 155v139h166v69h-438v-69h197v-139h75z" />
    <glyph glyph-name="uniAFF8" unicode="&#xaff8;" 
d="M614 186v579h-73v-512h-168v-67h241zM437 464v280h-344v-69h93v-211h75v211h102v-211h74zM790 -215v64h-342v77h332v201v638h-75v-638h-332v-64h332v-76h-332v-134q0 -28 20 -48t48 -20h349zM282 176v139h166v69h-438v-69h197v-139h75z" />
    <glyph glyph-name="uniB000" unicode="&#xb000;" 
d="M614 186v579h-73v-512h-168v-67h241zM438 464v280h-345v-69h93v-211h75v211h102v-211h75zM780 -127v233v659h-75v-659h-332v-233q0 -28 20.5 -48t48.5 -20h270q28 0 48 20t20 48zM705 -126h-257v163h257v-163zM282 176v139h166v69h-438v-69h197v-139h75z" />
    <glyph glyph-name="uniB001" unicode="&#xb001;" 
d="M614 186v579h-73v-512h-168v-67h241zM438 464v280h-345v-69h93v-211h75v211h102v-211h75zM780 -137v248v654h-75v-682v-44h-257v72h-75v-248q0 -28 20.5 -48t48.5 -20h270q28 0 48 20t20 48zM705 -136h-257v106h257v-106zM282 176v139h166v69h-438v-69h197v-139h75z" />
    <glyph glyph-name="uniB004" unicode="&#xb004;" 
d="M779 84v681h-75v-681h75zM613 186v579h-72v-512h-168v-67h240zM437 464v280h-344v-69h93v-211h75v211h101v-211h75zM281 176v139h166v69h-437v-69h197v-139h74zM805 -183l-154 283l-127 -182l-126 182l-154 -283l64 -28l97 182l119 -165l120 165l97 -182z" />
    <glyph glyph-name="uniB00C" unicode="&#xb00c;" 
d="M552 441v303h-408v-69h115v-234h75v234h143v-234h75zM354 56v213h331v-234h75v730h-75v-426h-655v-70h250v-213h74z" />
    <glyph glyph-name="uniB010" unicode="&#xb010;" 
d="M552 444v300h-408v-69h115v-231h74v231h144v-231h75zM354 155v119h331v-191h75v682h-75v-422h-655v-69h249v-119h75zM770 -195v69h-343v201h-75v-202q0 -28 20.5 -48t48.5 -20h349z" />
    <glyph glyph-name="uniB014" unicode="&#xb014;" 
d="M552 444v300h-408v-69h115v-231h74v231h144v-231h75zM770 -215v64h-343v77h333v201v638h-75v-401h-655v-69h249v-119h75v119h331v-168h-333v-64h333v-76h-333v-134q0 -28 20.5 -48t48.5 -20h349z" />
    <glyph glyph-name="uniB01C" unicode="&#xb01c;" 
d="M552 444v300h-408v-69h115v-231h75v231h143v-231h75zM760 -127v233v659h-75v-402h-655v-69h250v-118h74v118h331v-188h-333v-233q0 -28 20.5 -48t48.5 -20h270q29 0 49 20t20 48zM685 -126h-258v163h258v-163z" />
    <glyph glyph-name="uniB01D" unicode="&#xb01d;" 
d="M552 444v300h-408v-69h115v-231h75v231h143v-231h75zM760 -137v248v654h-75v-402h-655v-69h250v-118h74v118h331v-211v-44h-258v72h-75v-248q0 -28 20.5 -48t48.5 -20h270q29 0 49 20t20 48zM685 -136h-258v106h258v-106z" />
    <glyph glyph-name="uniB028" unicode="&#xb028;" 
d="M684 411v334h-499v-70h155v-264h75v264h194v-264h75zM373 -15v244h154v-244h74v244h259v70h-820v-70h259v-244h74z" />
    <glyph glyph-name="uniB044" unicode="&#xb044;" 
d="M684 365v380h-499v-70h155v-310h75v310h194v-310h75zM860 140v70h-820v-70h820z" />
    <glyph glyph-name="uniB045" unicode="&#xb045;" 
d="M674 444v301h-479v-69h156v-232h74v232h174v-232h75zM860 264v69h-820v-69h820zM653 -195v301h-416v-69h341v-232h75z" />
    <glyph glyph-name="uniB048" unicode="&#xb048;" 
d="M674 434v311h-479v-69h156v-242h74v242h174v-242h75zM860 243v69h-820v-69h820zM663 -195v69h-341v201h-75v-202q0 -28 20 -48t48 -20h348z" />
    <glyph glyph-name="uniB04A" unicode="&#xb04a;" 
d="M674 444v301h-479v-69h156v-232h74v232h174v-232h75zM860 264v69h-820v-69h820zM734 -56q0 45 -25 83h58v69h-140v82h-74v-82h-140v-69h58q-25 -38 -25 -83q0 -30 12 -57t31.5 -47t45.5 -32t55 -12q28 0 54.5 12t46 32t31.5 47t12 57zM659 -56q0 -15 -5.5 -30t-14.5 -26
t-21.5 -18t-27.5 -7q-14 0 -26.5 7t-22.5 18t-15.5 26t-5.5 30q0 16 5.5 31t15.5 26t22.5 18t26.5 7q29 0 49 -25t20 -57zM425 -195v69h-145v232h-74v-233q0 -28 20 -48t48 -20h151z" />
    <glyph glyph-name="uniB04C" unicode="&#xb04c;" 
d="M674 465v280h-479v-69h156v-211h74v211h174v-211h75zM860 285v69h-820v-69h820zM663 -215v64h-341v98h331v221h-406v-64h331v-97h-331v-154q0 -28 20 -48t48 -20h348z" />
    <glyph glyph-name="uniB04E" unicode="&#xb04e;" 
d="M674 465v280h-479v-69h156v-211h74v211h174v-211h75zM860 285v69h-820v-69h820zM725 -147v315h-250v-315q0 -28 20 -48t48 -20h114q29 0 48.5 20t19.5 48zM651 -146h-102v245h102v-245zM415 -215v64h-166v98h155v221h-229v-64h155v-97h-155v-154q0 -28 20 -48t48 -20h172
z" />
    <glyph glyph-name="uniB053" unicode="&#xb053;" 
d="M674 465v280h-479v-69h156v-211h74v211h174v-211h75zM860 285v69h-820v-69h820zM744 -48q0 57 -30 101h63v69h-140v67h-74v-67h-140v-69h63q-30 -44 -30 -101q0 -35 12 -65.5t32 -53t46 -35.5t54 -13t54 13t46 35.5t32 53t12 65.5zM669 -48q0 -18 -5 -35.5t-14 -32
t-22 -23.5t-28 -9q-16 0 -28.5 9t-21.5 23.5t-14 32t-5 35.5t5 35.5t14 32t21.5 23.5t28.5 9q15 0 28 -9t22 -23.5t14 -32t5 -35.5zM415 -205v64h-166v88h155v221h-229v-64h155v-97h-155v-144q0 -28 20 -48t48 -20h172z" />
    <glyph glyph-name="uniB054" unicode="&#xb054;" 
d="M674 444v301h-479v-69h156v-232h74v232h174v-232h75zM860 264v69h-820v-69h820zM653 -127v254h-406v-254q0 -28 20 -48t48 -20h270q28 0 48 20t20 48zM578 -126h-256v184h256v-184z" />
    <glyph glyph-name="uniB055" unicode="&#xb055;" 
d="M674 444v301h-479v-69h156v-232h74v232h174v-232h75zM860 264v69h-820v-69h820zM653 -137v290h-75v-93h-256v93h-75v-290q0 -28 20 -48t48 -20h270q28 0 48 20t20 48zM578 -136h-256v127h256v-127z" />
    <glyph glyph-name="uniB057" unicode="&#xb057;" 
d="M674 444v301h-479v-69h156v-232h74v232h174v-232h75zM860 264v69h-820v-69h820zM699 -154l-249 293l-249 -293l57 -45l192 228l192 -228z" />
    <glyph glyph-name="uniB059" unicode="&#xb059;" 
d="M674 444v301h-479v-69h156v-232h74v232h174v-232h75zM860 264v69h-820v-69h820zM642 -42q0 35 -15 66.5t-41.5 55t-61.5 37.5t-74 14t-74 -13.5t-61 -37t-41.5 -55t-15.5 -67.5t15.5 -67.5t42 -55t61.5 -37t73 -13.5q39 0 74 14t61 37.5t41.5 55t15.5 66.5zM567 -42
q0 -24 -9.5 -43.5t-25.5 -33.5t-37 -21.5t-45 -7.5q-22 0 -43 7.5t-37.5 21.5t-26.5 33.5t-10 43.5t10 43.5t26.5 33.5t37.5 21.5t43 7.5q24 0 45 -7.5t37 -21.5t25.5 -33.5t9.5 -43.5z" />
    <glyph glyph-name="uniB05D" unicode="&#xb05d;" 
d="M674 444v301h-479v-69h156v-232h74v232h174v-232h75zM860 264v69h-820v-69h820zM653 -215v64h-331v87h321v61h-321v87h331v64h-406v-295q0 -28 20 -48t48 -20h338z" />
    <glyph glyph-name="uniB07C" unicode="&#xb07c;" 
d="M760 35v730h-75v-730h75zM574 709l-57 35h-230h-167v-69h151l-151 -322l66 -29l163 351h131l-159 -341l66 -28z" />
    <glyph glyph-name="uniB07D" unicode="&#xb07d;" 
d="M576 711l-59 33h-229h-168v-68h146l-147 -270l64 -32l165 302h127l-156 -288l64 -31zM760 -195v352v608h-75v-608h-345v-69h345v-283h75z" />
    <glyph glyph-name="uniB080" unicode="&#xb080;" 
d="M760 145v620h-76v-620h76zM576 711l-59 33h-229h-168v-68h146l-147 -270l64 -32l165 302h127l-156 -288l64 -31zM770 -195v69h-344v242h-76v-243q0 -28 20.5 -48t48.5 -20h351z" />
    <glyph glyph-name="uniB084" unicode="&#xb084;" 
d="M576 711l-59 33h-229h-168v-68h146l-147 -270l64 -32l165 302h127l-156 -288l64 -31zM770 -215v64h-344v98h334v221v597h-76v-597h-334v-64h334v-97h-334v-154q0 -28 20.5 -48t48.5 -20h351z" />
    <glyph glyph-name="uniB08C" unicode="&#xb08c;" 
d="M576 711l-59 33h-229h-168v-68h146l-147 -270l64 -32l165 302h127l-156 -288l64 -31zM760 -127v284v608h-75v-608h-334v-284q0 -28 20.5 -48t48.5 -20h271q29 0 49 20t20 48zM685 -126h-259v214h259v-214z" />
    <glyph glyph-name="uniB08D" unicode="&#xb08d;" 
d="M576 711l-59 33h-229h-168v-68h146l-147 -270l64 -32l165 302h127l-156 -288l64 -31zM760 -132v289v608h-75v-620v-80h-259v92h-75v-289q0 -28 20.5 -48t48.5 -20h271q29 0 49 20t20 48zM685 -131h-259v127h259v-127z" />
    <glyph glyph-name="uniB08F" unicode="&#xb08f;" 
d="M759 145v620h-75v-620h75zM576 711l-59 33h-229h-168v-68h146l-147 -270l64 -32l165 302h127l-156 -288l64 -31zM785 -154l-251 293l-252 -293l59 -45l193 228l192 -228z" />
    <glyph glyph-name="uniB091" unicode="&#xb091;" 
d="M576 711l-59 33h-229h-168v-68h146l-147 -270l64 -32l165 302h127l-156 -288l64 -31zM760 -33v798h-75v-652q-37 20 -64.5 28t-53.5 8q-39 0 -74 -14t-61.5 -38.5t-42 -58t-15.5 -71.5q0 -37 15.5 -70t41.5 -58t61.5 -39.5t74.5 -14.5q40 0 75 15t61 40t41.5 58t15.5 69z
M685 -33q0 -26 -9.5 -47t-25.5 -36t-37.5 -23.5t-45.5 -8.5t-45.5 8.5t-37.5 23.5t-25.5 36t-9.5 47q0 25 9.5 46.5t25.5 37t37.5 24t45.5 8.5t45.5 -8.5t37.5 -24t25.5 -37t9.5 -46.5z" />
    <glyph glyph-name="uniB098" unicode="&#xb098;" 
d="M850 493v69h-135v203h-75v-730h75v458h135zM455 326v70h-270v348h-75v-349q0 -28 20.5 -48.5t48.5 -20.5h276z" />
    <glyph glyph-name="uniB099" unicode="&#xb099;" 
d="M850 526v69h-135v170h-75v-608h-343v-69h343v-283h75v352v369h135zM455 372v69h-270v303h-75v-304q0 -28 20.5 -48t48.5 -20h276z" />
    <glyph glyph-name="uniB09A" unicode="&#xb09a;" 
d="M455 372v69h-270v303h-75v-304q0 -28 20.5 -48t48.5 -20h276zM850 526v69h-135v170h-75v-608h-405v-69h156v-283h74v283h175v-283h75v352v369h135z" />
    <glyph glyph-name="uniB09C" unicode="&#xb09c;" 
d="M850 526v69h-135v170h-75v-620h75v381h135zM455 372v69h-270v303h-75v-304q0 -28 20.5 -48t48.5 -20h276zM725 -195v69h-343v242h-75v-243q0 -28 20.5 -48t48.5 -20h349z" />
    <glyph glyph-name="uniB09F" unicode="&#xb09f;" 
d="M850 526v69h-135v170h-75v-608h-333v-284q0 -28 20.5 -48t48.5 -20h349v69h-343v214h333v69v369h135zM455 372v69h-270v303h-75v-304q0 -28 20.5 -48t48.5 -20h276z" />
    <glyph glyph-name="uniB0A0" unicode="&#xb0a0;" 
d="M850 526v69h-135v170h-75v-597h-333v-64h333v-97h-333v-154q0 -28 20.5 -48t48.5 -20h349v64h-343v98h333v221v358h135zM455 372v69h-270v303h-75v-304q0 -28 20.5 -48t48.5 -20h276z" />
    <glyph glyph-name="uniB0A1" unicode="&#xb0a1;" 
d="M455 372v69h-270v303h-75v-304q0 -28 20.5 -48t48.5 -20h276zM850 526v69h-135v170h-75v-597h-187h-239v-64h177v-92h-177v-149q0 -28 20.5 -48t48.5 -20h193v64h-187v93h176v147h175v-304h75v373v358h135z" />
    <glyph glyph-name="uniB0A2" unicode="&#xb0a2;" 
d="M850 526v69h-135v170h-75v-597h-177v-305q0 -28 20.5 -48t48.5 -20h114q29 0 49 20t20 48v305v358h135zM640 -136h-102v235h102v-235zM455 372v69h-270v303h-75v-304q0 -28 20.5 -48t48.5 -20h276zM403 -205v64h-166v93h156v216h-231v-64h156v-92h-156v-149
q0 -28 20.5 -48t48.5 -20h172z" />
    <glyph glyph-name="uniB0A8" unicode="&#xb0a8;" 
d="M850 526v69h-135v170h-75v-608h-333v-284q0 -28 20.5 -48t48.5 -20h270q29 0 49 20t20 48v284v369h135zM640 -126h-258v214h258v-214zM455 372v69h-270v303h-75v-304q0 -28 20.5 -48t48.5 -20h276z" />
    <glyph glyph-name="uniB0A9" unicode="&#xb0a9;" 
d="M850 526v69h-135v170h-75v-620v-80h-258v92h-75v-289q0 -28 20.5 -48t48.5 -20h270q29 0 49 20t20 48v289v369h135zM640 -131h-258v127h258v-127zM455 372v69h-270v303h-75v-304q0 -28 20.5 -48t48.5 -20h276z" />
    <glyph glyph-name="uniB0AB" unicode="&#xb0ab;" 
d="M850 526v69h-135v170h-75v-620h75v381h135zM455 372v69h-270v303h-75v-304q0 -28 20.5 -48t48.5 -20h276zM741 -154l-251 293l-250 -293l58 -45l192 228l193 -228z" />
    <glyph glyph-name="uniB0AC" unicode="&#xb0ac;" 
d="M850 526v69h-135v170h-75v-620h75v381h135zM455 372v69h-270v303h-75v-304q0 -28 20.5 -48t48.5 -20h276zM742 -173l-156 315l-127 -207l-125 207l-156 -315l64 -28l98 198l119 -180l121 180l97 -198z" />
    <glyph glyph-name="uniB0AD" unicode="&#xb0ad;" 
d="M850 526v69h-135v170h-75v-652q-37 20 -64 28t-53 8q-39 0 -74 -14.5t-61.5 -39t-42 -58t-15.5 -70.5t15.5 -70t41.5 -58t61.5 -39.5t74.5 -14.5q40 0 75 15t61 40t41 58t15 69v559h135zM640 -33q0 -26 -9.5 -47t-26 -36t-37.5 -23.5t-44 -8.5q-24 0 -45.5 8.5
t-37.5 23.5t-25.5 36t-9.5 47q0 25 9.5 46.5t25.5 37t37.5 24t45.5 8.5q22 0 43.5 -8.5t37.5 -23.5t26 -36.5t10 -47.5zM455 372v69h-270v303h-75v-304q0 -28 20.5 -48t48.5 -20h276z" />
    <glyph glyph-name="uniB0AE" unicode="&#xb0ae;" 
d="M850 526v69h-135v170h-75v-608h-333v-69h163l-203 -243l56 -44l188 226l188 -226l57 44l-204 243h163v69v369h135zM455 372v69h-270v303h-75v-304q0 -28 20.5 -48t48.5 -20h276z" />
    <glyph glyph-name="uniB0AF" unicode="&#xb0af;" 
d="M850 526v69h-135v170h-75v-628h-91v82h-75v-82h-167v-69h166l-206 -217l53 -50l191 206l191 -206l54 50l-207 217h166v69v389h135zM455 372v69h-270v303h-75v-304q0 -28 20.5 -48t48.5 -20h276z" />
    <glyph glyph-name="uniB0B1" unicode="&#xb0b1;" 
d="M850 526v69h-135v170h-75v-608h-333v-294q0 -28 20.5 -48t48.5 -20h339v64h-333v87h322v61h-322v87h333v63v369h135zM455 372v69h-270v303h-75v-304q0 -28 20.5 -48t48.5 -20h276z" />
    <glyph glyph-name="uniB0B3" unicode="&#xb0b3;" 
d="M455 372v69h-270v303h-75v-304q0 -28 20.5 -48t48.5 -20h276zM850 526v69h-135v170h-75v-628h-128v82h-75v-82h-202v-69h106q-21 -22 -33.5 -51.5t-12.5 -61.5q0 -35 14.5 -66t39 -54t57.5 -36.5t69 -13.5t69 13.5t57.5 36.5t39 54t14.5 66q0 32 -12.5 61.5t-34.5 51.5
h107v69v389h135zM580 -45q0 -23 -8.5 -41.5t-22.5 -32.5t-33.5 -21.5t-40.5 -7.5t-40.5 7.5t-33.5 21.5t-22.5 32.5t-8.5 41.5q0 22 8.5 41t22.5 33t33.5 21.5t40.5 7.5t40.5 -7.5t33.5 -21.5t22.5 -33t8.5 -41z" />
    <glyph glyph-name="uniB0B4" unicode="&#xb0b4;" 
d="M770 35v730h-75v-192h-110v192h-73v-730h73v468h110v-468h75zM394 326v70h-209v348h-75v-349q0 -28 20.5 -48.5t48.5 -20.5h215z" />
    <glyph glyph-name="uniB0B5" unicode="&#xb0b5;" 
d="M770 -195v352v608h-75v-170h-110v170h-73v-496h73v257h110v-369h-345v-69h345v-283h75zM394 372v69h-209v303h-75v-304q0 -28 20.5 -48t48.5 -20h215z" />
    <glyph glyph-name="uniB0B8" unicode="&#xb0b8;" 
d="M770 145v620h-76v-170h-109v170h-73v-620h73v381h109v-381h76zM394 372v69h-209v303h-75v-304q0 -28 20.5 -48t48.5 -20h215zM780 -195v69h-344v242h-76v-243q0 -28 20.5 -48t48.5 -20h351z" />
    <glyph glyph-name="uniB0BC" unicode="&#xb0bc;" 
d="M780 -215v64h-344v98h334v221v597h-76v-170h-109v170h-73v-496h73v257h109v-358h-334v-64h334v-97h-334v-154q0 -28 20.5 -48t48.5 -20h351zM394 372v69h-209v303h-75v-304q0 -28 20.5 -48t48.5 -20h215z" />
    <glyph glyph-name="uniB0C4" unicode="&#xb0c4;" 
d="M770 -127v284v608h-75v-170h-110v170h-73v-496h73v257h110v-369h-334v-284q0 -28 20.5 -48t48.5 -20h271q29 0 49 20t20 48zM695 -126h-259v214h259v-214zM394 372v69h-209v303h-75v-304q0 -28 20.5 -48t48.5 -20h215z" />
    <glyph glyph-name="uniB0C5" unicode="&#xb0c5;" 
d="M770 -132v289v608h-75v-170h-110v170h-73v-496h73v257h110v-381v-80h-259v92h-75v-289q0 -28 20.5 -48t48.5 -20h271q29 0 49 20t20 48zM695 -131h-259v127h259v-127zM394 372v69h-209v303h-75v-304q0 -28 20.5 -48t48.5 -20h215z" />
    <glyph glyph-name="uniB0C7" unicode="&#xb0c7;" 
d="M769 145v620h-75v-170h-110v170h-73v-496h73v257h110v-381h75zM393 372v69h-208v303h-75v-304q0 -28 20.5 -48t48.5 -20h214zM795 -154l-251 293l-252 -293l59 -45l193 228l192 -228z" />
    <glyph glyph-name="uniB0C8" unicode="&#xb0c8;" 
d="M769 145v620h-75v-170h-110v170h-73v-496h73v257h110v-381h75zM393 372v69h-208v303h-75v-304q0 -28 20.5 -48t48.5 -20h214zM796 -173l-157 315l-127 -207l-126 207l-156 -315l65 -28l98 198l119 -180l121 180l98 -198z" />
    <glyph glyph-name="uniB0C9" unicode="&#xb0c9;" 
d="M770 -33v798h-75v-170h-110v170h-73v-496h73v257h110v-413q-37 20 -64.5 28t-53.5 8q-39 0 -74 -14t-61.5 -38.5t-42 -58t-15.5 -71.5q0 -37 15.5 -70t41.5 -58t61.5 -39.5t74.5 -14.5q40 0 75 15t61 40t41.5 58t15.5 69zM695 -33q0 -26 -9.5 -47t-25.5 -36t-37.5 -23.5
t-45.5 -8.5t-45.5 8.5t-37.5 23.5t-25.5 36t-9.5 47q0 25 9.5 46.5t25.5 37t37.5 24t45.5 8.5t45.5 -8.5t37.5 -24t25.5 -37t9.5 -46.5zM394 372v69h-209v303h-75v-304q0 -28 20.5 -48t48.5 -20h215z" />
    <glyph glyph-name="uniB0D0" unicode="&#xb0d0;" 
d="M850 404v70h-135v117h135v70h-135v104h-75v-730h75v369h135zM455 326v78h-270v340h-75v-349q0 -28 20.5 -48.5t48.5 -20.5h276z" />
    <glyph glyph-name="uniB0D1" unicode="&#xb0d1;" 
d="M850 438v69h-135v107h135v69h-135v82h-75v-608h-343v-69h343v-283h75v352v281h135zM455 372v66h-270v306h-75v-304q0 -28 20.5 -48t48.5 -20h276z" />
    <glyph glyph-name="uniB0D4" unicode="&#xb0d4;" 
d="M850 438v69h-135v107h135v69h-135v82h-75v-620h75v293h135zM455 372v66h-270v306h-75v-304q0 -28 20.5 -48t48.5 -20h276zM725 -195v69h-343v242h-75v-243q0 -28 20.5 -48t48.5 -20h349z" />
    <glyph glyph-name="uniB0D8" unicode="&#xb0d8;" 
d="M850 439v69h-135v106h135v69h-135v82h-75v-597h-333v-64h333v-97h-333v-154q0 -28 20.5 -48t48.5 -20h349v64h-343v98h333v221v271h135zM455 372v67h-270v305h-75v-304q0 -28 20.5 -48t48.5 -20h276z" />
    <glyph glyph-name="uniB0E0" unicode="&#xb0e0;" 
d="M850 438v69h-135v107h135v69h-135v82h-75v-608h-333v-284q0 -28 20.5 -48t48.5 -20h270q29 0 49 20t20 48v284v281h135zM640 -126h-258v214h258v-214zM455 372v69h-270v303h-75v-304q0 -28 20.5 -48t48.5 -20h276z" />
    <glyph glyph-name="uniB0E5" unicode="&#xb0e5;" 
d="M850 439v69h-135v106h135v69h-135v82h-75v-652q-37 20 -64 28t-53 8q-39 0 -74 -14.5t-61.5 -39t-42 -58t-15.5 -70.5t15.5 -70t41.5 -58t61.5 -39.5t74.5 -14.5q40 0 75 15t61 40t41 58t15 69v472h135zM640 -33q0 -26 -9.5 -47t-26 -36t-37.5 -23.5t-44 -8.5
q-24 0 -45.5 8.5t-37.5 23.5t-25.5 36t-9.5 47q0 25 9.5 46.5t25.5 37t37.5 24t45.5 8.5q22 0 43.5 -8.5t37.5 -23.5t26 -36.5t10 -47.5zM455 372v69h-270v303h-75v-304q0 -28 20.5 -48t48.5 -20h276z" />
    <glyph glyph-name="uniB108" unicode="&#xb108;" 
d="M740 35v730h-75v-151h-210v-69h210v-510h75zM478 326v70h-273v348h-75v-349q0 -28 20.5 -48.5t48.5 -20.5h279z" />
    <glyph glyph-name="uniB109" unicode="&#xb109;" 
d="M478 372v69h-273v303h-75v-304q0 -28 20.5 -48t48.5 -20h279zM740 -195v352v608h-75v-129h-210v-69h210v-410h-346v-69h346v-283h75z" />
    <glyph glyph-name="uniB10B" unicode="&#xb10b;" 
d="M738 145v620h-75v-129h-209v-69h209v-422h75zM477 372v69h-272v303h-75v-304q0 -28 20.5 -48t48.5 -20h278zM784 -161l-152 243l-151 -243l61 -38l90 146l91 -146zM456 -195v352h-232v-69h157v-283h75z" />
    <glyph glyph-name="uniB10C" unicode="&#xb10c;" 
d="M740 145v620h-76v-129h-209v-69h209v-422h76zM478 372v69h-273v303h-75v-304q0 -28 20.5 -48t48.5 -20h279zM750 -195v69h-346v242h-75v-243q0 -28 20.5 -48t48.5 -20h352z" />
    <glyph glyph-name="uniB110" unicode="&#xb110;" 
d="M478 372v69h-273v303h-75v-304q0 -28 20.5 -48t48.5 -20h279zM750 -215v64h-346v98h336v221v597h-76v-129h-209v-69h209v-399h-335v-64h335v-97h-335v-154q0 -28 20.5 -48t48.5 -20h352z" />
    <glyph glyph-name="uniB112" unicode="&#xb112;" 
d="M740 -137v305v597h-75v-129h-210v-69h210v-399h-179v-305q0 -28 21 -48t49 -20h115q29 0 49 20t20 48zM665 -136h-103v235h103v-235zM478 372v69h-273v303h-75v-304q0 -28 20.5 -48t48.5 -20h279zM426 -205v64h-168v93h157v216h-233v-64h158v-92h-158v-149q0 -28 21 -48
t49 -20h174z" />
    <glyph glyph-name="uniB113" unicode="&#xb113;" 
d="M740 -137v305v597h-75v-129h-210v-69h210v-422v-80h-103v103h-76v-305q0 -28 21 -48t49 -20h115q29 0 49 20t20 48zM665 -136h-103v132h103v-132zM478 372v69h-273v303h-75v-304q0 -28 20.5 -48t48.5 -20h279zM426 -205v64h-168v93h157v216h-233v-64h158v-92h-158v-149
q0 -28 21 -48t49 -20h174z" />
    <glyph glyph-name="uniB118" unicode="&#xb118;" 
d="M478 372v69h-273v303h-75v-304q0 -28 20.5 -48t48.5 -20h279zM740 -127v284v608h-75v-129h-210v-69h210v-410h-336v-284q0 -28 20.5 -48t48.5 -20h273q29 0 49 20t20 48zM665 -126h-260v214h260v-214z" />
    <glyph glyph-name="uniB119" unicode="&#xb119;" 
d="M478 372v69h-273v303h-75v-304q0 -28 20.5 -48t48.5 -20h279zM740 -132v289v608h-75v-129h-210v-69h210v-422v-80h-260v92h-76v-289q0 -28 20.5 -48t48.5 -20h273q29 0 49 20t20 48zM665 -131h-260v127h260v-127z" />
    <glyph glyph-name="uniB11B" unicode="&#xb11b;" 
d="M739 145v620h-76v-129h-209v-69h209v-422h76zM477 372v69h-272v303h-75v-304q0 -28 20.5 -48t48.5 -20h278zM765 -154l-252 293l-252 -293l58 -45l194 228l193 -228z" />
    <glyph glyph-name="uniB11C" unicode="&#xb11c;" 
d="M739 145v620h-76v-129h-209v-69h209v-422h76zM477 372v69h-272v303h-75v-304q0 -28 20.5 -48t48.5 -20h278zM766 -173l-157 315l-128 -207l-126 207l-157 -315l65 -28l98 198l120 -180l121 180l99 -198z" />
    <glyph glyph-name="uniB11D" unicode="&#xb11d;" 
d="M478 372v69h-273v303h-75v-304q0 -28 20.5 -48t48.5 -20h279zM740 -33v798h-75v-129h-210v-69h210v-454q-38 20 -65.5 28t-53.5 8q-39 0 -74 -14t-62 -39t-42.5 -58t-15.5 -71q0 -37 15.5 -70t42 -58t61.5 -39.5t75 -14.5q39 0 74.5 14.5t62 39.5t42 58t15.5 70zM665 -33
q0 -26 -9.5 -47t-26 -36t-38 -23.5t-45.5 -8.5t-45.5 8.5t-37.5 23.5t-25.5 36t-9.5 47q0 25 9.5 46.5t25.5 37t37.5 24t45.5 8.5t45.5 -8.5t38 -24t26 -37t9.5 -46.5z" />
    <glyph glyph-name="uniB123" unicode="&#xb123;" 
d="M478 372v69h-273v303h-75v-304q0 -28 20.5 -48t48.5 -20h279zM740 68v69v628h-75v-129h-210v-69h210v-430h-129v82h-76v-82h-204v-69h107q-22 -22 -34 -51.5t-12 -61.5q0 -35 14.5 -66t39 -54t57.5 -36.5t70 -13.5q36 0 69 13.5t58 36.5t39.5 54t14.5 66q0 32 -12 61.5
t-34 51.5h107zM604 -45q0 -23 -8.5 -41.5t-22.5 -32.5t-33.5 -21.5t-41.5 -7.5q-21 0 -40.5 7.5t-34 21.5t-23 32.5t-8.5 41.5q0 22 8.5 41t23 33t34 21.5t40.5 7.5q22 0 41.5 -7.5t33.5 -21.5t22.5 -33t8.5 -41z" />
    <glyph glyph-name="uniB124" unicode="&#xb124;" 
d="M770 35v730h-75v-730h75zM603 35v730h-73v-151h-159v-69h159v-510h73zM394 326v70h-209v348h-75v-349q0 -28 20.5 -48.5t48.5 -20.5h215z" />
    <glyph glyph-name="uniB125" unicode="&#xb125;" 
d="M603 269v496h-73v-129h-159v-69h159v-298h73zM770 -195v352v608h-75v-608h-345v-69h345v-283h75zM394 372v69h-209v303h-75v-304q0 -28 20.5 -48t48.5 -20h215z" />
    <glyph glyph-name="uniB128" unicode="&#xb128;" 
d="M770 145v620h-76v-620h76zM603 145v620h-73v-129h-159v-69h159v-422h73zM394 372v69h-209v303h-75v-304q0 -28 20.5 -48t48.5 -20h215zM780 -195v69h-344v242h-76v-243q0 -28 20.5 -48t48.5 -20h351z" />
    <glyph glyph-name="uniB12C" unicode="&#xb12c;" 
d="M603 269v496h-73v-129h-159v-69h159v-298h73zM780 -215v64h-344v98h334v221v597h-76v-597h-334v-64h334v-97h-334v-154q0 -28 20.5 -48t48.5 -20h351zM394 372v69h-209v303h-75v-304q0 -28 20.5 -48t48.5 -20h215z" />
    <glyph glyph-name="uniB134" unicode="&#xb134;" 
d="M603 269v496h-73v-129h-159v-69h159v-298h73zM770 -127v284v608h-75v-608h-334v-284q0 -28 20.5 -48t48.5 -20h271q29 0 49 20t20 48zM695 -126h-259v214h259v-214zM394 372v69h-209v303h-75v-304q0 -28 20.5 -48t48.5 -20h215z" />
    <glyph glyph-name="uniB135" unicode="&#xb135;" 
d="M603 269v496h-73v-129h-159v-69h159v-298h73zM770 -132v289v608h-75v-620v-80h-259v92h-75v-289q0 -28 20.5 -48t48.5 -20h271q29 0 49 20t20 48zM695 -131h-259v127h259v-127zM394 372v69h-209v303h-75v-304q0 -28 20.5 -48t48.5 -20h215z" />
    <glyph glyph-name="uniB137" unicode="&#xb137;" 
d="M769 145v620h-75v-620h75zM602 269v496h-73v-129h-158v-69h158v-298h73zM393 372v69h-208v303h-75v-304q0 -28 20.5 -48t48.5 -20h214zM795 -154l-251 293l-252 -293l59 -45l193 228l192 -228z" />
    <glyph glyph-name="uniB138" unicode="&#xb138;" 
d="M769 145v620h-75v-620h75zM602 269v496h-73v-129h-158v-69h158v-298h73zM393 372v69h-208v303h-75v-304q0 -28 20.5 -48t48.5 -20h214zM796 -173l-157 315l-127 -207l-126 207l-156 -315l65 -28l98 198l119 -180l121 180l98 -198z" />
    <glyph glyph-name="uniB139" unicode="&#xb139;" 
d="M603 269v496h-73v-129h-159v-69h159v-298h73zM770 -33v798h-75v-652q-37 20 -64.5 28t-53.5 8q-39 0 -74 -14t-61.5 -38.5t-42 -58t-15.5 -71.5q0 -37 15.5 -70t41.5 -58t61.5 -39.5t74.5 -14.5q40 0 75 15t61 40t41.5 58t15.5 69zM695 -33q0 -26 -9.5 -47t-25.5 -36
t-37.5 -23.5t-45.5 -8.5t-45.5 8.5t-37.5 23.5t-25.5 36t-9.5 47q0 25 9.5 46.5t25.5 37t37.5 24t45.5 8.5t45.5 -8.5t37.5 -24t25.5 -37t9.5 -46.5zM394 372v69h-209v303h-75v-304q0 -28 20.5 -48t48.5 -20h215z" />
    <glyph glyph-name="uniB140" unicode="&#xb140;" 
d="M740 35v730h-75v-83h-210v-70h210v-97h-210v-69h210v-411h75zM478 316v69h-273v359h-75v-360q0 -28 20.5 -48t48.5 -20h279z" />
    <glyph glyph-name="uniB141" unicode="&#xb141;" 
d="M478 361v69h-273v314h-75v-315q0 -28 20.5 -48t48.5 -20h279zM740 -195v352v608h-75v-72h-210v-69h210v-96h-210v-69h210v-302h-346v-69h346v-283h75z" />
    <glyph glyph-name="uniB144" unicode="&#xb144;" 
d="M740 145v620h-76v-72h-209v-69h209v-96h-209v-69h209v-314h76zM478 361v69h-273v314h-75v-315q0 -28 20.5 -48t48.5 -20h279zM750 -195v69h-346v242h-75v-243q0 -28 20.5 -48t48.5 -20h352z" />
    <glyph glyph-name="uniB148" unicode="&#xb148;" 
d="M478 361v69h-273v314h-75v-315q0 -28 20.5 -48t48.5 -20h279zM750 -215v64h-346v98h336v221v597h-76v-72h-209v-69h209v-96h-209v-69h209v-291h-335v-64h335v-97h-335v-154q0 -28 20.5 -48t48.5 -20h352z" />
    <glyph glyph-name="uniB150" unicode="&#xb150;" 
d="M478 361v69h-273v314h-75v-315q0 -28 20.5 -48t48.5 -20h279zM740 -127v284v608h-75v-72h-210v-69h210v-96h-210v-69h210v-302h-336v-284q0 -28 20.5 -48t48.5 -20h273q29 0 49 20t20 48zM665 -126h-260v214h260v-214z" />
    <glyph glyph-name="uniB151" unicode="&#xb151;" 
d="M478 361v69h-273v314h-75v-315q0 -28 20.5 -48t48.5 -20h279zM740 -132v289v608h-75v-72h-210v-69h210v-96h-210v-69h210v-314v-80h-260v92h-76v-289q0 -28 20.5 -48t48.5 -20h273q29 0 49 20t20 48zM665 -131h-260v127h260v-127z" />
    <glyph glyph-name="uniB154" unicode="&#xb154;" 
d="M739 145v620h-76v-72h-209v-69h209v-96h-209v-69h209v-314h76zM477 361v69h-272v314h-75v-315q0 -28 20.5 -48t48.5 -20h278zM766 -173l-157 315l-128 -207l-126 207l-157 -315l65 -28l98 198l120 -180l121 180l99 -198z" />
    <glyph glyph-name="uniB155" unicode="&#xb155;" 
d="M478 361v69h-273v314h-75v-315q0 -28 20.5 -48t48.5 -20h279zM740 -33v798h-75v-72h-210v-69h210v-96h-210v-69h210v-346q-38 20 -65.5 28t-53.5 8q-39 0 -74 -14t-62 -39t-42.5 -58t-15.5 -71q0 -37 15.5 -70t42 -58t61.5 -39.5t75 -14.5q39 0 74.5 14.5t62 39.5t42 58
t15.5 70zM665 -33q0 -26 -9.5 -47t-26 -36t-38 -23.5t-45.5 -8.5t-45.5 8.5t-37.5 23.5t-25.5 36t-9.5 47q0 25 9.5 46.5t25.5 37t37.5 24t45.5 8.5t45.5 -8.5t38 -24t26 -37t9.5 -46.5z" />
    <glyph glyph-name="uniB158" unicode="&#xb158;" 
d="M478 361v69h-273v314h-75v-315q0 -28 20.5 -48t48.5 -20h279zM740 -195v352v608h-75v-72h-210v-69h210v-96h-210v-69h210v-302h-346v-69h346v-106h-336v-69h336v-108h75z" />
    <glyph glyph-name="uniB15C" unicode="&#xb15c;" 
d="M770 35v730h-75v-730h75zM603 35v730h-73v-83h-148v-70h148v-97h-148v-69h148v-411h73zM394 316v69h-209v359h-75v-360q0 -28 20.5 -48t48.5 -20h215z" />
    <glyph glyph-name="uniB160" unicode="&#xb160;" 
d="M770 145v620h-76v-620h76zM603 145v620h-73v-72h-149v-69h149v-96h-149v-69h149v-314h73zM394 361v69h-209v314h-75v-315q0 -28 20.5 -48t48.5 -20h215zM780 -195v69h-344v242h-76v-243q0 -28 20.5 -48t48.5 -20h351z" />
    <glyph glyph-name="uniB178" unicode="&#xb178;" 
d="M860 140v70h-373v187h176v70h-341v278h-75v-279q0 -28 20 -48.5t48 -20.5h98v-187h-373v-70h820z" />
    <glyph glyph-name="uniB179" unicode="&#xb179;" 
d="M860 233v69h-373v132h176v69h-341v242h-75v-243q0 -28 20 -48t48 -20h98v-132h-373v-69h820zM653 -195v301h-416v-69h341v-232h75z" />
    <glyph glyph-name="uniB17C" unicode="&#xb17c;" 
d="M860 212v69h-373v153h176v69h-341v242h-75v-243q0 -28 20 -48t48 -20h98v-153h-373v-69h820zM663 -195v69h-341v201h-75v-202q0 -28 20 -48t48 -20h348z" />
    <glyph glyph-name="uniB180" unicode="&#xb180;" 
d="M860 254v69h-373v121h176v69h-341v232h-75v-233q0 -28 20 -48t48 -20h98v-121h-373v-69h820zM663 -215v64h-341v93h331v216h-406v-64h331v-92h-331v-149q0 -28 20 -48t48 -20h348z" />
    <glyph glyph-name="uniB182" unicode="&#xb182;" 
d="M860 254v69h-373v121h176v69h-341v232h-75v-233q0 -28 20 -48t48 -20h98v-121h-373v-69h820zM725 -147v305h-250v-305q0 -28 20 -48t48 -20h114q29 0 48.5 20t19.5 48zM651 -146h-102v235h102v-235zM415 -215v64h-166v93h155v216h-229v-64h155v-92h-155v-149
q0 -28 20 -48t48 -20h172z" />
    <glyph glyph-name="uniB188" unicode="&#xb188;" 
d="M860 243v69h-373v122h176v69h-341v242h-75v-243q0 -28 20 -48t48 -20h98v-122h-373v-69h820zM653 -127v254h-406v-254q0 -28 20 -48t48 -20h270q28 0 48 20t20 48zM578 -126h-256v184h256v-184z" />
    <glyph glyph-name="uniB189" unicode="&#xb189;" 
d="M860 233v69h-373v132h176v69h-341v242h-75v-243q0 -28 20 -48t48 -20h98v-132h-373v-69h820zM653 -137v269h-75v-82h-256v82h-75v-269q0 -28 20 -48t48 -20h270q28 0 48 20t20 48zM578 -136h-256v116h256v-116z" />
    <glyph glyph-name="uniB18B" unicode="&#xb18b;" 
d="M860 233v69h-373v132h176v69h-341v242h-75v-243q0 -28 20 -48t48 -20h98v-132h-373v-69h820zM699 -154l-249 293l-249 -293l57 -45l192 228l192 -228z" />
    <glyph glyph-name="uniB18D" unicode="&#xb18d;" 
d="M860 233v69h-373v132h176v69h-341v242h-75v-243q0 -28 20 -48t48 -20h98v-132h-373v-69h820zM642 -42q0 35 -15 66.5t-41.5 55t-61.5 37.5t-74 14t-74 -13.5t-61 -37t-41.5 -55t-15.5 -67.5t15.5 -67.5t42 -55t61.5 -37t73 -13.5q39 0 74 14t61 37.5t41.5 55t15.5 66.5z
M567 -42q0 -24 -9.5 -43.5t-25.5 -33.5t-37 -21.5t-45 -7.5q-22 0 -43 7.5t-37.5 21.5t-26.5 33.5t-10 43.5t10 43.5t26.5 33.5t37.5 21.5t43 7.5q24 0 45 -7.5t37 -21.5t25.5 -33.5t9.5 -43.5z" />
    <glyph glyph-name="uniB192" unicode="&#xb192;" 
d="M860 233v69h-373v132h176v69h-341v242h-75v-243q0 -28 20 -48t48 -20h98v-132h-373v-69h820zM679 -205v69h-78v194h73v69h-448v-69h73v-194h-78v-69h458zM527 -136h-154v194h154v-194z" />
    <glyph glyph-name="uniB193" unicode="&#xb193;" 
d="M860 243v69h-373v122h176v69h-341v242h-75v-243q0 -28 20 -48t48 -20h98v-122h-373v-69h820zM689 27v69h-202v72h-74v-72h-202v-69h96q-15 -19 -23.5 -41.5t-8.5 -47.5q0 -31 14 -58.5t37.5 -48.5t55.5 -33.5t68 -12.5t68 12.5t55.5 33.5t37.5 48.5t14 58.5
q0 25 -8.5 47.5t-23.5 41.5h96zM550 -62q0 -19 -8 -35t-22 -27t-32 -17.5t-38 -6.5t-38 6.5t-32 17.5t-22 27t-8 35t8 35.5t22 27.5t32 17.5t38 6.5t38 -6.5t32 -17.5t22 -27.5t8 -35.5z" />
    <glyph glyph-name="uniB194" unicode="&#xb194;" 
d="M870 493v69h-134v203h-75v-510h-303v165h140v69h-279v255h-75v-256q0 -28 20.5 -48t48.5 -20h71v-165h-274v-69h651v-151h75v458h134z" />
    <glyph glyph-name="uniB198" unicode="&#xb198;" 
d="M870 526v69h-134v170h-75v-474h-303v153h140v69h-279v231h-75v-232q0 -28 20.5 -48t48.5 -20h71v-153h-274v-69h651v-108h75v412h134zM746 -195l-10 69h-331v201h-75v-202q0 -28 20.5 -48t48.5 -20h347z" />
    <glyph glyph-name="uniB19C" unicode="&#xb19c;" 
d="M870 526v69h-134v170h-75v-453h-303v132h140v69h-279v231h-75v-232q0 -28 20.5 -48t48.5 -20h71v-132h-274v-69h651v-96h-331v-63h331v-87h-331v-144q0 -28 20.5 -48t48.5 -20h347v64h-341v87h331v211v379h134z" />
    <glyph glyph-name="uniB1A8" unicode="&#xb1a8;" 
d="M870 526v69h-134v170h-75v-453h-303v132h140v69h-279v231h-75v-232q0 -28 20.5 -48t48.5 -20h71v-132h-274v-69h651v-129h75v412h134zM762 -183l-155 305l-126 -196l-124 196l-156 -305l65 -28l98 192l117 -174l119 174l98 -192z" />
    <glyph glyph-name="uniB1CC" unicode="&#xb1cc;" 
d="M760 35v730h-75v-510h-305v165h141v69h-281v255h-75v-256q0 -28 20.5 -48t48.5 -20h72v-165h-276v-69h655v-151h75z" />
    <glyph glyph-name="uniB1D0" unicode="&#xb1d0;" 
d="M760 114v651h-75v-474h-305v153h141v69h-281v231h-75v-232q0 -28 20.5 -48t48.5 -20h71v-153h-275v-69h655v-108h75zM770 -195v69h-343v201h-75v-202q0 -28 20.5 -48t48.5 -20h349z" />
    <glyph glyph-name="uniB1D4" unicode="&#xb1d4;" 
d="M770 -215v64h-343v87h333v211v618h-75v-453h-305v132h141v69h-281v231h-75v-232q0 -28 20.5 -48t48.5 -20h71v-132h-275v-69h655v-96h-333v-63h333v-87h-333v-144q0 -28 20.5 -48t48.5 -20h349z" />
    <glyph glyph-name="uniB1DC" unicode="&#xb1dc;" 
d="M760 -127v253v639h-75v-453h-305v132h141v69h-281v231h-75v-232q0 -28 20.5 -48t48.5 -20h72v-132h-276v-69h655v-117h-333v-253q0 -28 20.5 -48t48.5 -20h270q29 0 49 20t20 48zM685 -126h-258v183h258v-183z" />
    <glyph glyph-name="uniB1DD" unicode="&#xb1dd;" 
d="M760 -137v269v633h-75v-453h-305v132h141v69h-281v231h-75v-232q0 -28 20.5 -48t48.5 -20h72v-132h-276v-69h655v-129v-65h-258v83h-75v-269q0 -28 20.5 -48t48.5 -20h270q29 0 49 20t20 48zM685 -136h-258v116h258v-116z" />
    <glyph glyph-name="uniB1DF" unicode="&#xb1df;" 
d="M684 243v-129h75v651h-75v-453h-304v132h140v69h-280v231h-75v-232q0 -28 20 -48t48 -20h72v-132h-275v-69h654zM785 -154l-250 293l-251 -293l58 -45l193 228l192 -228z" />
    <glyph glyph-name="uniB1E8" unicode="&#xb1e8;" 
d="M384 210v187h132v-187h-132zM860 140v70h-269v187h72v70h-341v278h-75v-279q0 -27 18.5 -47t43.5 -22v-187h-269v-70h820z" />
    <glyph glyph-name="uniB1E9" unicode="&#xb1e9;" 
d="M384 434h132v-132h-132v132zM309 302h-269v-69h820v69h-269v132h72v69h-341v242h-75v-243q0 -27 18.5 -46.5t43.5 -21.5v-132zM653 -195v301h-416v-69h341v-232h75z" />
    <glyph glyph-name="uniB1EC" unicode="&#xb1ec;" 
d="M384 281v153h132v-153h-132zM860 212v69h-269v153h72v69h-341v242h-75v-243q0 -27 18.5 -46.5t43.5 -21.5v-153h-269v-69h820zM663 -195v69h-341v201h-75v-202q0 -28 20 -48t48 -20h348z" />
    <glyph glyph-name="uniB1F0" unicode="&#xb1f0;" 
d="M384 444h132v-121h-132v121zM309 323h-269v-69h820v69h-269v121h72v69h-341v232h-75v-233q0 -26 18.5 -45.5t43.5 -21.5v-122zM663 -215v64h-341v93h331v216h-406v-64h331v-92h-331v-149q0 -28 20 -48t48 -20h348z" />
    <glyph glyph-name="uniB1F9" unicode="&#xb1f9;" 
d="M384 434h132v-132h-132v132zM309 302h-269v-69h820v69h-269v132h72v69h-341v242h-75v-243q0 -26 18.5 -46t43.5 -22v-132zM653 -137v269h-75v-82h-256v82h-75v-269q0 -28 20 -48t48 -20h270q28 0 48 20t20 48zM578 -136h-256v116h256v-116z" />
    <glyph glyph-name="uniB1FB" unicode="&#xb1fb;" 
d="M384 434h132v-132h-132v132zM309 302h-269v-69h820v69h-269v132h72v69h-341v242h-75v-243q0 -26 18.5 -46t43.5 -22v-132zM699 -154l-249 293l-249 -293l57 -45l192 228l192 -228z" />
    <glyph glyph-name="uniB1FD" unicode="&#xb1fd;" 
d="M384 434h132v-132h-132v132zM309 302h-269v-69h820v69h-269v132h72v69h-341v242h-75v-243q0 -26 18.5 -46t43.5 -22v-132zM642 -42q0 35 -15 66.5t-41.5 55t-61.5 37.5t-74 14t-74 -13.5t-61 -37t-41.5 -55t-15.5 -67.5t15.5 -67.5t42 -55t61.5 -37t73 -13.5q39 0 74 14
t61 37.5t41.5 55t15.5 66.5zM567 -42q0 -24 -9.5 -43.5t-25.5 -33.5t-37 -21.5t-45 -7.5q-22 0 -43 7.5t-37.5 21.5t-26.5 33.5t-10 43.5t10 43.5t26.5 33.5t37.5 21.5t43 7.5q24 0 45 -7.5t37 -21.5t25.5 -33.5t9.5 -43.5z" />
    <glyph glyph-name="uniB204" unicode="&#xb204;" 
d="M663 411v69h-341v265h-75v-266q0 -28 20 -48t48 -20h348zM487 -15v213h373v69h-820v-69h373v-213h74z" />
    <glyph glyph-name="uniB205" unicode="&#xb205;" 
d="M663 434v69h-341v242h-75v-243q0 -28 20 -48t48 -20h348zM653 -195v301h-166v147h373v69h-820v-69h373v-147h-176v-69h341v-232h75z" />
    <glyph glyph-name="uniB208" unicode="&#xb208;" 
d="M663 434v69h-341v242h-75v-243q0 -28 20 -48t48 -20h348zM518 52v181h342v69h-820v-69h404v-181h74zM663 -195v69h-341v201h-75v-202q0 -28 20 -48t48 -20h348z" />
    <glyph glyph-name="uniB20B" unicode="&#xb20b;" 
d="M663 434v69h-341v242h-75v-243q0 -28 20 -48t48 -20h348zM663 -195v69h-341v184h331v69h-166v126h373v69h-820v-69h373v-126h-166v-254q0 -28 20 -48t48 -20h348z" />
    <glyph glyph-name="uniB20C" unicode="&#xb20c;" 
d="M663 444v69h-341v232h-75v-233q0 -28 20 -48t48 -20h348zM663 -215v64h-341v93h331v216h-166v116h373v69h-820v-69h373v-116h-166v-64h331v-92h-331v-149q0 -28 20 -48t48 -20h348z" />
    <glyph glyph-name="uniB214" unicode="&#xb214;" 
d="M663 434v69h-341v242h-75v-243q0 -28 20 -48t48 -20h348zM653 -127v254h-166v126h373v69h-820v-69h373v-126h-166v-254q0 -28 20 -48t48 -20h270q28 0 48 20t20 48zM578 -126h-256v184h256v-184z" />
    <glyph glyph-name="uniB215" unicode="&#xb215;" 
d="M663 434v69h-341v242h-75v-243q0 -28 20 -48t48 -20h348zM487 135v119h373v69h-820v-69h373v-119h74zM653 -137v272h-75v-85h-256v82h-75v-269q0 -28 20 -48t48 -20h270q28 0 48 20t20 48zM578 -136h-256v116h256v-116z" />
    <glyph glyph-name="uniB217" unicode="&#xb217;" 
d="M663 434v69h-341v242h-75v-243q0 -28 20 -48t48 -20h348zM699 -154l-212 250v158h373v69h-820v-69h373v-158l-212 -250l57 -45l192 228l192 -228z" />
    <glyph glyph-name="uniB219" unicode="&#xb219;" 
d="M663 434v69h-341v242h-75v-243q0 -28 20 -48t48 -20h348zM642 -42q0 30 -12 58.5t-32.5 51t-49 38.5t-61.5 22v126h373v69h-820v-69h373v-126q-32 -6 -60.5 -21.5t-49.5 -38t-33 -51t-12 -59.5q0 -36 15.5 -67.5t42 -55t61.5 -37t73 -13.5q39 0 74 14t61 37.5t41.5 55
t15.5 66.5zM567 -42q0 -24 -9.5 -43.5t-25.5 -33.5t-37 -21.5t-45 -7.5q-22 0 -43 7.5t-37.5 21.5t-26.5 33.5t-10 43.5t10 43.5t26.5 33.5t37.5 21.5t43 7.5q24 0 45 -7.5t37 -21.5t25.5 -33.5t9.5 -43.5z" />
    <glyph glyph-name="uniB220" unicode="&#xb220;" 
d="M760 35v730h-75v-548h-187v-68h187v-114h75zM521 472v69h-281v203h-75v-204q0 -28 20.5 -48t48.5 -20h287zM354 56v234h219v69h-543v-69h250v-234h74z" />
    <glyph glyph-name="uniB234" unicode="&#xb234;" 
d="M759 84v681h-75v-512h-187v-67h187v-102h75zM520 475v69h-280v200h-75v-201q0 -28 20 -48t48 -20h287zM354 176v139h218v69h-542v-69h249v-139h75zM785 -183l-154 283l-128 -182l-126 182l-154 -283l64 -28l97 182l119 -165l121 165l97 -182z" />
    <glyph glyph-name="uniB23C" unicode="&#xb23c;" 
d="M780 35v730h-75v-730h75zM614 149v616h-73v-548h-168v-68h241zM406 472v69h-218v203h-74v-204q0 -28 20 -48t48 -20h224zM282 56v234h166v69h-438v-69h197v-234h75z" />
    <glyph glyph-name="uniB258" unicode="&#xb258;" 
d="M521 472v69h-281v203h-75v-204q0 -28 20.5 -48t48.5 -20h287zM354 56v213h331v-234h75v730h-75v-426h-655v-70h250v-213h74z" />
    <glyph glyph-name="uniB25C" unicode="&#xb25c;" 
d="M521 475v69h-281v200h-75v-201q0 -28 20.5 -48t48.5 -20h287zM354 155v119h331v-191h75v682h-75v-422h-655v-69h249v-119h75zM770 -195v69h-343v201h-75v-202q0 -28 20.5 -48t48.5 -20h349z" />
    <glyph glyph-name="uniB260" unicode="&#xb260;" 
d="M521 475v69h-281v200h-75v-201q0 -28 20.5 -48t48.5 -20h287zM770 -215v64h-343v77h333v201v638h-75v-401h-655v-69h249v-119h75v119h331v-168h-333v-64h333v-76h-333v-134q0 -28 20.5 -48t48.5 -20h349z" />
    <glyph glyph-name="uniB268" unicode="&#xb268;" 
d="M521 475v69h-281v200h-75v-201q0 -28 20.5 -48t48.5 -20h287zM760 -127v233v659h-75v-402h-655v-69h250v-118h74v118h331v-188h-333v-233q0 -28 20.5 -48t48.5 -20h270q29 0 49 20t20 48zM685 -126h-258v163h258v-163z" />
    <glyph glyph-name="uniB269" unicode="&#xb269;" 
d="M521 475v69h-281v200h-75v-201q0 -28 20.5 -48t48.5 -20h287zM760 -137v248v654h-75v-402h-655v-69h250v-118h74v118h331v-211v-44h-258v72h-75v-248q0 -28 20.5 -48t48.5 -20h270q29 0 49 20t20 48zM685 -136h-258v106h258v-106z" />
    <glyph glyph-name="uniB274" unicode="&#xb274;" 
d="M663 411v69h-341v265h-75v-266q0 -28 20 -48t48 -20h348zM373 -15v213h154v-213h74v213h259v69h-820v-69h259v-213h74z" />
    <glyph glyph-name="uniB275" unicode="&#xb275;" 
d="M663 434v69h-341v242h-75v-243q0 -28 20 -48t48 -20h348zM384 106v147h132v-147h-132zM653 -195v301h-62v147h269v69h-820v-69h269v-147h-72v-69h341v-232h75z" />
    <glyph glyph-name="uniB27C" unicode="&#xb27c;" 
d="M663 444v69h-341v232h-75v-233q0 -28 20 -48t48 -20h348zM384 158v116h132v-116h-132zM663 -215v64h-341v93h331v216h-62v116h269v69h-820v-69h269v-116h-62v-64h331v-92h-331v-149q0 -28 20 -48t48 -20h348z" />
    <glyph glyph-name="uniB284" unicode="&#xb284;" 
d="M663 434v69h-341v242h-75v-243q0 -28 20 -48t48 -20h348zM384 127v126h132v-126h-132zM653 -127v254h-62v126h269v69h-820v-69h269v-126h-62v-254q0 -28 20 -48t48 -20h270q28 0 48 20t20 48zM578 -126h-256v184h256v-184z" />
    <glyph glyph-name="uniB285" unicode="&#xb285;" 
d="M663 434v69h-341v242h-75v-243q0 -28 20 -48t48 -20h348zM384 135v119h132v-119h75v119h269v69h-820v-69h269v-119h75zM653 -137v272h-75v-85h-256v82h-75v-269q0 -28 20 -48t48 -20h270q28 0 48 20t20 48zM578 -136h-256v116h256v-116z" />
    <glyph glyph-name="uniB289" unicode="&#xb289;" 
d="M663 434v69h-341v242h-75v-243q0 -28 20 -48t48 -20h348zM384 120v134h132v-134q-31 11 -66 11t-66 -11zM642 -42q0 34 -14 64t-37 53v179h269v69h-820v-69h269v-179q-23 -23 -37 -53t-14 -64q0 -36 15.5 -67.5t42 -55t61.5 -37t73 -13.5q39 0 74 14t61 37.5t41.5 55
t15.5 66.5zM567 -42q0 -24 -9.5 -43.5t-25.5 -33.5t-37 -21.5t-45 -7.5q-22 0 -43 7.5t-37.5 21.5t-26.5 33.5t-10 43.5t10 43.5t26.5 33.5t37.5 21.5t43 7.5q24 0 45 -7.5t37 -21.5t25.5 -33.5t9.5 -43.5z" />
    <glyph glyph-name="uniB290" unicode="&#xb290;" 
d="M663 397v70h-341v278h-75v-279q0 -28 20 -48.5t48 -20.5h348zM860 140v70h-820v-70h820z" />
    <glyph glyph-name="uniB291" unicode="&#xb291;" 
d="M663 434v69h-341v242h-75v-243q0 -28 20 -48t48 -20h348zM860 233v69h-820v-69h820zM653 -195v301h-416v-69h341v-232h75z" />
    <glyph glyph-name="uniB294" unicode="&#xb294;" 
d="M663 434v69h-341v242h-75v-243q0 -28 20 -48t48 -20h348zM860 212v69h-820v-69h820zM663 -195v69h-341v201h-75v-202q0 -28 20 -48t48 -20h348z" />
    <glyph glyph-name="uniB298" unicode="&#xb298;" 
d="M663 444v69h-341v232h-75v-233q0 -28 20 -48t48 -20h348zM860 264v69h-820v-69h820zM663 -215v64h-341v93h331v216h-406v-64h331v-92h-331v-149q0 -28 20 -48t48 -20h348z" />
    <glyph glyph-name="uniB299" unicode="&#xb299;" 
d="M663 444v69h-341v232h-75v-233q0 -28 20 -48t48 -20h348zM860 264v69h-820v-69h820zM461 -215v64h-186v93h176v147h174v-304h75v373h-261h-239v-64h176v-92h-176v-149q0 -28 20.5 -48t48.5 -20h192z" />
    <glyph glyph-name="uniB29A" unicode="&#xb29a;" 
d="M663 444v69h-341v232h-75v-233q0 -28 20 -48t48 -20h348zM860 264v69h-820v-69h820zM725 -147v305h-250v-305q0 -28 20 -48t48 -20h114q29 0 48.5 20t19.5 48zM651 -146h-102v235h102v-235zM415 -215v64h-166v93h155v216h-229v-64h155v-92h-155v-149q0 -28 20 -48t48 -20
h172z" />
    <glyph glyph-name="uniB2A0" unicode="&#xb2a0;" 
d="M663 434v69h-341v242h-75v-243q0 -28 20 -48t48 -20h348zM860 243v69h-820v-69h820zM653 -127v254h-406v-254q0 -28 20 -48t48 -20h270q28 0 48 20t20 48zM578 -126h-256v184h256v-184z" />
    <glyph glyph-name="uniB2A1" unicode="&#xb2a1;" 
d="M663 434v69h-341v242h-75v-243q0 -28 20 -48t48 -20h348zM860 243v69h-820v-69h820zM653 -137v269h-75v-82h-256v82h-75v-269q0 -28 20 -48t48 -20h270q28 0 48 20t20 48zM578 -136h-256v116h256v-116z" />
    <glyph glyph-name="uniB2A3" unicode="&#xb2a3;" 
d="M663 434v69h-341v242h-75v-243q0 -28 20 -48t48 -20h348zM860 233v69h-820v-69h820zM699 -154l-249 293l-249 -293l57 -45l192 228l192 -228z" />
    <glyph glyph-name="uniB2A5" unicode="&#xb2a5;" 
d="M663 434v69h-341v242h-75v-243q0 -28 20 -48t48 -20h348zM860 233v69h-820v-69h820zM642 -42q0 35 -15 66.5t-41.5 55t-61.5 37.5t-74 14t-74 -13.5t-61 -37t-41.5 -55t-15.5 -67.5t15.5 -67.5t42 -55t61.5 -37t73 -13.5q39 0 74 14t61 37.5t41.5 55t15.5 66.5zM567 -42
q0 -24 -9.5 -43.5t-25.5 -33.5t-37 -21.5t-45 -7.5q-22 0 -43 7.5t-37.5 21.5t-26.5 33.5t-10 43.5t10 43.5t26.5 33.5t37.5 21.5t43 7.5q24 0 45 -7.5t37 -21.5t25.5 -33.5t9.5 -43.5z" />
    <glyph glyph-name="uniB2A6" unicode="&#xb2a6;" 
d="M663 434v69h-341v242h-75v-243q0 -28 20 -48t48 -20h348zM860 243v69h-820v-69h820zM693 -149l-205 207h165v69h-406v-69h165l-205 -207l53 -50l190 194l190 -194z" />
    <glyph glyph-name="uniB2AA" unicode="&#xb2aa;" 
d="M663 434v69h-341v242h-75v-243q0 -28 20 -48t48 -20h348zM860 243v69h-820v-69h820zM373 -136v194h154v-194h-154zM679 -205v69h-78v194h73v69h-448v-69h73v-194h-78v-69h458z" />
    <glyph glyph-name="uniB2AC" unicode="&#xb2ac;" 
d="M521 420v69h-281v255h-75v-256q0 -28 20.5 -48t48.5 -20h287zM685 186v-151h75v730h-75v-510h-655v-69h655z" />
    <glyph glyph-name="uniB2B0" unicode="&#xb2b0;" 
d="M521 444v69h-281v231h-75v-232q0 -28 20.5 -48t48.5 -20h287zM685 222v-108h75v651h-75v-474h-655v-69h655zM770 -195v69h-343v201h-75v-202q0 -28 20.5 -48t48.5 -20h349z" />
    <glyph glyph-name="uniB2B4" unicode="&#xb2b4;" 
d="M521 444v69h-281v231h-75v-232q0 -28 20.5 -48t48.5 -20h287zM770 -215v64h-343v87h333v211v618h-75v-443h-655v-69h655v-106h-333v-63h333v-87h-333v-144q0 -28 20.5 -48t48.5 -20h349z" />
    <glyph glyph-name="uniB2C8" unicode="&#xb2c8;" 
d="M740 35v730h-75v-730h75zM478 326v70h-273v348h-75v-349q0 -28 20.5 -48.5t48.5 -20.5h279z" />
    <glyph glyph-name="uniB2C9" unicode="&#xb2c9;" 
d="M478 372v69h-273v303h-75v-304q0 -28 20.5 -48t48.5 -20h279zM740 -195v352v608h-75v-608h-346v-69h346v-283h75z" />
    <glyph glyph-name="uniB2CC" unicode="&#xb2cc;" 
d="M740 145v620h-76v-620h76zM478 372v69h-273v303h-75v-304q0 -28 20.5 -48t48.5 -20h279zM750 -195v69h-346v242h-75v-243q0 -28 20.5 -48t48.5 -20h352z" />
    <glyph glyph-name="uniB2D0" unicode="&#xb2d0;" 
d="M478 372v69h-273v303h-75v-304q0 -28 20.5 -48t48.5 -20h279zM750 -215v64h-346v98h336v221v597h-76v-597h-335v-64h335v-97h-335v-154q0 -28 20.5 -48t48.5 -20h352z" />
    <glyph glyph-name="uniB2D2" unicode="&#xb2d2;" 
d="M478 372v69h-273v303h-75v-304q0 -28 20.5 -48t48.5 -20h279zM740 -137v305v597h-75v-597h-179v-305q0 -28 21 -48t49 -20h115q29 0 49 20t20 48zM665 -136h-103v235h103v-235zM426 -205v64h-168v93h157v216h-233v-64h158v-92h-158v-149q0 -28 21 -48t49 -20h174z" />
    <glyph glyph-name="uniB2D8" unicode="&#xb2d8;" 
d="M478 372v69h-273v303h-75v-304q0 -28 20.5 -48t48.5 -20h279zM740 -127v284v608h-75v-608h-336v-284q0 -28 20.5 -48t48.5 -20h273q29 0 49 20t20 48zM665 -126h-260v214h260v-214z" />
    <glyph glyph-name="uniB2D9" unicode="&#xb2d9;" 
d="M478 372v69h-273v303h-75v-304q0 -28 20.5 -48t48.5 -20h279zM740 -132v289v608h-75v-620v-80h-260v92h-76v-289q0 -28 20.5 -48t48.5 -20h273q29 0 49 20t20 48zM665 -131h-260v127h260v-127z" />
    <glyph glyph-name="uniB2DB" unicode="&#xb2db;" 
d="M739 145v620h-76v-620h76zM477 372v69h-272v303h-75v-304q0 -28 20.5 -48t48.5 -20h278zM765 -154l-252 293l-252 -293l58 -45l194 228l193 -228z" />
    <glyph glyph-name="uniB2DD" unicode="&#xb2dd;" 
d="M478 372v69h-273v303h-75v-304q0 -28 20.5 -48t48.5 -20h279zM740 -33v798h-75v-652q-38 20 -65.5 28t-53.5 8q-39 0 -74 -14t-62 -39t-42.5 -58t-15.5 -71q0 -37 15.5 -70t42 -58t61.5 -39.5t75 -14.5q39 0 74.5 14.5t62 39.5t42 58t15.5 70zM665 -33q0 -26 -9.5 -47
t-26 -36t-38 -23.5t-45.5 -8.5t-45.5 8.5t-37.5 23.5t-25.5 36t-9.5 47q0 25 9.5 46.5t25.5 37t37.5 24t45.5 8.5t45.5 -8.5t38 -24t26 -37t9.5 -46.5z" />
    <glyph glyph-name="uniB2E2" unicode="&#xb2e2;" 
d="M478 372v69h-273v303h-75v-304q0 -28 20.5 -48t48.5 -20h279zM436 -126v214h155v-214h-155zM745 -195v69h-79v214h74v69v608h-76v-608h-377v-69h73v-214h-78v-69h463z" />
    <glyph glyph-name="uniB2E4" unicode="&#xb2e4;" 
d="M850 493v69h-135v203h-75v-730h75v458h135zM455 326v70h-280v279h270v69h-345v-349q0 -28 20.5 -48.5t48.5 -20.5h286z" />
    <glyph glyph-name="uniB2E5" unicode="&#xb2e5;" 
d="M455 372v69h-280v234h270v69h-345v-304q0 -28 20.5 -48t48.5 -20h286zM715 -195v352v369h135v69h-135v170h-75v-608h-343v-69h343v-283h75z" />
    <glyph glyph-name="uniB2E6" unicode="&#xb2e6;" 
d="M455 372v69h-280v234h270v69h-345v-304q0 -28 20.5 -48t48.5 -20h286zM715 -195v352v369h135v69h-135v170h-75v-608h-405v-69h156v-283h75v283h174v-283h75z" />
    <glyph glyph-name="uniB2E8" unicode="&#xb2e8;" 
d="M850 526v69h-135v170h-75v-620h75v381h135zM455 372v69h-280v234h270v69h-345v-304q0 -28 20.5 -48t48.5 -20h286zM725 -195v69h-342v242h-75v-243q0 -28 20 -48t48 -20h349z" />
    <glyph glyph-name="uniB2EB" unicode="&#xb2eb;" 
d="M455 372v69h-280v234h270v69h-345v-304q0 -28 20.5 -48t48.5 -20h286zM725 -195v69h-342v214h332v69v369h135v69h-135v170h-75v-608h-332v-284q0 -28 20 -48t48 -20h349z" />
    <glyph glyph-name="uniB2EC" unicode="&#xb2ec;" 
d="M455 372v69h-280v234h270v69h-345v-304q0 -28 20.5 -48t48.5 -20h286zM725 -215v64h-342v98h332v221v358h135v69h-135v170h-75v-597h-332v-64h332v-97h-332v-154q0 -28 20 -48t48 -20h349z" />
    <glyph glyph-name="uniB2ED" unicode="&#xb2ed;" 
d="M455 372v69h-280v234h270v69h-345v-304q0 -28 20.5 -48t48.5 -20h286zM476 -205v64h-187v93h177v147h174v-304h75v373v358h135v69h-135v170h-75v-597h-187h-239v-64h177v-92h-177v-149q0 -28 20.5 -48t48.5 -20h193z" />
    <glyph glyph-name="uniB2EE" unicode="&#xb2ee;" 
d="M455 372v69h-280v234h270v69h-345v-304q0 -28 20.5 -48t48.5 -20h286zM715 -137v305v358h135v69h-135v170h-75v-597h-176v-305q0 -28 20 -48t48 -20h114q29 0 49 20t20 48zM640 -136h-102v235h102v-235zM403 -205v64h-166v93h156v216h-231v-64h156v-92h-156v-149
q0 -28 20.5 -48t48.5 -20h172z" />
    <glyph glyph-name="uniB2EF" unicode="&#xb2ef;" 
d="M455 372v69h-280v234h270v69h-345v-304q0 -28 20.5 -48t48.5 -20h286zM715 -137v305v358h135v69h-135v170h-75v-620v-80h-102v103h-74v-305q0 -28 20 -48t48 -20h114q29 0 49 20t20 48zM640 -136h-102v132h102v-132zM403 -205v64h-166v93h156v216h-231v-64h156v-92h-156
v-149q0 -28 20.5 -48t48.5 -20h172z" />
    <glyph glyph-name="uniB2F3" unicode="&#xb2f3;" 
d="M850 526v69h-135v170h-75v-560h75v321h135zM455 372v69h-280v234h270v69h-345v-304q0 -28 20.5 -48t48.5 -20h286zM713 -43q0 57 -30 101h63v69h-140v82h-75v-82h-140v-69h63q-30 -44 -30 -101q0 -35 12 -65.5t32 -53t46 -35.5t54 -13t54 13t46.5 35.5t32.5 53t12 65.5z
M638 -43q0 -18 -5 -36t-14 -32t-22 -23t-29 -9t-28.5 9t-21.5 23.5t-14 32t-5 35.5t5 35.5t14 32t21.5 23.5t28.5 9t29 -9t22 -23.5t14 -32t5 -35.5zM383 -195v64h-167v88h156v211h-230v-64h155v-86h-155v-145q0 -28 20 -48t48 -20h173z" />
    <glyph glyph-name="uniB2F4" unicode="&#xb2f4;" 
d="M455 372v69h-280v234h270v69h-345v-304q0 -28 20.5 -48t48.5 -20h286zM715 -127v284v369h135v69h-135v170h-75v-608h-332v-284q0 -28 20 -48t48 -20h270q29 0 49 20t20 48zM640 -126h-257v214h257v-214z" />
    <glyph glyph-name="uniB2F5" unicode="&#xb2f5;" 
d="M455 372v69h-280v234h270v69h-345v-304q0 -28 20.5 -48t48.5 -20h286zM715 -132v289v369h135v69h-135v170h-75v-620v-80h-257v92h-75v-289q0 -28 20 -48t48 -20h270q29 0 49 20t20 48zM640 -131h-257v127h257v-127z" />
    <glyph glyph-name="uniB2F7" unicode="&#xb2f7;" 
d="M850 526v69h-135v170h-75v-620h75v381h135zM455 372v69h-280v234h270v69h-345v-304q0 -28 20.5 -48t48.5 -20h286zM741 -154l-250 293l-251 -293l58 -45l193 228l192 -228z" />
    <glyph glyph-name="uniB2F8" unicode="&#xb2f8;" 
d="M850 526v69h-135v170h-75v-620h75v381h135zM455 372v69h-280v234h270v69h-345v-304q0 -28 20.5 -48t48.5 -20h286zM742 -173l-156 315l-127 -207l-125 207l-156 -315l65 -28l97 198l119 -180l121 180l97 -198z" />
    <glyph glyph-name="uniB2F9" unicode="&#xb2f9;" 
d="M850 526v69h-135v170h-75v-652q-37 20 -64 28t-53 8q-39 0 -73.5 -14t-61 -39t-42 -58t-15.5 -71q0 -37 15.5 -70t41.5 -58t61 -39.5t74 -14.5q40 0 75 14.5t61 39.5t41 58t15 70v559h135zM640 -33q0 -26 -9.5 -47t-26 -36t-37.5 -23.5t-44 -8.5q-24 0 -45.5 8.5
t-37.5 23.5t-25.5 36t-9.5 47q0 25 9.5 46.5t25.5 37t37.5 24t45.5 8.5q22 0 43.5 -8.5t37.5 -23.5t26 -36.5t10 -47.5zM455 372v69h-280v234h270v69h-345v-304q0 -28 20.5 -48t48.5 -20h286z" />
    <glyph glyph-name="uniB2FA" unicode="&#xb2fa;" 
d="M455 372v69h-280v234h270v69h-345v-304q0 -28 20.5 -48t48.5 -20h286zM756 -155l-204 243h163v69v369h135v69h-135v170h-75v-608h-332v-69h162l-203 -243l56 -44l188 226l188 -226z" />
    <glyph glyph-name="uniB2FB" unicode="&#xb2fb;" 
d="M455 372v69h-280v234h270v69h-345v-304q0 -28 20.5 -48t48.5 -20h286zM756 -149l-207 217h166v69v389h135v69h-135v170h-75v-628h-91v82h-75v-82h-166v-69h166l-207 -217l54 -50l190 206l191 -206z" />
    <glyph glyph-name="uniB2FF" unicode="&#xb2ff;" 
d="M455 372v69h-280v234h270v69h-345v-304q0 -28 20.5 -48t48.5 -20h286zM655 -45q0 32 -12.5 61.5t-33.5 51.5h106v69v389h135v69h-135v170h-75v-628h-128v82h-74v-82h-203v-69h106q-21 -22 -33.5 -51.5t-12.5 -61.5q0 -35 14.5 -66t39 -54t57.5 -36.5t69 -13.5t69 13.5
t57.5 36.5t39 54t14.5 66zM580 -45q0 -23 -8.5 -41.5t-22.5 -32.5t-33.5 -21.5t-40.5 -7.5t-40.5 7.5t-33.5 21.5t-22.5 32.5t-8.5 41.5q0 22 8.5 41t22.5 33t33.5 21.5t40.5 7.5t40.5 -7.5t33.5 -21.5t22.5 -33t8.5 -41z" />
    <glyph glyph-name="uniB300" unicode="&#xb300;" 
d="M770 35v730h-75v-192h-110v192h-73v-730h73v468h110v-468h75zM394 326v70h-219v279h209v69h-284v-349q0 -28 20.5 -48.5t48.5 -20.5h225z" />
    <glyph glyph-name="uniB301" unicode="&#xb301;" 
d="M394 372v69h-219v234h209v69h-284v-304q0 -28 20.5 -48t48.5 -20h225zM770 -195v352v608h-75v-170h-110v170h-73v-496h73v257h110v-369h-345v-69h345v-283h75z" />
    <glyph glyph-name="uniB304" unicode="&#xb304;" 
d="M770 145v620h-76v-170h-109v170h-73v-620h73v381h109v-381h76zM394 372v69h-219v234h209v69h-284v-304q0 -28 20.5 -48t48.5 -20h225zM780 -195v69h-344v242h-75v-243q0 -28 20.5 -48t48.5 -20h350z" />
    <glyph glyph-name="uniB308" unicode="&#xb308;" 
d="M394 372v69h-219v234h209v69h-284v-304q0 -28 20.5 -48t48.5 -20h225zM780 -215v64h-344v98h334v221v597h-76v-170h-109v170h-73v-496h73v257h109v-358h-333v-64h333v-97h-333v-154q0 -28 20.5 -48t48.5 -20h350z" />
    <glyph glyph-name="uniB310" unicode="&#xb310;" 
d="M394 372v69h-219v234h209v69h-284v-304q0 -28 20.5 -48t48.5 -20h225zM770 -127v284v608h-75v-170h-110v170h-73v-496h73v257h110v-369h-334v-284q0 -28 20.5 -48t48.5 -20h271q29 0 49 20t20 48zM695 -126h-259v214h259v-214z" />
    <glyph glyph-name="uniB311" unicode="&#xb311;" 
d="M394 372v69h-219v234h209v69h-284v-304q0 -28 20.5 -48t48.5 -20h225zM770 -132v289v608h-75v-170h-110v170h-73v-496h73v257h110v-381v-80h-259v92h-75v-289q0 -28 20.5 -48t48.5 -20h271q29 0 49 20t20 48zM695 -131h-259v127h259v-127z" />
    <glyph glyph-name="uniB313" unicode="&#xb313;" 
d="M769 145v620h-75v-170h-110v170h-73v-496h73v257h110v-381h75zM394 372v69h-219v234h208v69h-283v-304q0 -28 20.5 -48t48.5 -20h225zM795 -154l-251 293l-251 -293l58 -45l193 228l192 -228z" />
    <glyph glyph-name="uniB314" unicode="&#xb314;" 
d="M769 145v620h-75v-170h-110v170h-73v-496h73v257h110v-381h75zM394 372v69h-219v234h208v69h-283v-304q0 -28 20.5 -48t48.5 -20h225zM796 -173l-157 315l-127 -207l-125 207l-157 -315l65 -28l98 198l120 -180l120 180l98 -198z" />
    <glyph glyph-name="uniB315" unicode="&#xb315;" 
d="M770 -33v798h-75v-170h-110v170h-73v-496h73v257h110v-413q-37 20 -64.5 28t-53.5 8q-39 0 -74 -14.5t-61.5 -39t-42 -58t-15.5 -70.5t15.5 -70t41.5 -58t61.5 -39.5t74.5 -14.5q40 0 75 15t61 40t41.5 58t15.5 69zM695 -33q0 -26 -9.5 -47t-25.5 -36t-37.5 -23.5
t-45.5 -8.5t-45.5 8.5t-37.5 23.5t-25.5 36t-9.5 47q0 25 9.5 46.5t25.5 37t37.5 24t45.5 8.5t45.5 -8.5t37.5 -24t25.5 -37t9.5 -46.5zM394 372v69h-219v234h209v69h-284v-304q0 -28 20.5 -48t48.5 -20h225z" />
    <glyph glyph-name="uniB31C" unicode="&#xb31c;" 
d="M850 404v70h-135v117h135v70h-135v104h-75v-730h75v369h135zM455 326v78h-280v271h270v69h-345v-349q0 -28 20.5 -48.5t48.5 -20.5h286z" />
    <glyph glyph-name="uniB354" unicode="&#xb354;" 
d="M740 35v730h-75v-192h-199v-70h199v-468h75zM478 326v70h-283v279h273v69h-348v-349q0 -28 20.5 -48.5t48.5 -20.5h289z" />
    <glyph glyph-name="uniB355" unicode="&#xb355;" 
d="M478 372v69h-283v234h273v69h-348v-304q0 -28 20.5 -48t48.5 -20h289zM740 -195v352v608h-75v-170h-199v-69h199v-369h-346v-69h346v-283h75z" />
    <glyph glyph-name="uniB356" unicode="&#xb356;" 
d="M478 372v69h-283v234h273v69h-348v-304q0 -28 20.5 -48t48.5 -20h289zM740 -195v352v608h-75v-170h-199v-69h199v-369h-409v-69h157v-283h76v283h176v-283h75z" />
    <glyph glyph-name="uniB358" unicode="&#xb358;" 
d="M740 145v620h-76v-170h-199v-69h199v-381h76zM478 372v69h-283v234h272v69h-347v-304q0 -28 20.5 -48t48.5 -20h289zM750 -195v69h-345v242h-76v-243q0 -28 20.5 -48t48.5 -20h352z" />
    <glyph glyph-name="uniB35B" unicode="&#xb35b;" 
d="M478 372v69h-283v234h272v69h-347v-304q0 -28 20.5 -48t48.5 -20h289zM750 -195v69h-345v214h335v69v608h-76v-170h-199v-69h199v-369h-335v-284q0 -28 20.5 -48t48.5 -20h352z" />
    <glyph glyph-name="uniB35C" unicode="&#xb35c;" 
d="M478 372v69h-283v234h272v69h-347v-304q0 -28 20.5 -48t48.5 -20h289zM750 -215v64h-345v98h335v221v597h-76v-170h-199v-69h199v-358h-335v-64h335v-97h-335v-154q0 -28 20.5 -48t48.5 -20h352z" />
    <glyph glyph-name="uniB35E" unicode="&#xb35e;" 
d="M478 372v69h-283v234h273v69h-348v-304q0 -28 20.5 -48t48.5 -20h289zM740 -137v305v597h-75v-170h-199v-69h199v-358h-178v-305q0 -28 20.5 -48t48.5 -20h115q29 0 49 20t20 48zM665 -136h-103v235h103v-235zM426 -205v64h-168v93h157v216h-232v-64h157v-92h-157v-149
q0 -28 20.5 -48t48.5 -20h174z" />
    <glyph glyph-name="uniB35F" unicode="&#xb35f;" 
d="M478 372v69h-283v234h273v69h-348v-304q0 -28 20.5 -48t48.5 -20h289zM740 -137v305v597h-75v-170h-199v-69h199v-381v-80h-103v103h-75v-305q0 -28 20.5 -48t48.5 -20h115q29 0 49 20t20 48zM665 -136h-103v132h103v-132zM426 -205v64h-168v93h157v216h-232v-64h157v-92
h-157v-149q0 -28 20.5 -48t48.5 -20h174z" />
    <glyph glyph-name="uniB364" unicode="&#xb364;" 
d="M478 372v69h-283v234h273v69h-348v-304q0 -28 20.5 -48t48.5 -20h289zM740 -127v284v608h-75v-170h-199v-69h199v-369h-336v-284q0 -28 21 -48t49 -20h272q29 0 49 20t20 48zM665 -126h-260v214h260v-214z" />
    <glyph glyph-name="uniB365" unicode="&#xb365;" 
d="M478 372v69h-283v234h273v69h-348v-304q0 -28 20.5 -48t48.5 -20h289zM740 -132v289v608h-75v-170h-199v-69h199v-381v-80h-260v92h-76v-289q0 -28 21 -48t49 -20h272q29 0 49 20t20 48zM665 -131h-260v127h260v-127z" />
    <glyph glyph-name="uniB367" unicode="&#xb367;" 
d="M739 145v620h-76v-170h-198v-69h198v-381h76zM477 372v69h-282v234h272v69h-347v-304q0 -28 20.5 -48t48.5 -20h288zM765 -154l-252 293l-252 -293l59 -45l193 228l193 -228z" />
    <glyph glyph-name="uniB369" unicode="&#xb369;" 
d="M478 372v69h-283v234h273v69h-348v-304q0 -28 20.5 -48t48.5 -20h289zM740 -33v798h-75v-170h-199v-69h199v-413q-38 20 -65.5 28t-53.5 8q-39 0 -74 -14.5t-61.5 -39t-42 -58t-15.5 -70.5t15.5 -70t41.5 -58t61.5 -39.5t74.5 -14.5t74.5 14.5t62 39.5t42 58t15.5 70z
M665 -33q0 -26 -9.5 -47t-26 -36t-38 -23.5t-45.5 -8.5t-45.5 8.5t-37.5 23.5t-25.5 36t-9.5 47q0 25 9.5 46.5t25.5 37t37.5 24t45.5 8.5t45.5 -8.5t38 -24t26 -37t9.5 -46.5z" />
    <glyph glyph-name="uniB36B" unicode="&#xb36b;" 
d="M477 372v69h-282v234h272v69h-347v-304q0 -28 20.5 -48t48.5 -20h288zM779 -149l-208 217h167v69v628h-75v-170h-198v-69h198v-389h-92v82h-75v-82h-167v-69h167l-208 -217l54 -50l191 206l192 -206z" />
    <glyph glyph-name="uniB36E" unicode="&#xb36e;" 
d="M478 372v69h-283v234h273v69h-348v-304q0 -28 20.5 -48t48.5 -20h289zM436 -126v214h155v-214h-155zM745 -195v69h-79v214h74v69v608h-76v-170h-199v-69h199v-369h-376v-69h73v-214h-79v-69h463z" />
    <glyph glyph-name="uniB370" unicode="&#xb370;" 
d="M770 35v730h-75v-730h75zM603 35v730h-73v-192h-159v-70h159v-468h73zM394 326v70h-219v279h209v69h-284v-349q0 -28 20.5 -48.5t48.5 -20.5h225z" />
    <glyph glyph-name="uniB371" unicode="&#xb371;" 
d="M603 269v496h-73v-170h-159v-69h159v-257h73zM394 372v69h-219v234h209v69h-284v-304q0 -28 20.5 -48t48.5 -20h225zM770 -195v352v608h-75v-608h-345v-69h345v-283h75z" />
    <glyph glyph-name="uniB374" unicode="&#xb374;" 
d="M770 145v620h-76v-620h76zM603 145v620h-73v-170h-159v-69h159v-381h73zM394 372v69h-219v234h209v69h-284v-304q0 -28 20.5 -48t48.5 -20h225zM780 -195v69h-344v242h-75v-243q0 -28 20.5 -48t48.5 -20h350z" />
    <glyph glyph-name="uniB378" unicode="&#xb378;" 
d="M603 269v496h-73v-170h-159v-69h159v-257h73zM394 372v69h-219v234h209v69h-284v-304q0 -28 20.5 -48t48.5 -20h225zM780 -215v64h-344v98h334v221v597h-76v-597h-333v-64h333v-97h-333v-154q0 -28 20.5 -48t48.5 -20h350z" />
    <glyph glyph-name="uniB380" unicode="&#xb380;" 
d="M603 269v496h-73v-170h-159v-69h159v-257h73zM394 372v69h-219v234h209v69h-284v-304q0 -28 20.5 -48t48.5 -20h225zM770 -127v284v608h-75v-608h-334v-284q0 -28 20.5 -48t48.5 -20h271q29 0 49 20t20 48zM695 -126h-259v214h259v-214z" />
    <glyph glyph-name="uniB381" unicode="&#xb381;" 
d="M603 269v496h-73v-170h-159v-69h159v-257h73zM394 372v69h-219v234h209v69h-284v-304q0 -28 20.5 -48t48.5 -20h225zM770 -132v289v608h-75v-620v-80h-259v92h-75v-289q0 -28 20.5 -48t48.5 -20h271q29 0 49 20t20 48zM695 -131h-259v127h259v-127z" />
    <glyph glyph-name="uniB383" unicode="&#xb383;" 
d="M769 145v620h-75v-620h75zM602 269v496h-73v-170h-158v-69h158v-257h73zM394 372v69h-219v234h208v69h-283v-304q0 -28 20.5 -48t48.5 -20h225zM795 -154l-251 293l-251 -293l58 -45l193 228l192 -228z" />
    <glyph glyph-name="uniB384" unicode="&#xb384;" 
d="M769 145v620h-75v-620h75zM602 269v496h-73v-170h-158v-69h158v-257h73zM394 372v69h-219v234h208v69h-283v-304q0 -28 20.5 -48t48.5 -20h225zM796 -173l-157 315l-127 -207l-125 207l-157 -315l65 -28l98 198l120 -180l120 180l98 -198z" />
    <glyph glyph-name="uniB385" unicode="&#xb385;" 
d="M603 269v496h-73v-170h-159v-69h159v-257h73zM770 -33v798h-75v-652q-37 20 -64.5 28t-53.5 8q-39 0 -74 -14.5t-61.5 -39t-42 -58t-15.5 -70.5t15.5 -70t41.5 -58t61.5 -39.5t74.5 -14.5q40 0 75 15t61 40t41.5 58t15.5 69zM695 -33q0 -26 -9.5 -47t-25.5 -36
t-37.5 -23.5t-45.5 -8.5t-45.5 8.5t-37.5 23.5t-25.5 36t-9.5 47q0 25 9.5 46.5t25.5 37t37.5 24t45.5 8.5t45.5 -8.5t37.5 -24t25.5 -37t9.5 -46.5zM394 372v69h-219v234h209v69h-284v-304q0 -28 20.5 -48t48.5 -20h225z" />
    <glyph glyph-name="uniB38C" unicode="&#xb38c;" 
d="M740 35v730h-75v-114h-157v-70h157v-97h-157v-69h157v-380h75zM468 305v70h-273v300h262v69h-337v-370q0 -28 20.5 -48.5t48.5 -20.5h279z" />
    <glyph glyph-name="uniB390" unicode="&#xb390;" 
d="M740 145v620h-76v-103h-157v-69h157v-86h-157v-69h157v-293h76zM467 351v69h-272v255h262v69h-337v-325q0 -28 20.5 -48t48.5 -20h278zM750 -195v69h-345v242h-76v-243q0 -28 20.5 -48t48.5 -20h352z" />
    <glyph glyph-name="uniB394" unicode="&#xb394;" 
d="M467 351v69h-272v255h262v69h-337v-325q0 -28 20.5 -48t48.5 -20h278zM750 -215v64h-345v98h335v221v597h-76v-103h-157v-69h157v-85h-157v-69h157v-271h-335v-64h335v-97h-335v-154q0 -28 20.5 -48t48.5 -20h352z" />
    <glyph glyph-name="uniB3A0" unicode="&#xb3a0;" 
d="M739 145v620h-76v-103h-156v-69h156v-85h-156v-69h156v-294h76zM467 351v69h-272v255h261v69h-336v-325q0 -28 20.5 -48t48.5 -20h278zM766 -173l-157 315l-128 -207l-126 207l-157 -315l65 -28l99 198l120 -180l121 180l98 -198z" />
    <glyph glyph-name="uniB3A1" unicode="&#xb3a1;" 
d="M468 351v69h-273v255h262v69h-337v-325q0 -28 20.5 -48t48.5 -20h279zM740 -33v798h-75v-103h-157v-69h157v-85h-157v-69h157v-326q-38 20 -65.5 28t-53.5 8q-39 0 -74 -14.5t-61.5 -39t-42 -58t-15.5 -70.5t15.5 -70t41.5 -58t61.5 -39.5t74.5 -14.5t74.5 14.5t62 39.5
t42 58t15.5 70zM665 -33q0 -26 -9.5 -47t-26 -36t-38 -23.5t-45.5 -8.5t-45.5 8.5t-37.5 23.5t-25.5 36t-9.5 47q0 25 9.5 46.5t25.5 37t37.5 24t45.5 8.5t45.5 -8.5t38 -24t26 -37t9.5 -46.5z" />
    <glyph glyph-name="uniB3A8" unicode="&#xb3a8;" 
d="M770 35v730h-75v-730h75zM603 35v730h-73v-114h-117v-70h117v-97h-117v-69h117v-380h73zM373 305v70h-198v300h188v69h-263v-370q0 -28 20.5 -48.5t48.5 -20.5h204z" />
    <glyph glyph-name="uniB3AC" unicode="&#xb3ac;" 
d="M770 145v620h-76v-620h76zM603 145v620h-73v-103h-117v-69h117v-86h-117v-69h117v-293h73zM373 351v69h-198v255h188v69h-263v-325q0 -28 20.5 -48t48.5 -20h204zM780 -195v69h-344v242h-75v-243q0 -28 20.5 -48t48.5 -20h350z" />
    <glyph glyph-name="uniB3C4" unicode="&#xb3c4;" 
d="M860 140v70h-373v176h176v71h-341v218h331v70h-406v-289q0 -28 20 -49t48 -21h98v-176h-373v-70h820z" />
    <glyph glyph-name="uniB3C5" unicode="&#xb3c5;" 
d="M860 222v69h-373v132h176v69h-341v184h331v69h-406v-254q0 -28 20 -48t48 -20h98v-132h-373v-69h820zM653 -195v301h-416v-69h341v-232h75z" />
    <glyph glyph-name="uniB3C8" unicode="&#xb3c8;" 
d="M860 212v69h-373v142h176v69h-341v184h331v69h-406v-254q0 -28 20 -48t48 -20h98v-142h-373v-69h820zM663 -195v69h-341v201h-75v-202q0 -28 20 -48t48 -20h348z" />
    <glyph glyph-name="uniB3CB" unicode="&#xb3cb;" 
d="M860 233v69h-373v121h176v69h-341v184h331v69h-406v-254q0 -28 20 -48t48 -20h98v-121h-373v-69h820zM663 -195v69h-341v184h331v69h-406v-254q0 -28 20 -48t48 -20h348z" />
    <glyph glyph-name="uniB3CC" unicode="&#xb3cc;" 
d="M860 243v69h-373v112h176v69h-341v183h331v69h-406v-253q0 -28 20 -48t48 -20h98v-112h-373v-69h820zM663 -215v64h-341v87h331v212h-406v-64h331v-87h-331v-144q0 -28 20 -48t48 -20h348z" />
    <glyph glyph-name="uniB3CE" unicode="&#xb3ce;" 
d="M860 243v69h-373v112h176v69h-341v183h331v69h-406v-253q0 -28 20 -48t48 -20h98v-112h-373v-69h820zM725 -147v295h-250v-295q0 -28 20 -48t48 -20h114q29 0 48.5 20t19.5 48zM651 -146h-102v225h102v-225zM415 -215v64h-166v87h155v212h-229v-64h155v-87h-155v-144
q0 -28 20 -48t48 -20h172z" />
    <glyph glyph-name="uniB3D0" unicode="&#xb3d0;" 
d="M860 243v69h-373v112h176v69h-341v183h331v69h-406v-253q0 -28 20 -48t48 -20h98v-112h-373v-69h820zM761 -171l-151 253l-150 -253l61 -38l89 155l90 -155zM436 -205v64h-166v83h155v206h-230v-64h156v-82h-156v-139q0 -28 20.5 -48t48.5 -20h172z" />
    <glyph glyph-name="uniB3D4" unicode="&#xb3d4;" 
d="M860 233v69h-373v121h176v69h-341v184h331v69h-406v-254q0 -28 20 -48t48 -20h98v-121h-373v-69h820zM653 -127v254h-406v-254q0 -28 20 -48t48 -20h270q28 0 48 20t20 48zM578 -126h-256v184h256v-184z" />
    <glyph glyph-name="uniB3D5" unicode="&#xb3d5;" 
d="M860 233v69h-373v122h176v69h-341v183h331v69h-406v-253q0 -28 20 -48t48 -20h98v-122h-373v-69h820zM653 -137v269h-75v-82h-256v82h-75v-269q0 -28 20 -48t48 -20h270q28 0 48 20t20 48zM578 -136h-256v116h256v-116z" />
    <glyph glyph-name="uniB3D7" unicode="&#xb3d7;" 
d="M860 233v69h-373v122h176v69h-341v183h331v69h-406v-253q0 -28 20 -48t48 -20h98v-122h-373v-69h820zM699 -154l-249 293l-249 -293l57 -45l192 228l192 -228z" />
    <glyph glyph-name="uniB3D9" unicode="&#xb3d9;" 
d="M860 233v69h-373v122h176v69h-341v183h331v69h-406v-253q0 -28 20 -48t48 -20h98v-122h-373v-69h820zM642 -42q0 35 -15 66.5t-41.5 55t-61.5 37.5t-74 14t-74 -13.5t-61 -37t-41.5 -55t-15.5 -67.5t15.5 -67.5t42 -55t61.5 -37t73 -13.5q39 0 74 14t61 37.5t41.5 55
t15.5 66.5zM567 -42q0 -24 -9.5 -43.5t-25.5 -33.5t-37 -21.5t-45 -7.5q-22 0 -43 7.5t-37.5 21.5t-26.5 33.5t-10 43.5t10 43.5t26.5 33.5t37.5 21.5t43 7.5q24 0 45 -7.5t37 -21.5t25.5 -33.5t9.5 -43.5z" />
    <glyph glyph-name="uniB3DB" unicode="&#xb3db;" 
d="M860 233v69h-373v122h176v69h-341v183h331v69h-406v-253q0 -28 20 -48t48 -20h98v-122h-373v-69h820zM693 -149l-203 186h163v69h-166v62h-74v-62h-166v-69h163l-203 -186l54 -51l189 177l189 -177z" />
    <glyph glyph-name="uniB3DD" unicode="&#xb3dd;" 
d="M860 243v69h-373v112h176v69h-341v183h331v69h-406v-253q0 -28 20 -48t48 -20h98v-112h-373v-69h820zM653 -215v64h-331v87h321v61h-321v87h331v64h-406v-295q0 -28 20 -48t48 -20h338z" />
    <glyph glyph-name="uniB3E0" unicode="&#xb3e0;" 
d="M661 186v-151h75v458h134v69h-134v203h-75v-510h-303v154h140v70h-279v196h269v69h-344v-266q0 -28 20.5 -48.5t48.5 -20.5h71v-154h-274v-69h651z" />
    <glyph glyph-name="uniB3E4" unicode="&#xb3e4;" 
d="M661 222v-108h75v412h134v69h-134v170h-75v-474h-303v142h140v69h-279v173h269v69h-344v-243q0 -28 20.5 -48t48.5 -20h71v-142h-274v-69h651zM746 -195v69h-341v201h-75v-202q0 -28 20.5 -48t48.5 -20h347z" />
    <glyph glyph-name="uniB3E8" unicode="&#xb3e8;" 
d="M746 -215v64h-341v87h331v211v379h134v69h-134v170h-75v-453h-303v122h140v69h-279v172h269v69h-344v-243q0 -28 20.5 -47.5t48.5 -19.5h71v-122h-274v-69h651v-96h-331v-63h331v-87h-331v-144q0 -28 20.5 -48t48.5 -20h347z" />
    <glyph glyph-name="uniB3FC" unicode="&#xb3fc;" 
d="M536 186h60v307h109v-458h75v730h-75v-203h-109v203h-72v-510h-216v154h119v70h-239v196h229v69h-303v-266q0 -28 20 -48.5t48 -20.5h51v-154h-223v-69h514h12z" />
    <glyph glyph-name="uniB410" unicode="&#xb410;" 
d="M535 243h60v283h109v-412h75v651h-75v-170h-109v170h-72v-453h-216v122h120v69h-239v172h228v69h-302v-243q0 -28 20 -47.5t48 -19.5h51v-122h-223v-69h513h12zM806 -183l-156 305l-126 -196l-125 196l-156 -305l65 -28l98 192l118 -174l119 174l98 -192z" />
    <glyph glyph-name="uniB418" unicode="&#xb418;" 
d="M685 186v-151h75v730h-75v-510h-305v154h141v70h-281v196h270v69h-345v-266q0 -28 20.5 -48.5t48.5 -20.5h72v-154h-276v-69h655z" />
    <glyph glyph-name="uniB41C" unicode="&#xb41c;" 
d="M685 222v-108h75v651h-75v-474h-305v142h141v69h-281v173h270v69h-345v-243q0 -28 20.5 -48t48.5 -20h71v-142h-275v-69h655zM770 -195v69h-343v201h-75v-202q0 -28 20.5 -48t48.5 -20h349z" />
    <glyph glyph-name="uniB420" unicode="&#xb420;" 
d="M770 -215v64h-343v87h333v211v618h-75v-453h-305v122h141v69h-281v172h270v69h-345v-243q0 -28 20.5 -47.5t48.5 -19.5h71v-122h-275v-69h655v-96h-333v-63h333v-87h-333v-144q0 -28 20.5 -48t48.5 -20h349z" />
    <glyph glyph-name="uniB428" unicode="&#xb428;" 
d="M760 -127v253v639h-75v-453h-305v121h141v69h-281v173h270v69h-345v-243q0 -28 20.5 -48t48.5 -20h72v-121h-276v-69h655v-117h-333v-253q0 -28 20.5 -48t48.5 -20h270q29 0 49 20t20 48zM685 -126h-258v183h258v-183z" />
    <glyph glyph-name="uniB429" unicode="&#xb429;" 
d="M760 -137v269v633h-75v-453h-305v121h141v69h-281v173h270v69h-345v-243q0 -28 20.5 -48t48.5 -20h72v-121h-276v-69h655v-129v-65h-258v83h-75v-269q0 -28 20.5 -48t48.5 -20h270q29 0 49 20t20 48zM685 -136h-258v116h258v-116z" />
    <glyph glyph-name="uniB42B" unicode="&#xb42b;" 
d="M684 243v-129h75v651h-75v-453h-304v121h140v69h-280v173h270v69h-345v-243q0 -28 20 -48t48 -20h72v-121h-275v-69h654zM785 -154l-250 293l-251 -293l58 -45l193 228l192 -228z" />
    <glyph glyph-name="uniB434" unicode="&#xb434;" 
d="M384 210v176h132v-176h-132zM860 140v70h-269v176h72v71h-341v218h331v70h-406v-289q0 -27 18.5 -47t43.5 -22v-177h-269v-70h820z" />
    <glyph glyph-name="uniB450" unicode="&#xb450;" 
d="M663 400v70h-341v205h331v70h-406v-276q0 -28 20 -48.5t48 -20.5h348zM487 -15v213h373v69h-820v-69h373v-213h74z" />
    <glyph glyph-name="uniB451" unicode="&#xb451;" 
d="M663 423v69h-341v184h331v69h-406v-254q0 -28 20 -48t48 -20h348zM653 -195v301h-166v137h373v69h-820v-69h373v-137h-176v-69h341v-232h75z" />
    <glyph glyph-name="uniB454" unicode="&#xb454;" 
d="M663 423v69h-341v184h331v69h-406v-254q0 -28 20 -48t48 -20h348zM518 52v170h342v69h-820v-69h404v-170h74zM663 -195v69h-341v201h-75v-202q0 -28 20 -48t48 -20h348z" />
    <glyph glyph-name="uniB458" unicode="&#xb458;" 
d="M663 424v69h-341v183h331v69h-406v-253q0 -28 20 -48t48 -20h348zM663 -215v64h-341v87h331v212h-166v106h373v69h-820v-69h373v-106h-166v-64h331v-87h-331v-144q0 -28 20 -48t48 -20h348z" />
    <glyph glyph-name="uniB460" unicode="&#xb460;" 
d="M663 423v69h-341v184h331v69h-406v-254q0 -28 20 -48t48 -20h348zM653 -127v254h-166v126h373v69h-820v-69h373v-126h-166v-254q0 -28 20 -48t48 -20h270q28 0 48 20t20 48zM578 -126h-256v184h256v-184z" />
    <glyph glyph-name="uniB461" unicode="&#xb461;" 
d="M663 424v69h-341v183h331v69h-406v-253q0 -28 20 -48t48 -20h348zM487 135v119h373v69h-820v-69h373v-119h74zM653 -137v272h-75v-85h-256v82h-75v-269q0 -28 20 -48t48 -20h270q28 0 48 20t20 48zM578 -136h-256v116h256v-116z" />
    <glyph glyph-name="uniB463" unicode="&#xb463;" 
d="M663 424v69h-341v183h331v69h-406v-253q0 -28 20 -48t48 -20h348zM699 -154l-212 250v158h373v69h-820v-69h373v-158l-212 -250l57 -45l192 228l192 -228z" />
    <glyph glyph-name="uniB465" unicode="&#xb465;" 
d="M663 424v69h-341v183h331v69h-406v-253q0 -28 20 -48t48 -20h348zM642 -42q0 30 -12 58.5t-32.5 51t-49 38.5t-61.5 22v126h373v69h-820v-69h373v-126q-32 -6 -60.5 -21.5t-49.5 -38t-33 -51t-12 -59.5q0 -36 15.5 -67.5t42 -55t61.5 -37t73 -13.5q39 0 74 14t61 37.5
t41.5 55t15.5 66.5zM567 -42q0 -24 -9.5 -43.5t-25.5 -33.5t-37 -21.5t-45 -7.5q-22 0 -43 7.5t-37.5 21.5t-26.5 33.5t-10 43.5t10 43.5t26.5 33.5t37.5 21.5t43 7.5q24 0 45 -7.5t37 -21.5t25.5 -33.5t9.5 -43.5z" />
    <glyph glyph-name="uniB46C" unicode="&#xb46c;" 
d="M760 35v730h-75v-548h-187v-68h187v-114h75zM521 461v70h-281v144h270v69h-345v-214q0 -28 20.5 -48.5t48.5 -20.5h287zM354 56v234h219v69h-543v-69h250v-234h74z" />
    <glyph glyph-name="uniB480" unicode="&#xb480;" 
d="M759 84v681h-75v-512h-187v-67h187v-102h75zM520 464v69h-280v142h270v69h-345v-212q0 -28 20 -48t48 -20h287zM354 176v139h218v69h-542v-69h249v-139h75zM785 -183l-154 283l-128 -182l-126 182l-154 -283l64 -28l97 182l119 -165l121 165l97 -182z" />
    <glyph glyph-name="uniB488" unicode="&#xb488;" 
d="M780 35v730h-75v-730h75zM614 149v616h-73v-548h-168v-68h241zM406 461v70h-218v144h208v69h-282v-214q0 -28 20 -48.5t48 -20.5h224zM282 56v234h166v69h-438v-69h197v-234h75z" />
    <glyph glyph-name="uniB49D" unicode="&#xb49d;" 
d="M614 186v579h-73v-512h-168v-67h241zM780 -47v812h-75v-676q-36 18 -61 25t-50 7q-38 0 -71.5 -13.5t-59 -36t-40.5 -53.5t-15 -65q0 -35 15 -65.5t40.5 -53t59 -36t71.5 -13.5t72 13.5t59.5 37t40 54t14.5 63.5zM705 -47q0 -21 -9.5 -39.5t-25 -32t-35.5 -21.5t-41 -8
t-41 7.5t-35.5 21t-25 32t-9.5 40.5t9.5 40.5t25 32t35.5 21t41 7.5t41 -8t35.5 -21.5t25 -32t9.5 -39.5zM406 464v69h-218v142h208v69h-282v-212q0 -28 20 -48t48 -20h224zM282 176v139h166v69h-438v-69h197v-139h75z" />
    <glyph glyph-name="uniB4A4" unicode="&#xb4a4;" 
d="M521 461v70h-281v144h270v69h-345v-214q0 -28 20.5 -48.5t48.5 -20.5h287zM354 56v213h331v-234h75v730h-75v-426h-655v-70h250v-213h74z" />
    <glyph glyph-name="uniB4A8" unicode="&#xb4a8;" 
d="M521 464v69h-281v142h270v69h-345v-212q0 -28 20.5 -48t48.5 -20h287zM354 155v119h331v-191h75v682h-75v-422h-655v-69h249v-119h75zM770 -195v69h-343v201h-75v-202q0 -28 20.5 -48t48.5 -20h349z" />
    <glyph glyph-name="uniB4AC" unicode="&#xb4ac;" 
d="M521 464v69h-281v142h270v69h-345v-212q0 -28 20.5 -48t48.5 -20h287zM770 -215v64h-343v77h333v201v638h-75v-401h-655v-69h249v-119h75v119h331v-168h-333v-64h333v-76h-333v-134q0 -28 20.5 -48t48.5 -20h349z" />
    <glyph glyph-name="uniB4B5" unicode="&#xb4b5;" 
d="M521 464v69h-281v142h270v69h-345v-212q0 -28 20.5 -48t48.5 -20h287zM760 -137v248v654h-75v-402h-655v-69h250v-118h74v118h331v-211v-44h-258v72h-75v-248q0 -28 20.5 -48t48.5 -20h270q29 0 49 20t20 48zM685 -136h-258v106h258v-106z" />
    <glyph glyph-name="uniB4B7" unicode="&#xb4b7;" 
d="M520 464v69h-280v142h270v69h-345v-212q0 -28 20 -48t48 -20h287zM354 125v149h330v-191h75v682h-75v-422h-654v-69h249v-149h75zM784 -155l-249 280l-250 -280l58 -45l192 208l191 -208z" />
    <glyph glyph-name="uniB4B9" unicode="&#xb4b9;" 
d="M521 464v69h-281v142h270v69h-345v-212q0 -28 20.5 -48t48.5 -20h287zM354 125v149h331v-185q-36 18 -61 25t-50 7q-39 0 -72.5 -13.5t-59 -36.5t-40 -53.5t-14.5 -64.5t14.5 -64.5t40 -53.5t59 -36.5t72.5 -13.5q38 0 72 13.5t59.5 37t40 54t14.5 63.5v812h-75v-422
h-655v-69h250v-149h74zM685 -47q0 -21 -9.5 -39.5t-25 -32t-35.5 -21.5t-41 -8t-41 7.5t-35.5 21t-25 32t-9.5 40.5t9.5 40.5t25 32t35.5 21t41 7.5t41 -8t35.5 -21.5t25 -32t9.5 -39.5z" />
    <glyph glyph-name="uniB4C0" unicode="&#xb4c0;" 
d="M663 400v70h-341v205h331v70h-406v-276q0 -28 20 -48.5t48 -20.5h348zM373 -15v213h154v-213h74v213h259v69h-820v-69h259v-213h74z" />
    <glyph glyph-name="uniB4C4" unicode="&#xb4c4;" 
d="M663 423v69h-341v184h331v69h-406v-254q0 -28 20 -48t48 -20h348zM415 73v160h132v-160h75v160h238v69h-820v-69h300v-160h75zM663 -195v69h-341v201h-75v-202q0 -28 20 -48t48 -20h348z" />
    <glyph glyph-name="uniB4C8" unicode="&#xb4c8;" 
d="M663 424v69h-341v183h331v69h-406v-253q0 -28 20 -48t48 -20h348zM384 148v116h132v-116h-132zM663 -215v64h-341v87h331v212h-62v116h269v69h-820v-69h269v-116h-62v-64h331v-87h-331v-144q0 -28 20 -48t48 -20h348z" />
    <glyph glyph-name="uniB4D0" unicode="&#xb4d0;" 
d="M663 423v69h-341v184h331v69h-406v-254q0 -28 20 -48t48 -20h348zM384 127v126h132v-126h-132zM653 -127v254h-62v126h269v69h-820v-69h269v-126h-62v-254q0 -28 20 -48t48 -20h270q28 0 48 20t20 48zM578 -126h-256v184h256v-184z" />
    <glyph glyph-name="uniB4D5" unicode="&#xb4d5;" 
d="M663 424v69h-341v183h331v69h-406v-253q0 -28 20 -48t48 -20h348zM384 120v134h132v-134q-31 11 -66 11t-66 -11zM642 -42q0 34 -14 64t-37 53v179h269v69h-820v-69h269v-179q-23 -23 -37 -53t-14 -64q0 -36 15.5 -67.5t42 -55t61.5 -37t73 -13.5q39 0 74 14t61 37.5
t41.5 55t15.5 66.5zM567 -42q0 -24 -9.5 -43.5t-25.5 -33.5t-37 -21.5t-45 -7.5q-22 0 -43 7.5t-37.5 21.5t-26.5 33.5t-10 43.5t10 43.5t26.5 33.5t37.5 21.5t43 7.5q24 0 45 -7.5t37 -21.5t25.5 -33.5t9.5 -43.5z" />
    <glyph glyph-name="uniB4DC" unicode="&#xb4dc;" 
d="M663 386v71h-341v218h331v70h-406v-289q0 -28 20 -49t48 -21h348zM860 140v70h-820v-70h820z" />
    <glyph glyph-name="uniB4DD" unicode="&#xb4dd;" 
d="M663 423v69h-341v184h331v69h-406v-254q0 -28 20 -48t48 -20h348zM860 233v69h-820v-69h820zM653 -195v301h-416v-69h341v-232h75z" />
    <glyph glyph-name="uniB4E0" unicode="&#xb4e0;" 
d="M663 423v69h-341v184h331v69h-406v-254q0 -28 20 -48t48 -20h348zM860 212v69h-820v-69h820zM663 -195v69h-341v201h-75v-202q0 -28 20 -48t48 -20h348z" />
    <glyph glyph-name="uniB4E3" unicode="&#xb4e3;" 
d="M663 423v69h-341v184h331v69h-406v-254q0 -28 20 -48t48 -20h348zM860 243v69h-820v-69h820zM663 -195v69h-341v184h331v69h-406v-254q0 -28 20 -48t48 -20h348z" />
    <glyph glyph-name="uniB4E4" unicode="&#xb4e4;" 
d="M663 424v69h-341v183h331v69h-406v-253q0 -28 20 -48t48 -20h348zM860 254v69h-820v-69h820zM663 -215v64h-341v87h331v212h-406v-64h331v-87h-331v-144q0 -28 20 -48t48 -20h348z" />
    <glyph glyph-name="uniB4E6" unicode="&#xb4e6;" 
d="M663 424v69h-341v183h331v69h-406v-253q0 -28 20 -48t48 -20h348zM860 254v69h-820v-69h820zM725 -147v295h-250v-295q0 -28 20 -48t48 -20h114q29 0 48.5 20t19.5 48zM651 -146h-102v225h102v-225zM415 -215v64h-166v87h155v212h-229v-64h155v-87h-155v-144
q0 -28 20 -48t48 -20h172z" />
    <glyph glyph-name="uniB4EC" unicode="&#xb4ec;" 
d="M663 423v69h-341v184h331v69h-406v-254q0 -28 20 -48t48 -20h348zM860 243v69h-820v-69h820zM653 -127v254h-406v-254q0 -28 20 -48t48 -20h270q28 0 48 20t20 48zM578 -126h-256v184h256v-184z" />
    <glyph glyph-name="uniB4ED" unicode="&#xb4ed;" 
d="M663 424v69h-341v183h331v69h-406v-253q0 -28 20 -48t48 -20h348zM860 233v69h-820v-69h820zM653 -137v269h-75v-82h-256v82h-75v-269q0 -28 20 -48t48 -20h270q28 0 48 20t20 48zM578 -136h-256v116h256v-116z" />
    <glyph glyph-name="uniB4EF" unicode="&#xb4ef;" 
d="M663 424v69h-341v183h331v69h-406v-253q0 -28 20 -48t48 -20h348zM860 233v69h-820v-69h820zM699 -154l-249 293l-249 -293l57 -45l192 228l192 -228z" />
    <glyph glyph-name="uniB4F1" unicode="&#xb4f1;" 
d="M663 424v69h-341v183h331v69h-406v-253q0 -28 20 -48t48 -20h348zM860 233v69h-820v-69h820zM642 -42q0 35 -15 66.5t-41.5 55t-61.5 37.5t-74 14t-74 -13.5t-61 -37t-41.5 -55t-15.5 -67.5t15.5 -67.5t42 -55t61.5 -37t73 -13.5q39 0 74 14t61 37.5t41.5 55t15.5 66.5z
M567 -42q0 -24 -9.5 -43.5t-25.5 -33.5t-37 -21.5t-45 -7.5q-22 0 -43 7.5t-37.5 21.5t-26.5 33.5t-10 43.5t10 43.5t26.5 33.5t37.5 21.5t43 7.5q24 0 45 -7.5t37 -21.5t25.5 -33.5t9.5 -43.5z" />
    <glyph glyph-name="uniB4F8" unicode="&#xb4f8;" 
d="M521 409v70h-281v196h270v69h-345v-266q0 -28 20.5 -48.5t48.5 -20.5h287zM685 186v-151h75v730h-75v-510h-655v-69h655z" />
    <glyph glyph-name="uniB514" unicode="&#xb514;" 
d="M740 35v730h-75v-730h75zM478 326v70h-283v279h273v69h-348v-349q0 -28 20.5 -48.5t48.5 -20.5h289z" />
    <glyph glyph-name="uniB515" unicode="&#xb515;" 
d="M478 372v69h-283v234h273v69h-348v-304q0 -28 20.5 -48t48.5 -20h289zM740 -195v352v608h-75v-608h-346v-69h346v-283h75z" />
    <glyph glyph-name="uniB518" unicode="&#xb518;" 
d="M740 145v620h-76v-620h76zM478 372v69h-283v234h272v69h-347v-304q0 -28 20.5 -48t48.5 -20h289zM750 -195v69h-345v242h-76v-243q0 -28 20.5 -48t48.5 -20h352z" />
    <glyph glyph-name="uniB51B" unicode="&#xb51b;" 
d="M478 372v69h-283v234h272v69h-347v-304q0 -28 20.5 -48t48.5 -20h289zM750 -195v69h-345v214h335v69v608h-76v-608h-335v-284q0 -28 20.5 -48t48.5 -20h352z" />
    <glyph glyph-name="uniB51C" unicode="&#xb51c;" 
d="M478 372v69h-283v234h272v69h-347v-304q0 -28 20.5 -48t48.5 -20h289zM750 -215v64h-345v98h335v221v597h-76v-597h-335v-64h335v-97h-335v-154q0 -28 20.5 -48t48.5 -20h352z" />
    <glyph glyph-name="uniB524" unicode="&#xb524;" 
d="M478 372v69h-283v234h273v69h-348v-304q0 -28 20.5 -48t48.5 -20h289zM740 -127v284v608h-75v-608h-336v-284q0 -28 21 -48t49 -20h272q29 0 49 20t20 48zM665 -126h-260v214h260v-214z" />
    <glyph glyph-name="uniB525" unicode="&#xb525;" 
d="M478 372v69h-283v234h273v69h-348v-304q0 -28 20.5 -48t48.5 -20h289zM740 -132v289v608h-75v-620v-80h-260v92h-76v-289q0 -28 21 -48t49 -20h272q29 0 49 20t20 48zM665 -131h-260v127h260v-127z" />
    <glyph glyph-name="uniB527" unicode="&#xb527;" 
d="M739 145v620h-76v-620h76zM477 372v69h-282v234h272v69h-347v-304q0 -28 20.5 -48t48.5 -20h288zM765 -154l-252 293l-252 -293l59 -45l193 228l193 -228z" />
    <glyph glyph-name="uniB528" unicode="&#xb528;" 
d="M739 145v620h-76v-620h76zM477 372v69h-282v234h272v69h-347v-304q0 -28 20.5 -48t48.5 -20h288zM766 -173l-157 315l-128 -207l-126 207l-157 -315l65 -28l99 198l120 -180l121 180l98 -198z" />
    <glyph glyph-name="uniB529" unicode="&#xb529;" 
d="M479 371v70h-282v233h272v70h-349v-305q0 -28 21 -48t49 -20h289zM740 -32v797h-77v-650q-37 20 -64 28t-53 8q-39 0 -74.5 -14.5t-62 -39.5t-42 -58.5t-15.5 -70.5q0 -38 15.5 -71t42 -58t62 -39.5t74.5 -14.5t74.5 14.5t62 39.5t42 58t15.5 71zM663 -32q0 -25 -9.5 -46
t-26 -36t-37.5 -23.5t-44 -8.5t-44.5 8.5t-37.5 23.5t-25.5 36t-9.5 46t9.5 46t25.5 36t37.5 23.5t44.5 8.5t44.5 -8.5t37.5 -23.5t25.5 -36t9.5 -46z" />
    <glyph glyph-name="uniB52A" unicode="&#xb52a;" 
d="M477 372v69h-282v234h272v69h-347v-304q0 -28 20.5 -48t48.5 -20h288zM779 -155l-204 243h163v69v608h-75v-608h-334v-69h163l-204 -243l56 -44l189 226l189 -226z" />
    <glyph glyph-name="uniB530" unicode="&#xb530;" 
d="M870 493v69h-135v203h-75v-730h75v458h135zM537 326v70h-155v279h145v69h-427v-349q0 -28 20 -48.5t48 -20.5h369zM308 396h-133v279h133v-279z" />
    <glyph glyph-name="uniB531" unicode="&#xb531;" 
d="M537 372v69h-155v234h145v69h-427v-304q0 -28 20 -48t48 -20h369zM308 441h-133v234h133v-234zM735 -195v352v369h135v69h-135v170h-75v-608h-342v-69h342v-283h75z" />
    <glyph glyph-name="uniB534" unicode="&#xb534;" 
d="M870 526v69h-135v170h-75v-620h75v381h135zM537 372v69h-155v234h145v69h-427v-304q0 -28 20 -48t48 -20h369zM308 441h-133v234h133v-234zM745 -195v69h-342v242h-75v-243q0 -28 20.5 -48t48.5 -20h348z" />
    <glyph glyph-name="uniB538" unicode="&#xb538;" 
d="M537 372v69h-155v234h145v69h-427v-304q0 -28 20 -48t48 -20h369zM308 441h-133v234h133v-234zM745 -215v64h-342v98h332v221v358h135v69h-135v170h-75v-597h-332v-64h332v-97h-332v-154q0 -28 20.5 -48t48.5 -20h348z" />
    <glyph glyph-name="uniB540" unicode="&#xb540;" 
d="M537 372v69h-155v234h145v69h-427v-304q0 -28 20 -48t48 -20h369zM308 441h-133v234h133v-234zM735 -127v284v369h135v69h-135v170h-75v-608h-332v-284q0 -28 20.5 -48t48.5 -20h270q28 0 48 20t20 48zM660 -126h-257v214h257v-214z" />
    <glyph glyph-name="uniB541" unicode="&#xb541;" 
d="M537 372v69h-155v234h145v69h-427v-304q0 -28 20 -48t48 -20h369zM308 441h-133v234h133v-234zM735 -132v289v369h135v69h-135v170h-75v-620v-80h-257v92h-75v-289q0 -28 20.5 -48t48.5 -20h270q28 0 48 20t20 48zM660 -131h-257v127h257v-127z" />
    <glyph glyph-name="uniB543" unicode="&#xb543;" 
d="M870 526v69h-135v170h-75v-620h75v381h135zM537 372v69h-155v234h145v69h-427v-304q0 -28 20 -48t48 -20h369zM308 441h-133v234h133v-234zM761 -154l-250 293l-250 -293l58 -45l192 228l192 -228z" />
    <glyph glyph-name="uniB544" unicode="&#xb544;" 
d="M870 526v69h-135v170h-75v-620h75v381h135zM537 372v69h-155v234h145v69h-427v-304q0 -28 20 -48t48 -20h369zM308 441h-133v234h133v-234zM762 -173l-156 315l-126 -207l-126 207l-155 -315l64 -28l98 198l119 -180l120 180l97 -198z" />
    <glyph glyph-name="uniB545" unicode="&#xb545;" 
d="M870 526v69h-135v170h-75v-652q-37 20 -64 28t-53 8q-39 0 -73.5 -14t-61 -39t-42 -58t-15.5 -71q0 -37 15.5 -70t41.5 -58t61 -39.5t74 -14.5q40 0 75 14.5t61 39.5t41 58t15 70v559h135zM660 -33q0 -26 -9.5 -47t-25 -36t-37 -23.5t-45.5 -8.5q-23 0 -44.5 8.5
t-37.5 23.5t-25.5 36t-9.5 47t9.5 47.5t26 36.5t37.5 23.5t44 8.5q24 0 45.5 -8.5t37 -24t25 -37t9.5 -46.5zM537 372v69h-155v234h145v69h-427v-304q0 -28 20 -48t48 -20h369zM308 441h-133v234h133v-234z" />
    <glyph glyph-name="uniB54B" unicode="&#xb54b;" 
d="M537 372v69h-155v234h145v69h-427v-304q0 -28 20 -48t48 -20h369zM308 441h-133v234h133v-234zM675 -45q0 32 -12.5 61.5t-33.5 51.5h106v69v389h135v69h-135v170h-75v-628h-127v82h-75v-82h-202v-69h106q-22 -22 -34 -51.5t-12 -61.5q0 -35 14.5 -66t39 -54t57 -36.5
t68.5 -13.5t69 13.5t57.5 36.5t39 54t14.5 66zM600 -45q0 -23 -8 -41.5t-22.5 -32.5t-33.5 -21.5t-41 -7.5q-21 0 -40 7.5t-33.5 21.5t-22.5 32.5t-8 41.5q0 22 8 41t22.5 33t33.5 21.5t40 7.5q22 0 41 -7.5t33.5 -21.5t22.5 -33t8 -41z" />
    <glyph glyph-name="uniB54C" unicode="&#xb54c;" 
d="M770 35v730h-75v-192h-110v192h-73v-730h73v468h110v-468h75zM457 326v70h-115v279h104v69h-356v-349q0 -28 20.5 -48.5t48.5 -20.5h298zM267 396h-102v279h102v-279z" />
    <glyph glyph-name="uniB54D" unicode="&#xb54d;" 
d="M457 372v69h-115v234h104v69h-356v-304q0 -28 20.5 -48t48.5 -20h298zM267 441h-102v234h102v-234zM770 -195v352v608h-75v-170h-110v170h-73v-496h73v257h110v-369h-344v-69h344v-283h75z" />
    <glyph glyph-name="uniB550" unicode="&#xb550;" 
d="M770 145v620h-75v-170h-110v170h-73v-620h73v381h110v-381h75zM456 372v69h-114v234h104v69h-356v-304q0 -28 20.5 -48t48.5 -20h297zM267 441h-102v234h102v-234zM780 -195v69h-344v242h-75v-243q0 -28 20.5 -48t48.5 -20h350z" />
    <glyph glyph-name="uniB554" unicode="&#xb554;" 
d="M456 372v69h-114v234h104v69h-356v-304q0 -28 20.5 -48t48.5 -20h297zM267 441h-102v234h102v-234zM780 -215v64h-344v98h334v221v597h-75v-170h-110v170h-73v-496h73v257h110v-358h-334v-64h334v-97h-334v-154q0 -28 20.5 -48t48.5 -20h350z" />
    <glyph glyph-name="uniB55C" unicode="&#xb55c;" 
d="M457 372v69h-115v234h104v69h-356v-304q0 -28 20.5 -48t48.5 -20h298zM267 441h-102v234h102v-234zM770 -127v284v608h-75v-170h-110v170h-73v-496h73v257h110v-369h-334v-284q0 -28 20.5 -48t48.5 -20h271q29 0 49 20t20 48zM695 -126h-259v214h259v-214z" />
    <glyph glyph-name="uniB55D" unicode="&#xb55d;" 
d="M457 372v69h-115v234h104v69h-356v-304q0 -28 20.5 -48t48.5 -20h298zM267 441h-102v234h102v-234zM770 -132v289v608h-75v-170h-110v170h-73v-496h73v257h110v-381v-80h-259v92h-75v-289q0 -28 20.5 -48t48.5 -20h271q29 0 49 20t20 48zM695 -131h-259v127h259v-127z
" />
    <glyph glyph-name="uniB55F" unicode="&#xb55f;" 
d="M769 145v620h-75v-170h-110v170h-72v-496h72v257h110v-381h75zM456 372v69h-114v234h104v69h-356v-304q0 -28 20.5 -48t48.5 -20h297zM267 441h-102v234h102v-234zM795 -154l-251 293l-251 -293l58 -45l193 228l193 -228z" />
    <glyph glyph-name="uniB560" unicode="&#xb560;" 
d="M769 145v620h-75v-170h-110v170h-72v-496h72v257h110v-381h75zM456 372v69h-114v234h104v69h-356v-304q0 -28 20.5 -48t48.5 -20h297zM267 441h-102v234h102v-234zM796 -173l-157 315l-126 -207l-126 207l-156 -315l64 -28l98 198l120 -180l120 180l98 -198z" />
    <glyph glyph-name="uniB561" unicode="&#xb561;" 
d="M770 -33v798h-75v-170h-110v170h-73v-496h73v257h110v-413q-37 20 -64.5 28t-53.5 8q-39 0 -74 -14.5t-61.5 -39t-42 -58t-15.5 -70.5t15.5 -70t41.5 -58t61.5 -39.5t74.5 -14.5q40 0 75 15t61 40t41.5 58t15.5 69zM695 -33q0 -26 -9.5 -47t-25.5 -36t-37.5 -23.5
t-45.5 -8.5t-45.5 8.5t-37.5 23.5t-25.5 36t-9.5 47q0 25 9.5 46.5t25.5 37t37.5 24t45.5 8.5t45.5 -8.5t37.5 -24t25.5 -37t9.5 -46.5zM457 372v69h-115v234h104v69h-356v-304q0 -28 20.5 -48t48.5 -20h298zM267 441h-102v234h102v-234z" />
    <glyph glyph-name="uniB5A0" unicode="&#xb5a0;" 
d="M760 35v730h-75v-192h-168v-70h168v-468h75zM560 326v70h-156v279h146v69h-430v-349q0 -28 20.5 -48.5t48.5 -20.5h371zM329 396h-134v279h134v-279z" />
    <glyph glyph-name="uniB5A1" unicode="&#xb5a1;" 
d="M560 372v69h-156v234h146v69h-430v-304q0 -28 20.5 -48t48.5 -20h371zM329 441h-134v234h134v-234zM760 -195v352v608h-75v-170h-168v-69h168v-369h-345v-69h345v-283h75z" />
    <glyph glyph-name="uniB5A4" unicode="&#xb5a4;" 
d="M760 145v620h-76v-170h-167v-69h167v-381h76zM560 372v69h-156v234h146v69h-430v-304q0 -28 20.5 -48t48.5 -20h371zM329 441h-134v234h134v-234zM770 -195v69h-345v242h-75v-243q0 -28 20.5 -48t48.5 -20h351z" />
    <glyph glyph-name="uniB5A8" unicode="&#xb5a8;" 
d="M560 372v69h-156v234h146v69h-430v-304q0 -28 20.5 -48t48.5 -20h371zM329 441h-134v234h134v-234zM770 -215v64h-345v98h335v221v597h-76v-170h-167v-69h167v-358h-334v-64h334v-97h-334v-154q0 -28 20.5 -48t48.5 -20h351z" />
    <glyph glyph-name="uniB5AA" unicode="&#xb5aa;" 
d="M560 372v69h-156v234h146v69h-430v-304q0 -28 20.5 -48t48.5 -20h371zM329 441h-134v234h134v-234zM760 -137v305v597h-75v-170h-168v-69h168v-358h-178v-305q0 -28 20.5 -48t48.5 -20h115q29 0 49 20t20 48zM685 -136h-103v235h103v-235zM446 -205v64h-167v93h157v216
h-232v-64h157v-92h-157v-149q0 -28 20.5 -48t48.5 -20h173z" />
    <glyph glyph-name="uniB5AB" unicode="&#xb5ab;" 
d="M560 372v69h-156v234h146v69h-430v-304q0 -28 20.5 -48t48.5 -20h371zM329 441h-134v234h134v-234zM760 -137v305v597h-75v-170h-168v-69h168v-381v-80h-103v103h-75v-305q0 -28 20.5 -48t48.5 -20h115q29 0 49 20t20 48zM685 -136h-103v132h103v-132zM446 -205v64h-167
v93h157v216h-232v-64h157v-92h-157v-149q0 -28 20.5 -48t48.5 -20h173z" />
    <glyph glyph-name="uniB5B0" unicode="&#xb5b0;" 
d="M560 372v69h-156v234h146v69h-430v-304q0 -28 20.5 -48t48.5 -20h371zM329 441h-134v234h134v-234zM760 -127v284v608h-75v-170h-168v-69h168v-369h-335v-284q0 -28 20.5 -48t48.5 -20h272q29 0 49 20t20 48zM685 -126h-260v214h260v-214z" />
    <glyph glyph-name="uniB5B1" unicode="&#xb5b1;" 
d="M560 372v69h-156v234h146v69h-430v-304q0 -28 20.5 -48t48.5 -20h371zM329 441h-134v234h134v-234zM760 -132v289v608h-75v-170h-168v-69h168v-381v-80h-260v92h-75v-289q0 -28 20.5 -48t48.5 -20h272q29 0 49 20t20 48zM685 -131h-260v127h260v-127z" />
    <glyph glyph-name="uniB5B3" unicode="&#xb5b3;" 
d="M759 145v620h-75v-170h-167v-69h167v-381h75zM560 372v69h-156v234h145v69h-429v-304q0 -28 20.5 -48t48.5 -20h371zM329 441h-134v234h134v-234zM785 -154l-252 293l-251 -293l58 -45l193 228l193 -228z" />
    <glyph glyph-name="uniB5B4" unicode="&#xb5b4;" 
d="M759 145v620h-75v-170h-167v-69h167v-381h75zM560 372v69h-156v234h145v69h-429v-304q0 -28 20.5 -48t48.5 -20h371zM329 441h-134v234h134v-234zM786 -173l-157 315l-127 -207l-126 207l-157 -315l65 -28l98 198l120 -180l121 180l98 -198z" />
    <glyph glyph-name="uniB5B5" unicode="&#xb5b5;" 
d="M560 372v69h-156v234h146v69h-430v-304q0 -28 20.5 -48t48.5 -20h371zM329 441h-134v234h134v-234zM760 -33v798h-75v-170h-168v-69h168v-413q-38 20 -65 28t-53 8q-39 0 -74 -14t-62 -39t-42.5 -58t-15.5 -71q0 -37 15.5 -70t42 -58t61.5 -39.5t75 -14.5t75 15t61 40
t41.5 58t15.5 69zM685 -33q0 -25 -9.5 -46t-26 -36.5t-38 -24t-44.5 -8.5q-24 0 -45.5 8.5t-38 23.5t-26 36t-9.5 47q0 25 9.5 46.5t26 37t38 24t45.5 8.5q23 0 44 -8.5t37.5 -24t26.5 -37t10 -46.5z" />
    <glyph glyph-name="uniB5BB" unicode="&#xb5bb;" 
d="M560 372v69h-156v234h146v69h-430v-304q0 -28 20.5 -48t48.5 -20h371zM329 441h-134v234h134v-234zM699 -45q0 32 -12 61.5t-34 51.5h107v69v628h-75v-170h-168v-69h168v-389h-129v82h-75v-82h-204v-69h107q-22 -22 -34 -51.5t-12 -61.5q0 -35 14.5 -66t39 -54
t57.5 -36.5t69 -13.5q37 0 70 13.5t57.5 36.5t39 54t14.5 66zM624 -45q0 -23 -8.5 -41.5t-22.5 -32.5t-33.5 -21.5t-41.5 -7.5q-21 0 -40.5 7.5t-33.5 21.5t-22.5 32.5t-8.5 41.5q0 22 8.5 41t22.5 33t33.5 21.5t40.5 7.5q22 0 41.5 -7.5t33.5 -21.5t22.5 -33t8.5 -41z" />
    <glyph glyph-name="uniB5BC" unicode="&#xb5bc;" 
d="M770 35v730h-75v-730h75zM603 35v730h-73v-192h-106v-70h106v-468h73zM457 326v70h-115v279h104v69h-356v-349q0 -28 20.5 -48.5t48.5 -20.5h298zM267 396h-102v279h102v-279z" />
    <glyph glyph-name="uniB5BD" unicode="&#xb5bd;" 
d="M603 269v496h-73v-170h-106v-69h106v-257h73zM457 372v69h-115v234h104v69h-356v-304q0 -28 20.5 -48t48.5 -20h298zM267 441h-102v234h102v-234zM770 -195v352v608h-75v-608h-344v-69h344v-283h75z" />
    <glyph glyph-name="uniB5C0" unicode="&#xb5c0;" 
d="M770 145v620h-75v-620h75zM603 145v620h-73v-170h-106v-69h106v-381h73zM456 372v69h-114v234h104v69h-356v-304q0 -28 20.5 -48t48.5 -20h297zM267 441h-102v234h102v-234zM780 -195v69h-344v242h-75v-243q0 -28 20.5 -48t48.5 -20h350z" />
    <glyph glyph-name="uniB5C4" unicode="&#xb5c4;" 
d="M603 269v496h-73v-170h-106v-69h106v-257h73zM456 372v69h-114v234h104v69h-356v-304q0 -28 20.5 -48t48.5 -20h297zM267 441h-102v234h102v-234zM780 -215v64h-344v98h334v221v597h-75v-597h-334v-64h334v-97h-334v-154q0 -28 20.5 -48t48.5 -20h350z" />
    <glyph glyph-name="uniB5CC" unicode="&#xb5cc;" 
d="M603 269v496h-73v-170h-106v-69h106v-257h73zM457 372v69h-115v234h104v69h-356v-304q0 -28 20.5 -48t48.5 -20h298zM267 441h-102v234h102v-234zM770 -127v284v608h-75v-608h-334v-284q0 -28 20.5 -48t48.5 -20h271q29 0 49 20t20 48zM695 -126h-259v214h259v-214z" />
    <glyph glyph-name="uniB5CD" unicode="&#xb5cd;" 
d="M603 269v496h-73v-170h-106v-69h106v-257h73zM457 372v69h-115v234h104v69h-356v-304q0 -28 20.5 -48t48.5 -20h298zM267 441h-102v234h102v-234zM770 -132v289v608h-75v-620v-80h-259v92h-75v-289q0 -28 20.5 -48t48.5 -20h271q29 0 49 20t20 48zM695 -131h-259v127h259
v-127z" />
    <glyph glyph-name="uniB5CF" unicode="&#xb5cf;" 
d="M769 145v620h-75v-620h75zM602 269v496h-73v-170h-106v-69h106v-257h73zM456 372v69h-114v234h104v69h-356v-304q0 -28 20.5 -48t48.5 -20h297zM267 441h-102v234h102v-234zM795 -154l-251 293l-251 -293l58 -45l193 228l193 -228z" />
    <glyph glyph-name="uniB5D0" unicode="&#xb5d0;" 
d="M769 145v620h-75v-620h75zM602 269v496h-73v-170h-106v-69h106v-257h73zM456 372v69h-114v234h104v69h-356v-304q0 -28 20.5 -48t48.5 -20h297zM267 441h-102v234h102v-234zM796 -173l-157 315l-126 -207l-126 207l-156 -315l64 -28l98 198l120 -180l120 180l98 -198z
" />
    <glyph glyph-name="uniB5D1" unicode="&#xb5d1;" 
d="M603 269v496h-73v-170h-106v-69h106v-257h73zM770 -33v798h-75v-652q-37 20 -64.5 28t-53.5 8q-39 0 -74 -14.5t-61.5 -39t-42 -58t-15.5 -70.5t15.5 -70t41.5 -58t61.5 -39.5t74.5 -14.5q40 0 75 15t61 40t41.5 58t15.5 69zM695 -33q0 -26 -9.5 -47t-25.5 -36
t-37.5 -23.5t-45.5 -8.5t-45.5 8.5t-37.5 23.5t-25.5 36t-9.5 47q0 25 9.5 46.5t25.5 37t37.5 24t45.5 8.5t45.5 -8.5t37.5 -24t25.5 -37t9.5 -46.5zM457 372v69h-115v234h104v69h-356v-304q0 -28 20.5 -48t48.5 -20h298zM267 441h-102v234h102v-234z" />
    <glyph glyph-name="uniB5D8" unicode="&#xb5d8;" 
d="M760 35v730h-75v-114h-136v-70h136v-97h-136v-69h136v-380h75zM539 295v70h-135v310h125v69h-409v-380q0 -28 20.5 -48.5t48.5 -20.5h350zM329 365h-134v310h134v-310z" />
    <glyph glyph-name="uniB5EC" unicode="&#xb5ec;" 
d="M759 145v620h-75v-82h-136v-69h136v-96h-136v-69h136v-304h75zM539 341v69h-135v265h124v69h-408v-335q0 -28 20.5 -48t48.5 -20h350zM329 410h-134v265h134v-265zM786 -173l-157 315l-127 -207l-126 207l-157 -315l65 -28l98 198l120 -180l121 180l98 -198z" />
    <glyph glyph-name="uniB610" unicode="&#xb610;" 
d="M860 140v70h-373v176h213v71h-171v218h160v70h-478v-289q0 -28 20 -49t48 -21h134v-176h-373v-70h820zM454 457h-169v218h169v-218z" />
    <glyph glyph-name="uniB611" unicode="&#xb611;" 
d="M860 222v69h-373v132h207v69h-165v184h155v69h-468v-254q0 -28 20 -48t48 -20h129v-132h-373v-69h820zM454 492h-163v184h163v-184zM653 -195v301h-416v-69h341v-232h75z" />
    <glyph glyph-name="uniB614" unicode="&#xb614;" 
d="M860 212v69h-373v142h207v69h-165v184h155v69h-468v-254q0 -28 20 -48t48 -20h129v-142h-373v-69h820zM454 492h-163v184h163v-184zM663 -195v69h-341v201h-75v-202q0 -28 20 -48t48 -20h348z" />
    <glyph glyph-name="uniB618" unicode="&#xb618;" 
d="M860 243v69h-373v112h207v69h-165v183h155v69h-468v-253q0 -28 20 -48t48 -20h129v-112h-373v-69h820zM454 493h-163v183h163v-183zM663 -215v64h-341v87h331v212h-406v-64h331v-87h-331v-144q0 -28 20 -48t48 -20h348z" />
    <glyph glyph-name="uniB625" unicode="&#xb625;" 
d="M860 233v69h-373v122h207v69h-165v183h155v69h-468v-253q0 -28 20 -48t48 -20h129v-122h-373v-69h820zM454 493h-163v183h163v-183zM642 -42q0 35 -15 66.5t-41.5 55t-61.5 37.5t-74 14t-74 -13.5t-61 -37t-41.5 -55t-15.5 -67.5t15.5 -67.5t42 -55t61.5 -37t73 -13.5
q39 0 74 14t61 37.5t41.5 55t15.5 66.5zM567 -42q0 -24 -9.5 -43.5t-25.5 -33.5t-37 -21.5t-45 -7.5q-22 0 -43 7.5t-37.5 21.5t-26.5 33.5t-10 43.5t10 43.5t26.5 33.5t37.5 21.5t43 7.5q24 0 45 -7.5t37 -21.5t25.5 -33.5t9.5 -43.5z" />
    <glyph glyph-name="uniB62C" unicode="&#xb62c;" 
d="M671 186v-151h75v458h134v69h-134v203h-75v-510h-292v154h180v70h-134v196h124v69h-395v-266q0 -28 20.5 -48.5t48.5 -20.5h81v-154h-284v-69h651zM351 479h-122v196h122v-196z" />
    <glyph glyph-name="uniB634" unicode="&#xb634;" 
d="M756 -215v64h-341v87h331v211v379h134v69h-134v170h-75v-453h-292v122h180v69h-134v172h124v69h-395v-243q0 -28 20.5 -47.5t48.5 -19.5h81v-122h-284v-69h651v-96h-331v-63h331v-87h-331v-144q0 -28 20.5 -48t48.5 -20h347zM351 503h-122v172h122v-172z" />
    <glyph glyph-name="uniB648" unicode="&#xb648;" 
d="M536 186h60v307h109v-458h75v730h-75v-203h-109v203h-72v-510h-216v154h150v70h-103v196h93v69h-345v-266q0 -28 20.5 -48.5t48.5 -20.5h61v-154h-223v-69h514h12zM280 479h-102v196h102v-196z" />
    <glyph glyph-name="uniB664" unicode="&#xb664;" 
d="M685 186v-151h75v730h-75v-510h-294v154h181v70h-134v196h124v69h-397v-266q0 -28 20.5 -48.5t48.5 -20.5h82v-154h-286v-69h655zM363 479h-123v196h123v-196z" />
    <glyph glyph-name="uniB668" unicode="&#xb668;" 
d="M685 222v-108h75v651h-75v-474h-294v142h181v69h-135v173h125v69h-397v-243q0 -28 20.5 -48t48.5 -20h82v-142h-286v-69h655zM363 502h-123v173h123v-173zM770 -195v69h-343v201h-75v-202q0 -28 20.5 -48t48.5 -20h349z" />
    <glyph glyph-name="uniB69C" unicode="&#xb69c;" 
d="M700 400v70h-171v205h160v70h-478v-276q0 -28 20 -48.5t48 -20.5h421zM454 470h-169v205h169v-205zM487 -15v213h373v69h-820v-69h373v-213h74z" />
    <glyph glyph-name="uniB69D" unicode="&#xb69d;" 
d="M694 423v69h-165v184h155v69h-468v-254q0 -28 20 -48t48 -20h410zM454 492h-163v184h163v-184zM653 -195v301h-166v137h373v69h-820v-69h373v-137h-176v-69h341v-232h75z" />
    <glyph glyph-name="uniB6A0" unicode="&#xb6a0;" 
d="M694 423v69h-165v184h155v69h-468v-254q0 -28 20 -48t48 -20h410zM454 492h-163v184h163v-184zM518 52v181h342v69h-820v-69h404v-181h74zM663 -195v69h-341v201h-75v-202q0 -28 20 -48t48 -20h348z" />
    <glyph glyph-name="uniB6A4" unicode="&#xb6a4;" 
d="M694 424v69h-165v183h155v69h-468v-253q0 -28 20 -48t48 -20h410zM454 493h-163v183h163v-183zM663 -215v64h-341v87h331v212h-166v116h373v69h-820v-69h373v-116h-166v-64h331v-87h-331v-144q0 -28 20 -48t48 -20h348z" />
    <glyph glyph-name="uniB6AB" unicode="&#xb6ab;" 
d="M694 424v69h-165v183h155v69h-468v-253q0 -28 20 -48t48 -20h410zM454 493h-163v183h163v-183zM744 -48q0 57 -30 101h63v69h-140v67h-74v-67h-76v142h373v69h-820v-69h373v-149h10v-62h63q-30 -44 -30 -101q0 -35 12 -65.5t32 -53t46 -35.5t54 -13t54 13t46 35.5t32 53
t12 65.5zM669 -48q0 -18 -5 -35.5t-14 -32t-22 -23.5t-28 -9q-16 0 -28.5 9t-21.5 23.5t-14 32t-5 35.5t5 35.5t14 32t21.5 23.5t28.5 9q15 0 28 -9t22 -23.5t14 -32t5 -35.5zM415 -205v64h-166v88h155v211h-229v-64h155v-87h-155v-144q0 -28 20 -48t48 -20h172z" />
    <glyph glyph-name="uniB6AC" unicode="&#xb6ac;" 
d="M694 423v69h-165v184h155v69h-468v-254q0 -28 20 -48t48 -20h410zM454 492h-163v184h163v-184zM653 -127v254h-166v126h373v69h-820v-69h373v-126h-166v-254q0 -28 20 -48t48 -20h270q28 0 48 20t20 48zM578 -126h-256v184h256v-184z" />
    <glyph glyph-name="uniB6B1" unicode="&#xb6b1;" 
d="M694 424v69h-165v183h155v69h-468v-253q0 -28 20 -48t48 -20h410zM454 493h-163v183h163v-183zM642 -42q0 30 -12 58.5t-32.5 51t-49 38.5t-61.5 22v126h373v69h-820v-69h373v-126q-32 -6 -60.5 -21.5t-49.5 -38t-33 -51t-12 -59.5q0 -36 15.5 -67.5t42 -55t61.5 -37
t73 -13.5q39 0 74 14t61 37.5t41.5 55t15.5 66.5zM567 -42q0 -24 -9.5 -43.5t-25.5 -33.5t-37 -21.5t-45 -7.5q-22 0 -43 7.5t-37.5 21.5t-26.5 33.5t-10 43.5t10 43.5t26.5 33.5t37.5 21.5t43 7.5q24 0 45 -7.5t37 -21.5t25.5 -33.5t9.5 -43.5z" />
    <glyph glyph-name="uniB6D4" unicode="&#xb6d4;" 
d="M780 35v730h-75v-730h75zM614 149v616h-73v-548h-168v-68h241zM448 461v70h-88v144h78v69h-324v-214q0 -28 20 -48.5t48 -20.5h266zM285 531h-97v144h97v-144zM282 56v234h166v69h-438v-69h197v-234h75z" />
    <glyph glyph-name="uniB6F0" unicode="&#xb6f0;" 
d="M562 461v70h-124v144h114v69h-387v-214q0 -28 20.5 -48.5t48.5 -20.5h328zM363 531h-123v144h123v-144zM354 56v213h331v-234h75v730h-75v-426h-655v-70h250v-213h74z" />
    <glyph glyph-name="uniB6F4" unicode="&#xb6f4;" 
d="M562 464v69h-125v142h115v69h-387v-212q0 -28 20.5 -48t48.5 -20h328zM363 533h-123v142h123v-142zM354 155l9 119h322v-191h75v682h-75v-422h-655v-69h249v-119h75zM770 -195v69h-343v201h-75v-202q0 -28 20.5 -48t48.5 -20h349z" />
    <glyph glyph-name="uniB6F8" unicode="&#xb6f8;" 
d="M562 464v69h-125v142h115v69h-387v-212q0 -28 20.5 -48t48.5 -20h328zM363 533h-123v142h123v-142zM770 -215v64h-343v77h333v201v638h-75v-401h-655v-69h249v-119h75v119h331v-168h-333v-64h333v-76h-333v-134q0 -28 20.5 -48t48.5 -20h349z" />
    <glyph glyph-name="uniB700" unicode="&#xb700;" 
d="M562 464v69h-124v142h114v69h-387v-212q0 -28 20.5 -48t48.5 -20h328zM363 533h-123v142h123v-142zM760 -127v233v659h-75v-402h-655v-69h250v-118h74v118h331v-188h-333v-233q0 -28 20.5 -48t48.5 -20h270q29 0 49 20t20 48zM685 -126h-258v163h258v-163z" />
    <glyph glyph-name="uniB701" unicode="&#xb701;" 
d="M562 464v69h-124v142h114v69h-387v-212q0 -28 20.5 -48t48.5 -20h328zM363 533h-123v142h123v-142zM760 -137v248v654h-75v-402h-655v-69h250v-118h74v118h331v-211v-44h-258v72h-75v-248q0 -28 20.5 -48t48.5 -20h270q29 0 49 20t20 48zM685 -136h-258v106h258v-106z
" />
    <glyph glyph-name="uniB705" unicode="&#xb705;" 
d="M562 464v69h-124v142h114v69h-387v-212q0 -28 20.5 -48t48.5 -20h328zM363 533h-123v142h123v-142zM354 125l9 149h322v-185q-36 18 -61 25t-50 7q-39 0 -72.5 -13.5t-59 -36.5t-40 -53.5t-14.5 -64.5t14.5 -64.5t40 -53.5t59 -36.5t72.5 -13.5q38 0 72 13.5t59.5 37
t40 54t14.5 63.5v812h-75v-422h-655v-69h250v-149h74zM685 -47q0 -21 -9.5 -39.5t-25 -32t-35.5 -21.5t-41 -8t-41 7.5t-35.5 21t-25 32t-9.5 40.5t9.5 40.5t25 32t35.5 21t41 7.5t41 -8t35.5 -21.5t25 -32t9.5 -39.5z" />
    <glyph glyph-name="uniB728" unicode="&#xb728;" 
d="M700 386v71h-171v218h160v70h-478v-289q0 -28 20 -49t48 -21h421zM454 457h-169v218h169v-218zM860 140v70h-820v-70h820z" />
    <glyph glyph-name="uniB729" unicode="&#xb729;" 
d="M694 423v69h-165v184h155v69h-468v-254q0 -28 20 -48t48 -20h410zM454 492h-163v184h163v-184zM860 233v69h-820v-69h820zM653 -195v301h-416v-69h341v-232h75z" />
    <glyph glyph-name="uniB72C" unicode="&#xb72c;" 
d="M694 423v69h-165v184h155v69h-468v-254q0 -28 20 -48t48 -20h410zM454 492h-163v184h163v-184zM860 212v69h-820v-69h820zM663 -195v69h-341v201h-75v-202q0 -28 20 -48t48 -20h348z" />
    <glyph glyph-name="uniB72F" unicode="&#xb72f;" 
d="M694 423v69h-165v184h155v69h-468v-254q0 -28 20 -48t48 -20h410zM454 492h-163v184h163v-184zM860 243v69h-820v-69h820zM663 -195v69h-341v184h331v69h-406v-254q0 -28 20 -48t48 -20h348z" />
    <glyph glyph-name="uniB730" unicode="&#xb730;" 
d="M694 424v69h-165v183h155v69h-468v-253q0 -28 20 -48t48 -20h410zM454 493h-163v183h163v-183zM860 254v69h-820v-69h820zM663 -215v64h-341v87h331v212h-406v-64h331v-87h-331v-144q0 -28 20 -48t48 -20h348z" />
    <glyph glyph-name="uniB738" unicode="&#xb738;" 
d="M694 423v69h-165v184h155v69h-468v-254q0 -28 20 -48t48 -20h410zM454 492h-163v184h163v-184zM860 243v69h-820v-69h820zM653 -127v254h-406v-254q0 -28 20 -48t48 -20h270q28 0 48 20t20 48zM578 -126h-256v184h256v-184z" />
    <glyph glyph-name="uniB739" unicode="&#xb739;" 
d="M694 424v69h-165v183h155v69h-468v-253q0 -28 20 -48t48 -20h410zM454 493h-163v183h163v-183zM860 233v69h-820v-69h820zM653 -137v269h-75v-82h-256v82h-75v-269q0 -28 20 -48t48 -20h270q28 0 48 20t20 48zM578 -136h-256v116h256v-116z" />
    <glyph glyph-name="uniB73B" unicode="&#xb73b;" 
d="M694 424v69h-165v183h155v69h-468v-253q0 -28 20 -48t48 -20h410zM454 493h-163v183h163v-183zM860 233v69h-820v-69h820zM699 -154l-249 293l-249 -293l57 -45l192 228l192 -228z" />
    <glyph glyph-name="uniB744" unicode="&#xb744;" 
d="M562 409v70h-124v196h114v69h-387v-266q0 -28 20.5 -48.5t48.5 -20.5h328zM363 479h-123v196h123v-196zM685 186v-151h75v730h-75v-510h-655v-69h655z" />
    <glyph glyph-name="uniB748" unicode="&#xb748;" 
d="M562 433v69h-125v173h115v69h-387v-243q0 -28 20.5 -48t48.5 -20h328zM363 502h-123v173h123v-173zM685 222v-108h75v651h-75v-474h-655v-69h655zM770 -195v69h-343v201h-75v-202q0 -28 20.5 -48t48.5 -20h349z" />
    <glyph glyph-name="uniB74C" unicode="&#xb74c;" 
d="M562 434v69h-125v172h115v69h-387v-243q0 -28 20.5 -47.5t48.5 -19.5h328zM363 503h-123v172h123v-172zM770 -215v64h-343v87h333v211v618h-75v-443h-655v-69h655v-106h-333v-63h333v-87h-333v-144q0 -28 20.5 -48t48.5 -20h349z" />
    <glyph glyph-name="uniB754" unicode="&#xb754;" 
d="M562 433v69h-124v173h114v69h-387v-243q0 -28 20.5 -48t48.5 -20h328zM363 502h-123v173h123v-173zM760 -127v253v639h-75v-453h-655v-69h655v-117h-333v-253q0 -28 20.5 -48t48.5 -20h270q29 0 49 20t20 48zM685 -126h-258v183h258v-183z" />
    <glyph glyph-name="uniB755" unicode="&#xb755;" 
d="M562 433v69h-124v173h114v69h-387v-243q0 -28 20.5 -48t48.5 -20h328zM363 502h-123v173h123v-173zM760 -137v269v633h-75v-453h-655v-69h655v-129v-65h-258v83h-75v-269q0 -28 20.5 -48t48.5 -20h270q29 0 49 20t20 48zM685 -136h-258v116h258v-116z" />
    <glyph glyph-name="uniB760" unicode="&#xb760;" 
d="M760 35v730h-75v-730h75zM560 326v70h-156v279h146v69h-430v-349q0 -28 20.5 -48.5t48.5 -20.5h371zM329 396h-134v279h134v-279z" />
    <glyph glyph-name="uniB764" unicode="&#xb764;" 
d="M760 145v620h-76v-620h76zM560 372v69h-156v234h146v69h-430v-304q0 -28 20.5 -48t48.5 -20h371zM329 441h-134v234h134v-234zM770 -195v69h-345v242h-75v-243q0 -28 20.5 -48t48.5 -20h351z" />
    <glyph glyph-name="uniB768" unicode="&#xb768;" 
d="M560 372v69h-156v234h146v69h-430v-304q0 -28 20.5 -48t48.5 -20h371zM329 441h-134v234h134v-234zM770 -215v64h-345v98h335v221v597h-76v-597h-334v-64h334v-97h-334v-154q0 -28 20.5 -48t48.5 -20h351z" />
    <glyph glyph-name="uniB770" unicode="&#xb770;" 
d="M560 372v69h-156v234h146v69h-430v-304q0 -28 20.5 -48t48.5 -20h371zM329 441h-134v234h134v-234zM760 -127v284v608h-75v-608h-335v-284q0 -28 20.5 -48t48.5 -20h272q29 0 49 20t20 48zM685 -126h-260v214h260v-214z" />
    <glyph glyph-name="uniB771" unicode="&#xb771;" 
d="M560 372v69h-156v234h146v69h-430v-304q0 -28 20.5 -48t48.5 -20h371zM329 441h-134v234h134v-234zM760 -132v289v608h-75v-620v-80h-260v92h-75v-289q0 -28 20.5 -48t48.5 -20h272q29 0 49 20t20 48zM685 -131h-260v127h260v-127z" />
    <glyph glyph-name="uniB773" unicode="&#xb773;" 
d="M759 145v620h-75v-620h75zM560 372v69h-156v234h145v69h-429v-304q0 -28 20.5 -48t48.5 -20h371zM329 441h-134v234h134v-234zM785 -154l-252 293l-251 -293l58 -45l193 228l193 -228z" />
    <glyph glyph-name="uniB775" unicode="&#xb775;" 
d="M560 372v69h-156v234h146v69h-430v-304q0 -28 20.5 -48t48.5 -20h371zM329 441h-134v234h134v-234zM760 -33v798h-75v-652q-38 20 -65 28t-53 8q-39 0 -74 -14t-62 -39t-42.5 -58t-15.5 -71q0 -37 15.5 -70t42 -58t61.5 -39.5t75 -14.5t75 15t61 40t41.5 58t15.5 69z
M685 -33q0 -25 -9.5 -46t-26 -36.5t-38 -24t-44.5 -8.5q-24 0 -45.5 8.5t-38 23.5t-26 36t-9.5 47q0 25 9.5 46.5t26 37t38 24t45.5 8.5q23 0 44 -8.5t37.5 -24t26.5 -37t10 -46.5z" />
    <glyph glyph-name="uniB77C" unicode="&#xb77c;" 
d="M850 493v69h-135v203h-75v-730h75v458h135zM466 305v65h-291v127h280v247h-355v-64h280v-122h-280v-184q0 -28 20.5 -48.5t48.5 -20.5h297z" />
    <glyph glyph-name="uniB77D" unicode="&#xb77d;" 
d="M466 361v64h-291v100h280v219h-355v-63h280v-95h-280v-157q0 -28 20.5 -48t48.5 -20h297zM715 -195v352v369h135v69h-135v170h-75v-608h-343v-69h343v-283h75z" />
    <glyph glyph-name="uniB780" unicode="&#xb780;" 
d="M850 526v69h-135v170h-75v-620h75v381h135zM466 361v64h-291v100h280v219h-355v-63h280v-95h-280v-157q0 -28 20.5 -48t48.5 -20h297zM725 -195v69h-342v242h-75v-243q0 -28 20 -48t48 -20h349z" />
    <glyph glyph-name="uniB784" unicode="&#xb784;" 
d="M466 361v64h-291v100h280v219h-355v-63h280v-95h-280v-157q0 -28 20.5 -48t48.5 -20h297zM725 -215v64h-342v98h332v221v358h135v69h-135v170h-75v-597h-332v-64h332v-97h-332v-154q0 -28 20 -48t48 -20h349z" />
    <glyph glyph-name="uniB78C" unicode="&#xb78c;" 
d="M466 361v64h-291v100h280v219h-355v-63h280v-95h-280v-157q0 -28 20.5 -48t48.5 -20h297zM715 -127v284v369h135v69h-135v170h-75v-608h-332v-284q0 -28 20 -48t48 -20h270q29 0 49 20t20 48zM640 -126h-257v214h257v-214z" />
    <glyph glyph-name="uniB78D" unicode="&#xb78d;" 
d="M466 361v64h-291v100h280v219h-355v-63h280v-95h-280v-157q0 -28 20.5 -48t48.5 -20h297zM715 -132v289v369h135v69h-135v170h-75v-620v-80h-257v92h-75v-289q0 -28 20 -48t48 -20h270q29 0 49 20t20 48zM640 -131h-257v127h257v-127z" />
    <glyph glyph-name="uniB78F" unicode="&#xb78f;" 
d="M850 526v69h-135v170h-75v-620h75v381h135zM466 361v64h-291v100h280v219h-355v-63h280v-95h-280v-157q0 -28 20.5 -48t48.5 -20h297zM741 -154l-250 293l-251 -293l58 -45l193 228l192 -228z" />
    <glyph glyph-name="uniB790" unicode="&#xb790;" 
d="M850 526v69h-135v170h-75v-620h75v381h135zM466 361v64h-291v100h280v219h-355v-63h280v-95h-280v-157q0 -28 20.5 -48t48.5 -20h297zM742 -173l-156 315l-127 -207l-125 207l-156 -315l65 -28l97 198l119 -180l121 180l97 -198z" />
    <glyph glyph-name="uniB791" unicode="&#xb791;" 
d="M850 526v69h-135v170h-75v-652q-37 20 -64 28t-53 8q-39 0 -73.5 -14t-61 -39t-42 -58t-15.5 -71q0 -37 15.5 -70t41.5 -58t61 -39.5t74 -14.5q40 0 75 14.5t61 39.5t41 58t15 70v559h135zM640 -33q0 -26 -9.5 -47t-26 -36t-37.5 -23.5t-44 -8.5q-24 0 -45.5 8.5
t-37.5 23.5t-25.5 36t-9.5 47q0 25 9.5 46.5t25.5 37t37.5 24t45.5 8.5q22 0 43.5 -8.5t37.5 -23.5t26 -36.5t10 -47.5zM466 361v64h-291v100h280v219h-355v-63h280v-95h-280v-157q0 -28 20.5 -48t48.5 -20h297z" />
    <glyph glyph-name="uniB792" unicode="&#xb792;" 
d="M466 361v64h-291v100h280v219h-355v-63h280v-95h-280v-157q0 -28 20.5 -48t48.5 -20h297zM756 -155l-204 243h163v69v369h135v69h-135v170h-75v-608h-332v-69h162l-203 -243l56 -44l188 226l188 -226z" />
    <glyph glyph-name="uniB796" unicode="&#xb796;" 
d="M466 361v64h-291v100h280v219h-355v-63h280v-95h-280v-157q0 -28 20.5 -48t48.5 -20h297zM414 -126v214h153v-214h-153zM720 -195v69h-78v214h73v69v369h135v69h-135v170h-75v-608h-374v-69h73v-214h-78v-69h459z" />
    <glyph glyph-name="uniB797" unicode="&#xb797;" 
d="M466 361v64h-291v100h280v219h-355v-63h280v-95h-280v-157q0 -28 20.5 -48t48.5 -20h297zM655 -45q0 32 -12.5 61.5t-33.5 51.5h106v69v389h135v69h-135v170h-75v-628h-128v82h-74v-82h-203v-69h106q-21 -22 -33.5 -51.5t-12.5 -61.5q0 -35 14.5 -66t39 -54t57.5 -36.5
t69 -13.5t69 13.5t57.5 36.5t39 54t14.5 66zM580 -45q0 -23 -8.5 -41.5t-22.5 -32.5t-33.5 -21.5t-40.5 -7.5t-40.5 7.5t-33.5 21.5t-22.5 32.5t-8.5 41.5q0 22 8.5 41t22.5 33t33.5 21.5t40.5 7.5t40.5 -7.5t33.5 -21.5t22.5 -33t8.5 -41z" />
    <glyph glyph-name="uniB798" unicode="&#xb798;" 
d="M770 35v730h-75v-192h-110v192h-73v-730h73v468h110v-468h75zM405 305v65h-230v127h219v247h-294v-64h219v-122h-219v-184q0 -28 20.5 -48.5t48.5 -20.5h236z" />
    <glyph glyph-name="uniB799" unicode="&#xb799;" 
d="M405 361v64h-230v100h219v219h-294v-63h219v-95h-219v-157q0 -28 20.5 -48t48.5 -20h236zM770 -195v352v608h-75v-170h-110v170h-73v-496h73v257h110v-369h-345v-69h345v-283h75z" />
    <glyph glyph-name="uniB79C" unicode="&#xb79c;" 
d="M770 145v620h-76v-170h-109v170h-73v-620h73v381h109v-381h76zM405 361v64h-230v100h219v219h-294v-63h219v-95h-219v-157q0 -28 20.5 -48t48.5 -20h236zM780 -195v69h-344v242h-75v-243q0 -28 20.5 -48t48.5 -20h350z" />
    <glyph glyph-name="uniB7A0" unicode="&#xb7a0;" 
d="M405 361v64h-230v100h219v219h-294v-63h219v-95h-219v-157q0 -28 20.5 -48t48.5 -20h236zM780 -215v64h-344v98h334v221v597h-76v-170h-109v170h-73v-496h73v257h109v-358h-333v-64h333v-97h-333v-154q0 -28 20.5 -48t48.5 -20h350z" />
    <glyph glyph-name="uniB7A8" unicode="&#xb7a8;" 
d="M405 361v64h-230v100h219v219h-294v-63h219v-95h-219v-157q0 -28 20.5 -48t48.5 -20h236zM770 -127v284v608h-75v-170h-110v170h-73v-496h73v257h110v-369h-334v-284q0 -28 20.5 -48t48.5 -20h271q29 0 49 20t20 48zM695 -126h-259v214h259v-214z" />
    <glyph glyph-name="uniB7A9" unicode="&#xb7a9;" 
d="M405 361v64h-230v100h219v219h-294v-63h219v-95h-219v-157q0 -28 20.5 -48t48.5 -20h236zM770 -132v289v608h-75v-170h-110v170h-73v-496h73v257h110v-381v-80h-259v92h-75v-289q0 -28 20.5 -48t48.5 -20h271q29 0 49 20t20 48zM695 -131h-259v127h259v-127z" />
    <glyph glyph-name="uniB7AB" unicode="&#xb7ab;" 
d="M769 145v620h-75v-170h-110v170h-73v-496h73v257h110v-381h75zM404 361v64h-229v100h219v219h-294v-63h219v-95h-219v-157q0 -28 20.5 -48t48.5 -20h235zM795 -154l-251 293l-251 -293l58 -45l193 228l192 -228z" />
    <glyph glyph-name="uniB7AC" unicode="&#xb7ac;" 
d="M769 145v620h-75v-170h-110v170h-73v-496h73v257h110v-381h75zM404 361v64h-229v100h219v219h-294v-63h219v-95h-219v-157q0 -28 20.5 -48t48.5 -20h235zM796 -173l-157 315l-127 -207l-125 207l-157 -315l65 -28l98 198l120 -180l120 180l98 -198z" />
    <glyph glyph-name="uniB7AD" unicode="&#xb7ad;" 
d="M770 -33v798h-75v-170h-110v170h-73v-496h73v257h110v-413q-37 20 -64.5 28t-53.5 8q-39 0 -74 -14.5t-61.5 -39t-42 -58t-15.5 -70.5t15.5 -70t41.5 -58t61.5 -39.5t74.5 -14.5q40 0 75 15t61 40t41.5 58t15.5 69zM695 -33q0 -26 -9.5 -47t-25.5 -36t-37.5 -23.5
t-45.5 -8.5t-45.5 8.5t-37.5 23.5t-25.5 36t-9.5 47q0 25 9.5 46.5t25.5 37t37.5 24t45.5 8.5t45.5 -8.5t37.5 -24t25.5 -37t9.5 -46.5zM405 361v64h-230v100h219v219h-294v-63h219v-95h-219v-157q0 -28 20.5 -48t48.5 -20h236z" />
    <glyph glyph-name="uniB7B4" unicode="&#xb7b4;" 
d="M850 404v70h-135v117h135v70h-135v104h-75v-730h75v369h135zM466 305v65h-291v127h280v247h-355v-64h280v-122h-280v-184q0 -28 20.5 -48.5t48.5 -20.5h297z" />
    <glyph glyph-name="uniB7B5" unicode="&#xb7b5;" 
d="M466 361v64h-291v100h280v219h-355v-63h280v-95h-280v-157q0 -28 20.5 -48t48.5 -20h297zM715 -195v352v281h135v69h-135v107h135v69h-135v82h-75v-608h-343v-69h343v-283h75z" />
    <glyph glyph-name="uniB7B8" unicode="&#xb7b8;" 
d="M850 438v69h-135v107h135v69h-135v82h-75v-620h75v293h135zM466 361v77h-291v87h280v219h-355v-63h280v-95h-280v-157q0 -28 20.5 -48t48.5 -20h297zM725 -195v69h-342v242h-75v-243q0 -28 20 -48t48 -20h349z" />
    <glyph glyph-name="uniB7C7" unicode="&#xb7c7;" 
d="M850 439v69h-135v106h135v69h-135v82h-75v-620h75v294h135zM466 361v78h-291v86h280v219h-355v-63h280v-95h-280v-157q0 -28 20.5 -48t48.5 -20h297zM741 -154l-250 293l-251 -293l58 -45l193 228l192 -228z" />
    <glyph glyph-name="uniB7C9" unicode="&#xb7c9;" 
d="M850 439v69h-135v106h135v69h-135v82h-75v-652q-37 20 -64 28t-53 8q-39 0 -73.5 -14t-61 -39t-42 -58t-15.5 -71q0 -37 15.5 -70t41.5 -58t61 -39.5t74 -14.5q40 0 75 14.5t61 39.5t41 58t15 70v472h135zM640 -33q0 -26 -9.5 -47t-26 -36t-37.5 -23.5t-44 -8.5
q-24 0 -45.5 8.5t-37.5 23.5t-25.5 36t-9.5 47q0 25 9.5 46.5t25.5 37t37.5 24t45.5 8.5q22 0 43.5 -8.5t37.5 -23.5t26 -36.5t10 -47.5zM466 361v64h-291v100h280v219h-355v-63h280v-95h-280v-157q0 -28 20.5 -48t48.5 -20h297z" />
    <glyph glyph-name="uniB7EC" unicode="&#xb7ec;" 
d="M489 305v66h-292v124h282h184v-460h77v730h-77v-198h-184v177h-359v-66h282v-119h-282v-185q0 -28 21 -48.5t49 -20.5h299z" />
    <glyph glyph-name="uniB7ED" unicode="&#xb7ed;" 
d="M740 -195v354v606h-77v-171h-184v150h-359v-65h282v-93h-282v-157q0 -28 21 -48.5t49 -20.5h299v66h-292v97h282h184v-364h-345v-71h345v-283h77z" />
    <glyph glyph-name="uniB7F0" unicode="&#xb7f0;" 
d="M489 360v66h-292v97h282h183v-379h78v621h-78v-171h-183v150h-359v-65h282v-93h-282v-157q0 -28 20.5 -48.5t49.5 -20.5h299zM750 -195v71h-344v241h-77v-243q0 -28 20.5 -48.5t48.5 -20.5h352z" />
    <glyph glyph-name="uniB7F4" unicode="&#xb7f4;" 
d="M750 -215v66h-344v95h334v223v596h-78v-171h-183v150h-359v-65h282v-93h-282v-157q0 -28 20.5 -48.5t49.5 -20.5h299v66h-292v98h282h183v-355h-333v-66h333v-94h-333v-155q0 -28 20.5 -48.5t48.5 -20.5h352z" />
    <glyph glyph-name="uniB7FC" unicode="&#xb7fc;" 
d="M740 -126v285v606h-77v-171h-184v150h-359v-65h282v-93h-282v-157q0 -28 21 -48.5t49 -20.5h299v66h-292v97h282h184v-364h-334v-285q0 -28 20.5 -48.5t49.5 -20.5h271q29 0 49.5 20.5t20.5 48.5zM663 -124h-257v212h257v-212z" />
    <glyph glyph-name="uniB7FD" unicode="&#xb7fd;" 
d="M740 -131v290v606h-77v-171h-184v150h-359v-65h282v-93h-282v-157q0 -28 21 -48.5t49 -20.5h299v66h-292v97h282h184v-379v-78h-257v93h-77v-290q0 -28 20.5 -48.5t49.5 -20.5h271q29 0 49.5 20.5t20.5 48.5zM663 -129h-257v124h257v-124z" />
    <glyph glyph-name="uniB7FF" unicode="&#xb7ff;" 
d="M489 360v66h-292v98h281h184v-380h77v621h-77v-171h-184v150h-358v-65h281v-93h-281v-157q0 -28 20.5 -48.5t49.5 -20.5h299zM765 -154l-252 295l-253 -295l60 -46l193 228l192 -228z" />
    <glyph glyph-name="uniB800" unicode="&#xb800;" 
d="M489 360v66h-292v98h281h184v-380h77v621h-77v-171h-184v150h-358v-65h281v-93h-281v-157q0 -28 20.5 -48.5t49.5 -20.5h299zM766 -173l-158 317l-127 -206l-125 206l-158 -317l67 -28l97 197l119 -180l121 179l97 -196z" />
    <glyph glyph-name="uniB801" unicode="&#xb801;" 
d="M740 -32v797h-77v-171h-184v150h-359v-65h282v-93h-282v-157q0 -28 21 -48.5t49 -20.5h299v66h-292v98h282h184v-409q-37 20 -64 28t-53 8q-39 0 -74.5 -14.5t-62 -39.5t-42 -58.5t-15.5 -70.5q0 -38 15.5 -71t42 -58t62 -39.5t74.5 -14.5t74.5 14.5t62 39.5t42 58
t15.5 71zM663 -32q0 -25 -9.5 -46t-26 -36t-37.5 -23.5t-44 -8.5t-44.5 8.5t-37.5 23.5t-25.5 36t-9.5 46t9.5 46t25.5 36t37.5 23.5t44.5 8.5t44.5 -8.5t37.5 -23.5t25.5 -36t9.5 -46z" />
    <glyph glyph-name="uniB807" unicode="&#xb807;" 
d="M679 -44q0 32 -12 60.5t-33 50.5h106v71v627h-77v-171h-184v150h-359v-65h282v-93h-282v-157q0 -28 21 -48.5t49 -20.5h299v66h-292v98h282h184v-386h-127v83h-77v-83h-203v-71h105q-21 -22 -33 -50.5t-12 -60.5q0 -36 15 -67t40 -54t58 -36.5t69 -13.5t69 13.5t57.5 37
t39.5 54.5t15 66zM602 -44q0 -23 -8 -41.5t-22.5 -32t-33.5 -21t-40 -7.5t-40.5 7.5t-33.5 21t-22.5 32t-8.5 41.5q0 22 8.5 40.5t22.5 32t33.5 21t40.5 7.5q43 0 73.5 -28t30.5 -73z" />
    <glyph glyph-name="uniB808" unicode="&#xb808;" 
d="M770 35v730h-77v-730h77zM406 305v66h-229v124h218h134v-460h75v730h-75v-198h-134v177h-295v-66h218v-119h-218v-185q0 -28 20.5 -48.5t49.5 -20.5h236z" />
    <glyph glyph-name="uniB809" unicode="&#xb809;" 
d="M406 360v66h-229v97h218h134v-255h75v497h-75v-171h-134v150h-295v-65h218v-93h-218v-157q0 -28 20.5 -48.5t49.5 -20.5h236zM770 -195v354v606h-77v-606h-343v-71h343v-283h77z" />
    <glyph glyph-name="uniB80C" unicode="&#xb80c;" 
d="M770 144v621h-77v-621h77zM406 360v66h-229v97h218h133v-379h75v621h-75v-171h-133v150h-295v-65h218v-93h-218v-157q0 -28 20.5 -48.5t49.5 -20.5h236zM780 -195v71h-343v241h-77v-243q0 -28 20.5 -48.5t49.5 -20.5h350z" />
    <glyph glyph-name="uniB810" unicode="&#xb810;" 
d="M406 360v66h-229v98h218h133v-256h75v497h-75v-171h-133v150h-295v-65h218v-93h-218v-157q0 -28 20.5 -48.5t49.5 -20.5h236zM780 -215v66h-343v95h333v223v596h-77v-596h-333v-66h333v-94h-333v-155q0 -28 20.5 -48.5t49.5 -20.5h350z" />
    <glyph glyph-name="uniB818" unicode="&#xb818;" 
d="M406 360v66h-229v97h218h134v-255h75v497h-75v-171h-134v150h-295v-65h218v-93h-218v-157q0 -28 20.5 -48.5t49.5 -20.5h236zM770 -126v285v606h-77v-606h-333v-285q0 -28 20.5 -48.5t49.5 -20.5h270q29 0 49.5 20.5t20.5 48.5zM693 -124h-256v212h256v-212z" />
    <glyph glyph-name="uniB819" unicode="&#xb819;" 
d="M406 360v66h-229v97h218h134v-255h75v497h-75v-171h-134v150h-295v-65h218v-93h-218v-157q0 -28 20.5 -48.5t49.5 -20.5h236zM770 -131v290v606h-77v-621v-78h-256v93h-77v-290q0 -28 20.5 -48.5t49.5 -20.5h270q29 0 49.5 20.5t20.5 48.5zM693 -129h-256v124h256v-124z
" />
    <glyph glyph-name="uniB81B" unicode="&#xb81b;" 
d="M769 144v621h-77v-621h77zM405 360v66h-228v98h218h133v-256h75v497h-75v-171h-133v150h-295v-65h218v-93h-218v-157q0 -28 20.5 -48.5t49.5 -20.5h235zM795 -154l-252 295l-251 -295l59 -46l192 228l192 -228z" />
    <glyph glyph-name="uniB81D" unicode="&#xb81d;" 
d="M770 -32v797h-77v-650q-37 20 -64 28t-53 8q-39 0 -74.5 -14.5t-61.5 -39.5t-41.5 -58.5t-15.5 -70.5t15.5 -70.5t41.5 -58.5t61.5 -39.5t74.5 -14.5t74.5 14.5t62 39.5t42 58t15.5 71zM693 -32q0 -26 -9.5 -47t-25 -36t-37 -23t-45.5 -8t-45 8t-36.5 23t-25 36t-9.5 47
q0 25 9.5 46t25 36t36.5 23.5t45 8.5t45.5 -8.5t37 -23.5t25 -36t9.5 -46zM406 360v66h-229v98h218h134v-256h75v497h-75v-171h-134v150h-295v-65h218v-93h-218v-157q0 -28 20.5 -48.5t49.5 -20.5h236z" />
    <glyph glyph-name="uniB824" unicode="&#xb824;" 
d="M740 35v730h-75v-104h-147v-70h147v-128h-147v-69h147v-359h75zM468 305v65h-273v127h262v247h-337v-64h262v-122h-262v-184q0 -28 20.5 -48.5t48.5 -20.5h279z" />
    <glyph glyph-name="uniB825" unicode="&#xb825;" 
d="M468 361v64h-273v100h262v219h-337v-63h262v-95h-262v-157q0 -28 20.5 -48t48.5 -20h279zM740 -195v352v608h-75v-82h-147v-69h147v-117h-147v-69h147v-271h-346v-69h346v-283h75z" />
    <glyph glyph-name="uniB828" unicode="&#xb828;" 
d="M740 145v620h-76v-82h-146v-69h146v-117h-146v-69h146v-283h76zM467 361v64h-272v100h262v219h-337v-63h262v-95h-262v-157q0 -28 20.5 -48t48.5 -20h278zM750 -195v69h-345v242h-76v-243q0 -28 20.5 -48t48.5 -20h352z" />
    <glyph glyph-name="uniB82C" unicode="&#xb82c;" 
d="M467 361v64h-272v100h262v219h-337v-63h262v-95h-262v-157q0 -28 20.5 -48t48.5 -20h278zM750 -215v64h-345v98h335v221v597h-76v-82h-146v-69h146v-117h-146v-69h146v-260h-335v-64h335v-97h-335v-154q0 -28 20.5 -48t48.5 -20h352z" />
    <glyph glyph-name="uniB834" unicode="&#xb834;" 
d="M468 361v64h-273v100h262v219h-337v-63h262v-95h-262v-157q0 -28 20.5 -48t48.5 -20h279zM740 -127v284v608h-75v-82h-147v-69h147v-117h-147v-69h147v-271h-336v-284q0 -28 21 -48t49 -20h272q29 0 49 20t20 48zM665 -126h-260v214h260v-214z" />
    <glyph glyph-name="uniB835" unicode="&#xb835;" 
d="M468 361v64h-273v100h262v219h-337v-63h262v-95h-262v-157q0 -28 20.5 -48t48.5 -20h279zM740 -132v289v608h-75v-82h-147v-69h147v-117h-147v-69h147v-283v-80h-260v92h-76v-289q0 -28 21 -48t49 -20h272q29 0 49 20t20 48zM665 -131h-260v127h260v-127z" />
    <glyph glyph-name="uniB837" unicode="&#xb837;" 
d="M739 145v620h-76v-82h-146v-69h146v-117h-146v-69h146v-283h76zM467 361v64h-272v100h261v219h-336v-63h261v-95h-261v-157q0 -28 20.5 -48t48.5 -20h278zM765 -154l-252 293l-252 -293l59 -45l193 228l193 -228z" />
    <glyph glyph-name="uniB838" unicode="&#xb838;" 
d="M739 145v620h-76v-82h-146v-69h146v-117h-146v-69h146v-283h76zM467 361v64h-272v100h261v219h-336v-63h261v-95h-261v-157q0 -28 20.5 -48t48.5 -20h278zM766 -173l-157 315l-128 -207l-126 207l-157 -315l65 -28l99 198l120 -180l121 180l98 -198z" />
    <glyph glyph-name="uniB839" unicode="&#xb839;" 
d="M468 361v64h-273v100h262v219h-337v-63h262v-95h-262v-157q0 -28 20.5 -48t48.5 -20h279zM740 -33v798h-75v-82h-147v-69h147v-117h-147v-69h147v-315q-38 20 -65.5 28t-53.5 8q-39 0 -74 -14.5t-61.5 -39t-42 -58t-15.5 -70.5t15.5 -70t41.5 -58t61.5 -39.5t74.5 -14.5
t74.5 14.5t62 39.5t42 58t15.5 70zM665 -33q0 -26 -9.5 -47t-26 -36t-38 -23.5t-45.5 -8.5t-45.5 8.5t-37.5 23.5t-25.5 36t-9.5 47q0 25 9.5 46.5t25.5 37t37.5 24t45.5 8.5t45.5 -8.5t38 -24t26 -37t9.5 -46.5z" />
    <glyph glyph-name="uniB840" unicode="&#xb840;" 
d="M770 35v730h-75v-730h75zM603 35v730h-73v-104h-106v-70h106v-117h-106v-70h106v-369h73zM384 305v65h-209v127h198v247h-273v-64h198v-122h-198v-184q0 -28 20.5 -48.5t48.5 -20.5h215z" />
    <glyph glyph-name="uniB844" unicode="&#xb844;" 
d="M770 145v620h-76v-620h76zM603 145v620h-73v-82h-117v-69h117v-117h-117v-69h117v-283h73zM373 361v64h-198v100h188v219h-263v-63h188v-95h-188v-157q0 -28 20.5 -48t48.5 -20h204zM780 -195v69h-344v242h-75v-243q0 -28 20.5 -48t48.5 -20h350z" />
    <glyph glyph-name="uniB851" unicode="&#xb851;" 
d="M603 269v496h-73v-82h-117v-69h117v-117h-117v-69h117v-159h73zM373 361v64h-198v100h188v219h-263v-63h188v-95h-188v-157q0 -28 20.5 -48t48.5 -20h204zM770 -132v289v608h-75v-620v-80h-259v92h-75v-289q0 -28 20.5 -48t48.5 -20h271q29 0 49 20t20 48zM695 -131h-259
v127h259v-127z" />
    <glyph glyph-name="uniB853" unicode="&#xb853;" 
d="M769 145v620h-75v-620h75zM602 269v496h-73v-82h-117v-69h117v-117h-117v-69h117v-159h73zM373 361v64h-198v100h187v219h-262v-63h187v-95h-187v-157q0 -28 20.5 -48t48.5 -20h204zM795 -154l-251 293l-251 -293l58 -45l193 228l192 -228z" />
    <glyph glyph-name="uniB85C" unicode="&#xb85c;" 
d="M860 140v70h-373v145h176v65h-341v105h331v230h-406v-65h331v-104h-331v-162q0 -28 20 -48.5t48 -20.5h98v-145h-373v-70h820z" />
    <glyph glyph-name="uniB85D" unicode="&#xb85d;" 
d="M860 202v69h-373v121h176v64h-341v88h331v211h-406v-64h331v-86h-331v-145q0 -28 20 -48t48 -20h98v-121h-373v-69h820zM653 -195v301h-416v-69h341v-232h75z" />
    <glyph glyph-name="uniB860" unicode="&#xb860;" 
d="M860 191v69h-373v132h176v64h-341v88h331v211h-406v-64h331v-86h-331v-145q0 -28 20 -48t48 -20h98v-132h-373v-69h820zM663 -195v69h-341v201h-75v-202q0 -28 20 -48t48 -20h348z" />
    <glyph glyph-name="uniB864" unicode="&#xb864;" 
d="M860 233v69h-373v91h176v63h-341v88h331v211h-406v-64h331v-86h-331v-145q0 -28 20 -47.5t48 -19.5h98v-91h-373v-69h820zM663 -215v64h-341v87h331v211h-406v-63h331v-87h-331v-144q0 -28 20 -48t48 -20h348z" />
    <glyph glyph-name="uniB86C" unicode="&#xb86c;" 
d="M860 222v69h-373v101h176v64h-341v88h331v211h-406v-64h331v-86h-331v-145q0 -28 20 -48t48 -20h98v-101h-373v-69h820zM653 -127v253h-406v-253q0 -28 20 -48t48 -20h270q28 0 48 20t20 48zM578 -126h-256v183h256v-183z" />
    <glyph glyph-name="uniB86D" unicode="&#xb86d;" 
d="M860 222v69h-373v101h176v64h-341v88h331v211h-406v-64h331v-86h-331v-145q0 -28 20 -48t48 -20h98v-101h-373v-69h820zM653 -137v269h-75v-83h-256v83h-75v-269q0 -28 20 -48t48 -20h270q28 0 48 20t20 48zM578 -136h-256v116h256v-116z" />
    <glyph glyph-name="uniB86F" unicode="&#xb86f;" 
d="M860 222v69h-373v101h176v64h-341v88h331v211h-406v-64h331v-86h-331v-145q0 -28 20 -48t48 -20h98v-101h-373v-69h820zM699 -154l-249 293l-249 -293l57 -45l192 228l192 -228z" />
    <glyph glyph-name="uniB871" unicode="&#xb871;" 
d="M860 223v69h-373v101h176v63h-341v88h331v211h-406v-64h331v-86h-331v-145q0 -28 20 -47.5t48 -19.5h98v-101h-373v-69h820zM642 -42q0 35 -15 66.5t-41.5 55t-61.5 37.5t-74 14t-74 -13.5t-61 -37t-41.5 -55t-15.5 -67.5t15.5 -67.5t42 -55t61.5 -37t73 -13.5
q39 0 74 14t61 37.5t41.5 55t15.5 66.5zM567 -42q0 -24 -9.5 -43.5t-25.5 -33.5t-37 -21.5t-45 -7.5q-22 0 -43 7.5t-37.5 21.5t-26.5 33.5t-10 43.5t10 43.5t26.5 33.5t37.5 21.5t43 7.5q24 0 45 -7.5t37 -21.5t25.5 -33.5t9.5 -43.5z" />
    <glyph glyph-name="uniB878" unicode="&#xb878;" 
d="M661 165v-130h75v458h134v69h-134v203h-75v-530h-303v133h150v64h-289v99h279v224h-354v-65h279v-98h-279v-156q0 -28 20.5 -48t48.5 -20h71v-133h-274v-70h651z" />
    <glyph glyph-name="uniB87C" unicode="&#xb87c;" 
d="M661 202v-88h75v412h134v69h-134v170h-75v-494h-303v121h150v64h-289v88h279v211h-354v-64h279v-87h-279v-144q0 -28 20.5 -48t48.5 -20h71v-121h-274v-69h651zM746 -195v69h-341v201h-75v-202q0 -28 20.5 -48t48.5 -20h347z" />
    <glyph glyph-name="uniB88D" unicode="&#xb88d;" 
d="M661 223v-127q-37 20 -64 27.5t-53 7.5q-39 0 -74 -14t-61 -37.5t-41 -55t-15 -66.5t15 -66.5t41.5 -55t61 -37.5t73.5 -14t74 14t61 37.5t41.5 55t15.5 66.5v568h134v69h-134v170h-75v-474h-303v101h150v64h-289v88h279v211h-354v-64h279v-87h-279v-144q0 -28 20.5 -48
t48.5 -20h71v-101h-274v-68h651zM661 -42q0 -24 -9.5 -43.5t-25.5 -33.5t-37 -21.5t-45 -7.5q-23 0 -43.5 7.5t-37 21.5t-26 33.5t-9.5 43.5t9.5 43.5t26 33.5t37 21.5t43.5 7.5q24 0 45 -7.5t37 -21.5t25.5 -33.5t9.5 -43.5z" />
    <glyph glyph-name="uniB8A8" unicode="&#xb8a8;" 
d="M535 223h60v303h109v-412h75v651h-75v-170h-109v170h-72v-474h-216v101h130v64h-249v88h239v211h-313v-64h238v-87h-238v-144q0 -28 20 -48t48 -20h51v-101h-223v-68h513h12zM806 -183l-156 305l-126 -196l-125 196l-156 -305l65 -28l98 192l118 -174l119 174l98 -192z
" />
    <glyph glyph-name="uniB8B0" unicode="&#xb8b0;" 
d="M685 165v-130h75v730h-75v-530h-305v133h151v64h-291v99h281v224h-356v-65h281v-98h-281v-156q0 -28 20.5 -48t48.5 -20h72v-133h-276v-70h655z" />
    <glyph glyph-name="uniB8B4" unicode="&#xb8b4;" 
d="M685 202v-88h75v651h-75v-494h-305v121h151v64h-291v88h281v211h-356v-64h281v-87h-281v-144q0 -28 20.5 -48t48.5 -20h71v-121h-275v-69h655zM770 -195v69h-343v201h-75v-202q0 -28 20.5 -48t48.5 -20h349z" />
    <glyph glyph-name="uniB8B8" unicode="&#xb8b8;" 
d="M770 -215v64h-343v87h333v211v618h-75v-463h-305v90h151v64h-291v88h281v211h-356v-64h281v-87h-281v-144q0 -28 20.5 -48t48.5 -20h71v-90h-275v-69h655v-86h-333v-63h333v-87h-333v-144q0 -28 20.5 -48t48.5 -20h349z" />
    <glyph glyph-name="uniB8C0" unicode="&#xb8c0;" 
d="M760 -127v253v639h-75v-474h-305v101h151v64h-291v88h281v211h-356v-64h281v-87h-281v-144q0 -28 20.5 -48t48.5 -20h72v-101h-276v-69h655v-96h-333v-253q0 -28 20.5 -48t48.5 -20h270q29 0 49 20t20 48zM685 -126h-258v183h258v-183z" />
    <glyph glyph-name="uniB8C1" unicode="&#xb8c1;" 
d="M760 -137v269v633h-75v-474h-305v101h151v64h-291v88h281v211h-356v-64h281v-87h-281v-144q0 -28 20.5 -48t48.5 -20h72v-101h-276v-69h655v-108v-65h-258v83h-75v-269q0 -28 20.5 -48t48.5 -20h270q29 0 49 20t20 48zM685 -136h-258v116h258v-116z" />
    <glyph glyph-name="uniB8C3" unicode="&#xb8c3;" 
d="M684 222v-108h75v651h-75v-474h-304v101h150v64h-290v88h280v211h-355v-64h280v-87h-280v-144q0 -28 20 -48t48 -20h72v-101h-275v-69h654zM785 -154l-250 293l-251 -293l58 -45l193 228l192 -228z" />
    <glyph glyph-name="uniB8C5" unicode="&#xb8c5;" 
d="M685 223v-127q-37 20 -64 27.5t-53 7.5q-39 0 -74.5 -13.5t-61.5 -37t-41.5 -55t-15.5 -67.5t15.5 -67.5t42 -55t61.5 -37t74 -13.5t74 14t61 37.5t41.5 55t15.5 66.5v807h-75v-474h-305v101h151v64h-291v88h281v211h-356v-64h281v-87h-281v-144q0 -28 20.5 -48t48.5 -20
h72v-101h-276v-68h655zM685 -42q0 -24 -9.5 -43.5t-25.5 -33.5t-37 -21.5t-45 -7.5q-23 0 -44 7.5t-37.5 21t-26.5 33.5t-10 44t10 43.5t26.5 33.5t37.5 21.5t44 7.5q24 0 45 -7.5t37 -21.5t25.5 -33.5t9.5 -43.5z" />
    <glyph glyph-name="uniB8CC" unicode="&#xb8cc;" 
d="M384 210v145h132v-145h-132zM860 140v70h-269v145h72v65h-341v105h331v230h-406v-65h331v-104h-331v-162q0 -27 18.5 -47t43.5 -22v-145h-269v-70h820z" />
    <glyph glyph-name="uniB8D0" unicode="&#xb8d0;" 
d="M384 260v132h132v-132h-132zM860 191v69h-269v132h72v64h-341v88h331v211h-406v-64h331v-86h-331v-145q0 -26 18.5 -45.5t43.5 -21.5v-133h-269v-69h820zM663 -195v69h-341v201h-75v-202q0 -28 20 -48t48 -20h348z" />
    <glyph glyph-name="uniB8D4" unicode="&#xb8d4;" 
d="M384 393h132v-91h-132v91zM309 302h-269v-69h820v69h-269v91h72v63h-341v88h331v211h-406v-64h331v-86h-331v-145q0 -26 18.5 -45.5t43.5 -21.5v-91zM663 -215v64h-341v87h331v211h-406v-63h331v-87h-331v-144q0 -28 20 -48t48 -20h348z" />
    <glyph glyph-name="uniB8DD" unicode="&#xb8dd;" 
d="M384 392h132v-101h-132v101zM309 291h-269v-69h820v69h-269v101h72v64h-341v88h331v211h-406v-64h331v-86h-331v-145q0 -26 18.5 -45.5t43.5 -21.5v-102zM653 -137v269h-75v-83h-256v83h-75v-269q0 -28 20 -48t48 -20h270q28 0 48 20t20 48zM578 -136h-256v116h256v-116z
" />
    <glyph glyph-name="uniB8DF" unicode="&#xb8df;" 
d="M384 281v111h132v-111h-132zM860 212v69h-269v111h72v64h-341v88h331v211h-406v-64h331v-86h-331v-145q0 -26 18.5 -45.5t43.5 -21.5v-112h-269v-69h820zM699 -154l-249 293l-249 -293l57 -45l192 228l192 -228z" />
    <glyph glyph-name="uniB8E1" unicode="&#xb8e1;" 
d="M384 281v112h132v-112h-132zM860 212v69h-269v112h72v63h-341v88h331v211h-406v-64h331v-86h-331v-145q0 -26 18.5 -45.5t43.5 -21.5v-112h-269v-69h820zM642 -42q0 35 -15 66.5t-41.5 55t-61.5 37.5t-74 14t-74 -13.5t-61 -37t-41.5 -55t-15.5 -67.5t15.5 -67.5t42 -55
t61.5 -37t73 -13.5q39 0 74 14t61 37.5t41.5 55t15.5 66.5zM567 -42q0 -24 -9.5 -43.5t-25.5 -33.5t-37 -21.5t-45 -7.5q-22 0 -43 7.5t-37.5 21.5t-26.5 33.5t-10 43.5t10 43.5t26.5 33.5t37.5 21.5t43 7.5q24 0 45 -7.5t37 -21.5t25.5 -33.5t9.5 -43.5z" />
    <glyph glyph-name="uniB8E8" unicode="&#xb8e8;" 
d="M663 369v64h-341v99h331v223h-406v-64h331v-98h-331v-156q0 -28 20 -48t48 -20h348zM487 -15v202h373v70h-820v-70h373v-202h74z" />
    <glyph glyph-name="uniB8E9" unicode="&#xb8e9;" 
d="M663 392v64h-341v88h331v211h-406v-64h331v-86h-331v-145q0 -28 20 -48t48 -20h348zM653 -195v301h-166v127h373v69h-820v-69h373v-127h-176v-69h341v-232h75z" />
    <glyph glyph-name="uniB8EC" unicode="&#xb8ec;" 
d="M663 392v64h-341v88h331v211h-406v-64h331v-86h-331v-145q0 -28 20 -48t48 -20h348zM518 52v160h342v69h-820v-69h404v-160h74zM663 -195v69h-341v201h-75v-202q0 -28 20 -48t48 -20h348z" />
    <glyph glyph-name="uniB8F0" unicode="&#xb8f0;" 
d="M663 393v63h-341v88h331v211h-406v-64h331v-86h-331v-145q0 -28 20 -47.5t48 -19.5h348zM663 -215v64h-341v87h331v211h-166v96h373v69h-820v-69h373v-96h-166v-63h331v-87h-331v-144q0 -28 20 -48t48 -20h348z" />
    <glyph glyph-name="uniB8F8" unicode="&#xb8f8;" 
d="M663 392v64h-341v88h331v211h-406v-64h331v-86h-331v-145q0 -28 20 -48t48 -20h348zM653 -127v253h-166v107h373v69h-820v-69h373v-107h-166v-253q0 -28 20 -48t48 -20h270q28 0 48 20t20 48zM578 -126h-256v183h256v-183z" />
    <glyph glyph-name="uniB8F9" unicode="&#xb8f9;" 
d="M663 392v64h-341v88h331v211h-406v-64h331v-86h-331v-145q0 -28 20 -48t48 -20h348zM487 135v108h373v69h-820v-69h373v-108h74zM653 -137v272h-75v-86h-256v83h-75v-269q0 -28 20 -48t48 -20h270q28 0 48 20t20 48zM578 -136h-256v116h256v-116z" />
    <glyph glyph-name="uniB8FB" unicode="&#xb8fb;" 
d="M663 392v64h-341v88h331v211h-406v-64h331v-86h-331v-145q0 -28 20 -48t48 -20h348zM699 -154l-212 249v138h373v69h-820v-69h373v-138l-212 -249l57 -45l192 228l192 -228z" />
    <glyph glyph-name="uniB8FD" unicode="&#xb8fd;" 
d="M663 393v63h-341v88h331v211h-406v-64h331v-86h-331v-145q0 -28 20 -47.5t48 -19.5h348zM642 -42q0 30 -12 58.5t-32.5 51t-49 38.5t-61.5 22v105h373v69h-820v-69h373v-105q-32 -6 -60.5 -21.5t-49.5 -38t-33 -51t-12 -59.5q0 -36 15.5 -67.5t42 -55t61.5 -37t73 -13.5
q39 0 74 14t61 37.5t41.5 55t15.5 66.5zM567 -42q0 -24 -9.5 -43.5t-25.5 -33.5t-37 -21.5t-45 -7.5q-22 0 -43 7.5t-37.5 21.5t-26.5 33.5t-10 43.5t10 43.5t26.5 33.5t37.5 21.5t43 7.5q24 0 45 -7.5t37 -21.5t25.5 -33.5t9.5 -43.5z" />
    <glyph glyph-name="uniB904" unicode="&#xb904;" 
d="M760 35v730h-75v-548h-187v-68h187v-114h75zM531 441v61h-291v68h281v185h-356v-62h281v-66h-281v-118q0 -28 20.5 -48t48.5 -20h297zM354 56v234h219v69h-543v-69h250v-234h74z" />
    <glyph glyph-name="uniB918" unicode="&#xb918;" 
d="M759 84v681h-75v-512h-187v-67h187v-102h75zM530 444v61h-290v66h280v184h-355v-61h280v-66h-280v-116q0 -28 20 -48t48 -20h297zM354 176v139h218v69h-542v-69h249v-139h75zM785 -183l-154 283l-128 -182l-126 182l-154 -283l64 -28l97 182l119 -165l121 165l97 -182z
" />
    <glyph glyph-name="uniB920" unicode="&#xb920;" 
d="M780 35v730h-75v-730h75zM614 149v616h-73v-548h-168v-68h241zM417 441v61h-229v68h218v185h-292v-62h218v-66h-218v-118q0 -28 20 -48t48 -20h235zM282 56v234h166v69h-438v-69h197v-234h75z" />
    <glyph glyph-name="uniB93C" unicode="&#xb93c;" 
d="M531 441v61h-291v68h281v185h-356v-62h281v-66h-281v-118q0 -28 20.5 -48t48.5 -20h297zM354 56v213h331v-234h75v730h-75v-426h-655v-70h250v-213h74z" />
    <glyph glyph-name="uniB93D" unicode="&#xb93d;" 
d="M531 444v60h-291v67h281v184h-356v-61h281v-66h-281v-116q0 -28 20.5 -48t48.5 -20h297zM760 -195v290v670h-75v-402h-655v-69h250v-118h74v118h331v-199h-343v-69h343v-221h75z" />
    <glyph glyph-name="uniB940" unicode="&#xb940;" 
d="M531 444v60h-291v67h281v184h-356v-61h281v-66h-281v-116q0 -28 20.5 -48t48.5 -20h297zM354 155v119h331v-191h75v682h-75v-422h-655v-69h249v-119h75zM770 -195v69h-343v201h-75v-202q0 -28 20.5 -48t48.5 -20h349z" />
    <glyph glyph-name="uniB944" unicode="&#xb944;" 
d="M531 444v61h-291v66h281v184h-356v-61h281v-66h-281v-116q0 -28 20.5 -48t48.5 -20h297zM770 -215v64h-343v77h333v201v638h-75v-401h-655v-69h249v-119h75v119h331v-168h-333v-64h333v-76h-333v-134q0 -28 20.5 -48t48.5 -20h349z" />
    <glyph glyph-name="uniB94C" unicode="&#xb94c;" 
d="M531 444v60h-291v67h281v184h-356v-61h281v-66h-281v-116q0 -28 20.5 -48t48.5 -20h297zM760 -127v233v659h-75v-402h-655v-69h250v-118h74v118h331v-188h-333v-233q0 -28 20.5 -48t48.5 -20h270q29 0 49 20t20 48zM685 -126h-258v163h258v-163z" />
    <glyph glyph-name="uniB94F" unicode="&#xb94f;" 
d="M530 444v60h-290v67h280v184h-355v-61h280v-66h-280v-116q0 -28 20 -48t48 -20h297zM354 125v149h330v-191h75v682h-75v-422h-654v-69h249v-149h75zM784 -155l-249 280l-250 -280l58 -45l192 208l191 -208z" />
    <glyph glyph-name="uniB951" unicode="&#xb951;" 
d="M531 444v61h-291v66h281v184h-356v-61h281v-66h-281v-116q0 -28 20.5 -48t48.5 -20h297zM354 125v149h331v-185q-36 18 -61 25t-50 7q-39 0 -72.5 -13.5t-59 -36.5t-40 -53.5t-14.5 -64.5t14.5 -64.5t40 -53.5t59 -36.5t72.5 -13.5q38 0 72 13.5t59.5 37t40 54t14.5 63.5
v812h-75v-422h-655v-69h250v-149h74zM685 -47q0 -21 -9.5 -39.5t-25 -32t-35.5 -21.5t-41 -8t-41 7.5t-35.5 21t-25 32t-9.5 40.5t9.5 40.5t25 32t35.5 21t41 7.5t41 -8t35.5 -21.5t25 -32t9.5 -39.5z" />
    <glyph glyph-name="uniB958" unicode="&#xb958;" 
d="M663 369v64h-341v99h331v223h-406v-64h331v-98h-331v-156q0 -28 20 -48t48 -20h348zM373 -15v202h154v-202h74v202h259v70h-820v-70h259v-202h74z" />
    <glyph glyph-name="uniB959" unicode="&#xb959;" 
d="M663 392v64h-341v88h331v211h-406v-64h331v-86h-331v-145q0 -28 20 -48t48 -20h348zM384 106v127h132v-127h-132zM653 -195v301h-62v127h269v69h-820v-69h269v-127h-72v-69h341v-232h75z" />
    <glyph glyph-name="uniB95C" unicode="&#xb95c;" 
d="M663 392v64h-341v88h331v211h-406v-64h331v-86h-331v-145q0 -28 20 -48t48 -20h348zM415 73v139h132v-139h75v139h238v69h-820v-69h300v-139h75zM663 -195v69h-341v201h-75v-202q0 -28 20 -48t48 -20h348z" />
    <glyph glyph-name="uniB960" unicode="&#xb960;" 
d="M663 393v63h-341v88h331v211h-406v-64h331v-86h-331v-145q0 -28 20 -47.5t48 -19.5h348zM384 147v96h132v-96h-132zM663 -215v64h-341v87h331v211h-62v96h269v69h-820v-69h269v-96h-62v-63h331v-87h-331v-144q0 -28 20 -48t48 -20h348z" />
    <glyph glyph-name="uniB968" unicode="&#xb968;" 
d="M663 392v64h-341v88h331v211h-406v-64h331v-86h-331v-145q0 -28 20 -48t48 -20h348zM384 126v107h132v-107h-132zM653 -127v253h-62v107h269v69h-820v-69h269v-107h-62v-253q0 -28 20 -48t48 -20h270q28 0 48 20t20 48zM578 -126h-256v183h256v-183z" />
    </font>
</defs>
</svg>
